<?xml version="1.0" encoding="UTF-8"?>
<svg width="180px" height="186.78px" enable-background="new 0 0 180 186.779" version="1.1" viewBox="0 0 180 186.78" xml:space="preserve" xmlns="http://www.w3.org/2000/svg">

	<g fill="#0D4856">
		<path d="m31.855 118.81h-31.629c3.532 12.511 9.607 23.956 17.628 33.74 2.192-2.035 8.692-7.689 18.988-13.427-2.008-6.063-3.744-12.831-4.987-20.313z"/>
		<path d="m36.99 47.544c-10.25-5.692-16.768-11.319-19.048-13.429-7.905 9.614-13.924 20.839-17.498 33.106h31.642c1.255-7.194 2.954-13.759 4.904-19.677z"/>
		<path d="m38.212 143.05c-9.725 5.504-15.854 10.902-17.688 12.613 5.143 5.744 10.981 10.85 17.394 15.176 1.562-1.683 4.758-4.863 9.507-8.354-3.107-5.218-6.36-11.685-9.213-19.435z"/>
		<path d="m69.186 182.06-2.199 1.83c7.396 1.884 15.144 2.888 23.126 2.888 0.062 0 0.121-2e-3 0.179-2e-3l-0.021-11.835c-10.009 0.554-17.196 4.402-21.085 7.119z"/>
		<path d="m49.604 166c-3.881 2.876-6.634 5.505-8.176 7.1 6.732 4.12 14.031 7.41 21.749 9.732-2.845-2.639-7.818-7.902-13.573-16.832z"/>
		<path d="m132.09 166.59c-4.696 7.141-9.252 12.227-12.528 15.448 6.802-2.259 13.256-5.275 19.26-8.954-1.128-1.295-3.402-3.727-6.732-6.494z"/>
		<path d="m47.413 24.096c-4.636-3.41-7.792-6.523-9.389-8.232-6.413 4.317-12.259 9.411-17.408 15.145 1.958 1.81 8.117 7.183 17.735 12.608 2.814-7.712 6.006-14.221 9.062-19.521z"/>
		<path d="m113.17 181.84c-3.187-2.828-9.045-6.453-18.434-6.913l0.021 11.74c6.914-0.338 13.627-1.433 20.067-3.194-0.439-0.485-0.988-1.041-1.654-1.633z"/>
		<path d="m144.21 44.958c9.402-5.061 15.271-10.085 17.215-11.864-5.579-6.589-12.049-12.396-19.229-17.231-1.178 1.386-3.822 4.295-7.884 7.613 3.339 5.706 6.863 12.876 9.898 21.482z"/>
		<path d="m145.54 48.927c1.767 5.553 3.302 11.653 4.459 18.293h29.778c-3.307-11.355-8.714-21.815-15.771-30.936-2.307 2.108-8.383 7.236-18.002 12.397-0.15 0.083-0.308 0.163-0.464 0.246z"/>
		<path d="m138.71 13.628c-5.547-3.387-11.473-6.207-17.701-8.389 3.133 3.432 7.092 8.307 11.146 14.706 3.195-2.662 5.402-5.005 6.555-6.317z"/>
		<path d="m89.959 11.627-0.019-11.627c-7.829 0.016-15.426 0.992-22.691 2.823l1.279 1.224c3.68 2.69 11.024 6.927 21.431 7.58z"/>
		<path d="m49.527 20.567c5.029-8.1 9.341-13.209 12.194-16.169-7.139 2.275-13.907 5.382-20.185 9.215 1.557 1.6 4.249 4.165 7.991 6.954z"/>
		<path d="m113.74 4.223c0.354-0.338 0.664-0.657 0.938-0.953-6.507-1.77-13.292-2.855-20.278-3.171l0.021 11.581c10.175-0.421 16.258-4.545 19.319-7.457z"/>
		<path d="m90.226 151.83c-15.885 0.39-28.391 6.033-36.952 11.617 5.116 7.906 10.145 13.287 13.341 16.319 4.126-3.031 12.158-7.594 23.648-8.178l-0.037-19.758z"/>
		<path d="m141.5 50.96c-11 5.24-26.988 10.57-46.979 10.963l0.011 5.297h50.936c-1.058-5.866-2.418-11.289-3.968-16.26z"/>
		<path d="m127.2 162.89c-6.946-4.764-18.083-10.387-32.505-11.024l0.038 19.703c10.661 0.479 17.321 4.724 20.929 8.016 3.147-3.01 7.967-8.206 12.893-15.742-0.442-0.318-0.891-0.636-1.355-0.953z"/>
		<path d="m94.468 34.733c14.531-0.593 25.746-6.247 32.728-11.034 0.487-0.333 0.961-0.668 1.423-1.002-4.688-7.449-9.291-12.807-12.498-16.124-3.515 3.367-10.377 8.025-21.688 8.458l0.035 19.702z"/>
		<path d="m129.64 26.983c-7.481 5.154-19.524 11.246-35.166 11.843l0.035 19.003c19.026-0.385 34.42-5.366 45.688-10.82-2.894-8.326-6.261-15.262-9.462-20.798-0.358 0.258-0.721 0.516-1.095 0.772z"/>
		<path d="m150.22 118.81c-1.149 6.915-2.718 13.227-4.533 18.928 0.104 0.056 0.212 0.11 0.315 0.166 9.744 5.227 15.848 10.419 18.087 12.474 7.17-9.294 12.631-19.969 15.905-31.566l-29.774-2e-3z"/>
		<path d="m130.72 160.37c3.258-5.443 6.698-12.35 9.633-20.746-6.726-3.26-15.497-6.597-26.042-8.704v-4.168c11.028 2.122 20.237 5.559 27.337 8.952 1.603-5.126 2.993-10.754 4.046-16.89h-51.07v0.056h-4.465v-0.056h-53.777c1.141 6.655 2.681 12.722 4.453 18.188 9.701-4.91 19.4-8.358 29.715-10.344v4.23c-11.406 2.338-20.971 6.191-28.229 9.898 6e-3 0.017 0.012 0.029 0.017 0.046-0.052 0.026-0.108 0.053-0.159 0.08 2.752 7.604 5.909 13.932 8.922 19.025 0.043-0.03 0.085-0.058 0.128-0.086 8.273-5.36 21.655-11.716 38.984-12.121l-8e-3 -5.042h4.465l9e-3 5.08c15.54 0.645 27.512 6.702 34.96 11.837 0.368 0.259 0.727 0.513 1.081 0.765zm-53.333-34.797v-2.538h11.704v2.582h-8.81v3.479h7.103v2.602h-7.104v6.874h-2.895v-12.999h2e-3zm17.274 12.224h-0.818v-14.961h10.531c0.535 0 0.982 0.052 1.367 0.161 0.432 0.127 0.77 0.322 1.041 0.598 0.264 0.275 0.453 0.603 0.584 1.002 0.098 0.313 0.155 0.668 0.193 1.064 6e-3 0.07 0.02 0.134 0.023 0.209 0.011 0.238 0.022 0.516 0.027 0.839 6e-3 0.309 0.018 0.615 0.028 0.921 0.017 0.352 0.021 0.72 0.021 1.104v9.065h-2.843v-9.109c0-0.363-5e-3 -0.724-0.021-1.075-0.012-0.315-0.023-0.646-0.028-1.004-8e-3 -0.323-0.022-0.62-0.047-0.875-0.011-0.094-0.034-0.22-0.101-0.29 0 0-0.066-0.046-0.287-0.046h-2.17v12.397h-2.845v-12.397h-2.631v12.397h-2.028v-1e-3h4e-3z"/>
		<path d="m53.591 23.385c7.75 5 20.253 10.919 36.415 11.369l-0.038-19.769c-11.831-0.673-19.958-5.561-23.874-8.547-3.272 3.37-8.057 8.909-12.899 16.689 0.133 0.088 0.262 0.174 0.396 0.258z"/>
		<path d="m36.615 67.221h53.452l-0.011-5.296c-20.672-0.388-37.541-6.45-49.063-12.262-1.719 5.322-3.23 11.177-4.378 17.558z"/>
		<path d="m134.3 163.1c4.188 3.42 6.881 6.411 8.004 7.749 7.18-4.85 13.644-10.67 19.214-17.271-1.841-1.7-7.716-6.802-17.146-11.9-3.081 8.67-6.677 15.805-10.072 21.422z"/>
		<path d="m51.095 26.647c-2.963 5.179-6.055 11.545-8.77 19.104 11.082 5.662 27.513 11.688 47.724 12.083l-0.038-18.982c-17.23-0.452-30.538-6.775-38.779-12.113-0.045-0.032-0.088-0.062-0.137-0.092z"/>
		<path d="m0.957 110.16c0.348 1.045 0.821 1.877 1.422 2.496 0.599 0.619 1.335 1.054 2.205 1.306 0.871 0.251 1.866 0.376 2.988 0.376 1.004 0 1.925-0.231 2.756-0.694 0.83-0.465 1.595-1.046 2.291-1.74 0.659 0.695 1.393 1.275 2.205 1.74 0.813 0.463 1.761 0.694 2.844 0.694 2.204 0 3.915-0.567 5.134-1.71 1.218-1.142 1.944-3.259 2.177-6.354 0.039-0.58 0.067-1.285 0.086-2.118 0.02-0.831 0.039-1.712 0.059-2.64 0.019-0.93 0.028-1.85 0.028-2.756v-2.467-22.512h-4.932v21.933 2.494c0 0.969-0.01 1.955-0.029 2.958-0.02 1.008-0.048 1.973-0.087 2.901s-0.078 1.703-0.116 2.319c-0.231 2.594-1.005 3.89-2.319 3.89-1.433 0-2.227-1.296-2.38-3.89-0.079-0.694-0.126-1.622-0.146-2.783-0.019-1.161-0.039-2.33-0.057-3.511-0.021-1.179-0.029-2.292-0.029-3.336s0-1.799 0-2.264v-20.711h-4.932v20.075c0 1.778-0.021 3.442-0.059 4.988-0.04 1.355-0.067 2.728-0.087 4.12-0.019 1.395-0.068 2.534-0.144 3.422-0.155 2.594-0.908 3.89-2.263 3.89-1.315 0-2.089-1.296-2.321-3.89-0.077-0.889-0.125-2.029-0.145-3.422s-0.048-2.765-0.088-4.12c-0.039-1.546-0.056-3.21-0.056-4.988v-20.075h-4.932v20.075c-0.04 1.739-0.04 3.385 0 4.932 0 1.354 0.019 2.718 0.058 4.09 0.038 1.374 0.096 2.505 0.173 3.396 0.118 1.547 0.35 2.843 0.696 3.886z"/>
		<path d="m30.201 98.207c0 1.2 0.019 2.438 0.057 3.714 0.039 1.276 0.096 2.343 0.174 3.191 0.194 3.172 0.9 5.502 2.119 6.991 1.217 1.49 2.95 2.232 5.191 2.232 2.205 0 3.917-0.744 5.137-2.232 1.217-1.489 1.921-3.819 2.116-6.991 0.079-0.852 0.115-1.916 0.115-3.191 0-1.276 0.02-2.514 0.059-3.714 0-1.393 0.02-2.844 0.058-4.352-0.038-1.508-0.058-2.959-0.058-4.352-0.039-1.199-0.059-2.438-0.059-3.714s-0.038-2.358-0.115-3.25c-0.194-3.172-0.898-5.493-2.116-6.963-1.22-1.47-2.932-2.204-5.137-2.204-2.243 0-3.974 0.735-5.191 2.204-1.219 1.469-1.925 3.792-2.119 6.963-0.078 0.892-0.136 1.974-0.174 3.25-0.039 1.276-0.057 2.515-0.057 3.714-0.04 1.393-0.04 2.844 0 4.352-0.04 1.509-0.04 2.958 0 4.352zm4.933-9.167c0.038-1.314 0.066-2.669 0.086-4.062 0.02-1.395 0.067-2.533 0.146-3.424 0.076-1.354 0.319-2.407 0.726-3.162 0.407-0.754 0.957-1.13 1.654-1.13 0.658 0 1.199 0.376 1.625 1.13 0.423 0.754 0.676 1.81 0.754 3.162 0.039 0.657 0.076 1.441 0.115 2.349 0.039 0.91 0.068 1.849 0.087 2.813 0.02 0.968 0.029 1.927 0.029 2.872v2.467 3.654 2.464c0 0.95-8e-3 1.906-0.029 2.874-0.02 0.968-0.049 1.915-0.087 2.844-0.039 0.929-0.078 1.701-0.115 2.32-0.079 1.354-0.33 2.397-0.754 3.132-0.426 0.736-0.967 1.104-1.625 1.104-0.698 0-1.247-0.367-1.654-1.104-0.405-0.733-0.649-1.776-0.726-3.132-0.079-0.89-0.126-2.021-0.146-3.396-0.019-1.373-0.048-2.735-0.086-4.09-0.039-1.546-0.058-3.172-0.058-4.874-1e-3 -1.659 0.019-3.265 0.058-4.811z"/>
		<path d="m65.711 113.87v-11.721c0-0.426-0.01-1.063-0.029-1.917-0.019-0.849-0.086-1.719-0.203-2.609-0.116-1.083-0.494-2.061-1.131-2.931-0.639-0.871-1.268-1.516-1.886-1.944 0.618-0.425 1.19-0.966 1.712-1.624s0.841-1.546 0.957-2.669c0.076-0.656 0.115-1.188 0.115-1.595 0-0.405 0.019-0.762 0.059-1.073 0-0.31 0.018-0.582 0.057-0.813-0.039-0.426-0.057-0.891-0.057-1.395-0.04-0.425-0.059-0.909-0.059-1.45 0-0.542-0.039-1.102-0.115-1.683-0.116-1.122-0.397-2.097-0.841-2.93-0.445-0.831-1.006-1.508-1.683-2.031-0.677-0.522-1.433-0.918-2.262-1.19-0.833-0.27-1.675-0.425-2.526-0.465-0.271 0-0.579-0.018-0.928-0.058-0.309 0-0.686-9e-3 -1.132-0.028-0.444-0.019-0.996-0.028-1.653-0.028-1.121 0-1.981 0.01-2.58 0.028-0.601 0.021-0.998 0.05-1.19 0.086v40.036h4.932v-18.8h2.612c0.658 0 1.236 0.244 1.741 0.726 0.501 0.485 0.811 1.229 0.928 2.235 0.076 0.657 0.115 1.276 0.115 1.854 0 0.581 0.019 1.104 0.056 1.568 0 0.541 0.02 1.043 0.059 1.506v10.908h4.932v7e-3zm-5.28-28.954c0 0.194-0.01 0.531-0.03 1.016-0.019 0.483-0.086 1.17-0.203 2.059-0.231 1.974-1.024 2.96-2.38 2.96h-2.551v-12.94h1.507c1.121 0 1.944 0.223 2.467 0.668 0.521 0.444 0.841 1.188 0.956 2.232 0.117 1.24 0.184 2.157 0.203 2.758 0.02 0.6 0.03 0.938 0.03 1.015l1e-3 0.232z"/>
		<polygon points="70.817 73.837 70.817 113.87 83.291 113.87 83.291 109.81 75.747 109.81 75.747 73.837"/>
		<path d="m86.366 73.837v40.036c0.233 0.037 0.687 0.076 1.364 0.114 0.677 0.039 1.597 0.059 2.756 0.059h1.654c0.443 0 0.82-0.02 1.131-0.059 0.348 0 0.658-0.02 0.93-0.058 0.85-0.039 1.69-0.241 2.523-0.609 0.831-0.367 1.585-0.929 2.263-1.682 0.677-0.755 1.247-1.691 1.712-2.815 0.463-1.12 0.754-2.475 0.87-4.061 0.038-0.503 0.067-1.121 0.087-1.856 0.02-0.734 0.038-1.508 0.057-2.321 0.021-0.813 0.031-1.613 0.031-2.408v-2.176-4.293-2.146c0-0.813-0.012-1.625-0.031-2.437-0.019-0.813-0.037-1.596-0.057-2.351-0.02-0.754-0.051-1.383-0.087-1.886-0.116-1.547-0.407-2.892-0.87-4.032-0.465-1.143-1.035-2.08-1.712-2.814-0.677-0.733-1.432-1.286-2.263-1.653-0.833-0.366-1.674-0.569-2.523-0.608-0.271 0-0.582-0.021-0.93-0.058-0.311 0-0.688-0.01-1.131-0.028-0.446-0.021-0.997-0.029-1.654-0.029-1.16 0-2.079 0.02-2.756 0.059-0.678 0.035-1.132 0.076-1.364 0.112zm4.932 4.178h1.974c1.083 0 1.865 0.329 2.351 0.985 0.482 0.659 0.782 1.665 0.897 3.019 0.078 0.891 0.127 1.992 0.147 3.307 0.019 1.316 0.047 2.611 0.084 3.888 0.039 1.509 0.06 3.057 0.06 4.642 0 1.625-0.021 3.189-0.06 4.701-0.037 1.275-0.066 2.591-0.084 3.945-0.02 1.354-0.068 2.456-0.147 3.308-0.115 1.354-0.426 2.358-0.927 3.017-0.504 0.658-1.277 0.986-2.322 0.986h-1.973v-31.798z"/>
		<path d="m106.44 73.78v20.075c-0.039 1.739-0.039 3.385 0 4.932 0 1.354 0.02 2.718 0.061 4.09 0.037 1.374 0.096 2.505 0.172 3.396 0.115 1.547 0.349 2.844 0.695 3.887 0.351 1.045 0.821 1.877 1.424 2.496 0.598 0.619 1.334 1.054 2.203 1.306 0.871 0.251 1.865 0.376 2.988 0.376 1.006 0 1.924-0.231 2.756-0.694 0.833-0.465 1.596-1.046 2.292-1.74 0.658 0.695 1.394 1.275 2.205 1.74 0.812 0.463 1.761 0.694 2.843 0.694 2.205 0 3.918-0.567 5.137-1.71 1.219-1.142 1.943-3.259 2.177-6.354 0.038-0.58 0.067-1.285 0.088-2.118 0.019-0.831 0.037-1.712 0.058-2.64 0.019-0.93 0.028-1.85 0.028-2.756v-2.467-22.513h-4.931v21.933 2.494c0 0.969-0.01 1.955-0.03 2.958-0.019 1.008-0.049 1.973-0.086 2.901-0.039 0.929-0.078 1.703-0.117 2.319-0.229 2.594-1.005 3.89-2.319 3.89-1.432 0-2.227-1.296-2.379-3.89-0.078-0.694-0.125-1.622-0.146-2.783s-0.039-2.33-0.058-3.511c-0.021-1.179-0.028-2.292-0.028-3.336s0-1.799 0-2.264v-20.711h-4.933v20.075c0 1.778-0.021 3.442-0.06 4.988-0.038 1.355-0.067 2.728-0.086 4.12-0.021 1.395-0.067 2.534-0.146 3.422-0.155 2.594-0.91 3.89-2.264 3.89-1.316 0-2.088-1.296-2.32-3.89-0.078-0.889-0.125-2.029-0.146-3.422-0.019-1.393-0.048-2.765-0.087-4.12-0.038-1.546-0.057-3.21-0.057-4.988v-20.075h-4.934z"/>
		<rect x="136.79" y="73.837" width="4.933" height="40.036"/>
		<path d="m162.14 82.89c-0.115-1.547-0.404-2.892-0.869-4.032-0.465-1.143-1.036-2.08-1.712-2.815-0.679-0.732-1.433-1.285-2.263-1.652-0.832-0.367-1.674-0.57-2.524-0.609-0.271 0-0.579-0.019-0.928-0.058-0.31 0-0.687-0.01-1.132-0.028-0.445-0.021-0.995-0.029-1.653-0.029-1.159 0-2.079 0.02-2.755 0.059-0.678 0.04-1.133 0.078-1.364 0.115v40.035c0.231 0.039 0.687 0.078 1.364 0.116 0.676 0.037 1.596 0.057 2.755 0.057h1.653s0.82-0.02 1.132-0.057c0.349 0 0.657-0.02 0.928-0.059 0.853-0.039 1.692-0.241 2.524-0.609 0.83-0.366 1.584-0.929 2.263-1.682 0.676-0.756 1.247-1.692 1.712-2.814 0.465-1.121 0.754-2.475 0.869-4.062 0.038-0.502 0.068-1.122 0.088-1.856s0.038-1.508 0.057-2.32c0.021-0.813 0.03-1.613 0.03-2.408v-2.177-4.295-2.146c0-0.813-0.011-1.624-0.03-2.437s-0.037-1.596-0.057-2.351c-0.02-0.756-0.051-1.384-0.088-1.886zm-4.816 15.665c-0.037 1.275-0.066 2.592-0.086 3.945-0.021 1.355-0.068 2.457-0.146 3.31-0.116 1.354-0.427 2.357-0.929 3.015-0.504 0.66-1.277 0.986-2.321 0.986h-1.974v-31.796h1.974c1.083 0 1.866 0.329 2.35 0.985 0.483 0.659 0.783 1.665 0.899 3.019 0.076 0.891 0.123 1.992 0.146 3.307 0.019 1.316 0.048 2.611 0.087 3.888 0.038 1.509 0.059 3.057 0.059 4.642 0 1.624-0.02 3.19-0.059 4.699z"/>
		<polygon points="179.55 78.015 179.55 73.837 167.08 73.837 167.08 113.87 179.55 113.87 179.55 109.81 172.01 109.81 172.01 94.842 178.91 94.842 178.91 90.78 172.01 90.78 172.01 78.015"/>
	</g>

</svg>
