<?xml version="1.0" encoding="UTF-8"?>
<svg width="180px" height="180px" enable-background="new 0 0 180 180" version="1.1" viewBox="0 0 180 180" xml:space="preserve" xmlns="http://www.w3.org/2000/svg">

	<rect width="180" height="180" ry="90" fill="#fbcc34"/>
	
		<path d="m44.823 46.059c2.35 0 5.276 2.153 11.141 2.153 8.041 0 10.507-9.698 10.507-9.698s-1.326 1.707-4.223 1.707c-3.95 0-6.518-2.157-10.776-2.157-11.217 0-11.943 12.395-11.943 12.395s1.228-4.4 5.294-4.4zm43.499 38.452s0-3.502 7.733-3.502v11.313c0 6.055-2.423 8.354-2.423 8.354s10.957-1.154 10.957-13.653v-33.786c0-12.619 3.484-14.618 3.484-14.618s-12.019 2.354-12.019 11.728l-0.089 21.861h-1.524c-10.467 0-6.119 12.303-6.119 12.303zm46.496 21.584c-5.921 0-10.626-6.199-20.936-6.199v-43.948c0-8.843 2.215-9.442 4.754-9.442 2.633 0 3.024 2.525 6.232 2.525 3.209 0 3.215-1.729 4.174-3.881 1.41-3.171 4.919-7.095 4.919-7.095s-4.603 1.942-8.026 1.942c-2.135 0-3.42-2.197-8.127-2.197-6.416 0-9.944 7.593-9.944 18.764v43.602c-6.052 0.69-11.925 2.633-16.501 5.482-2.136-1.628-8.592-5.777-18.965-5.777-1.166 0-2.175 0.048-3.312 0.181v-25.665c0.578-0.1 1.197-0.149 1.875-0.149 6.591 0 8.801 5.748 8.801 5.748l7.858-11.186s-2.355 0.676-3.012 0.676c-1.851 0-2.99-2.964-8.71-2.964-2.57 0-4.792 0.711-6.812 2.235v-13.831c0-6.099 3.083-8.41 5.02-8.41 4.945 0 5.943 4.582 10.33 4.582 4.063 0 3.953-2.51 5.348-5.16 1.835-3.486 6.416-7.309 6.416-7.309s-5.526 1.379-8.373 1.379c-1.575 0-5.896-1.934-8.336-1.934-10.066 0-15.986 7.008-15.986 18.5v43.487c-11.622 0-26.529 17.312-26.529 17.312s10.411-8.15 26.671-8.15c12.446 0 20.066 4.398 20.066 4.398s8.597-5.209 19.396-5.209c14.449 0 16.161 8.961 30.283 8.961 10.696 0 10.412-15.06 10.412-15.06s-3.98 3.792-8.986 3.792zm-85.323-14.705c0 11.197-3.14 14.052-3.14 14.052s11.67-4.066 11.67-18.614v-22.962c0-11.196 2.788-13.589 2.788-13.589s-11.228 1.319-11.228 11.401v7.258h-3.322c-3.503 0-6.363 1.854-6.363 6.56 0 4.698 3.4 6.644 3.4 6.644s-0.335-4.218 3.447-4.218h2.748v13.468z"/>
		
			<path d="m43.038 141.91h-6.355v-13.196l-0.487-1.078h7.42l-0.578 1.941h-4.298v3.979h4.875l-0.578 1.941h-4.297v4.471h4.875l-0.577 1.942z"/>
			<path d="m54.359 141.91-1.356-3.921h-4.632l-0.975 2.843 0.319 1.078h-2.423l4.542-13.195-0.366-1.078h2.225l4.907 14.273h-2.241zm-3.657-10.666-1.661 4.824h3.321l-1.66-4.824z"/>
			<path d="m65.605 137.5c0 0.731-0.141 1.402-0.419 2.01-0.28 0.607-0.663 1.088-1.15 1.44l-0.914 0.667c-0.54 0.393-1.123 0.588-1.753 0.588-0.558 0-1.11-0.099-1.653-0.294s-1.044-0.51-1.5-0.94l0.702-2.314c0.496 0.471 1.004 0.863 1.523 1.177 0.519 0.313 1.096 0.471 1.737 0.471 0.234 0 0.462-0.053 0.686-0.157 0.417-0.496 0.625-1.104 0.625-1.823 0-0.652-0.127-1.159-0.381-1.52-0.254-0.359-0.569-0.644-0.945-0.854-0.375-0.209-0.786-0.388-1.234-0.538-0.447-0.15-0.858-0.356-1.234-0.618-0.375-0.261-0.691-0.613-0.945-1.059-0.254-0.444-0.381-1.071-0.381-1.883 0-0.692 0.127-1.329 0.381-1.91 0.254-0.582 0.615-1.043 1.083-1.383 0.151-0.118 0.307-0.232 0.465-0.344 0.157-0.11 0.312-0.226 0.465-0.343 0.487-0.354 1.02-0.529 1.6-0.529 0.519 0 1.029 0.102 1.532 0.304 0.503 0.203 0.968 0.494 1.394 0.872l-0.686 2.295c-0.427-0.418-0.905-0.781-1.433-1.089-0.529-0.307-1.067-0.461-1.615-0.461-0.172 0-0.355 0.046-0.548 0.138-0.172 0.209-0.308 0.457-0.404 0.744-0.098 0.288-0.145 0.583-0.145 0.883 0 0.628 0.127 1.104 0.381 1.432 0.252 0.327 0.571 0.592 0.952 0.794 0.381 0.203 0.794 0.382 1.241 0.539 0.448 0.158 0.862 0.373 1.243 0.646 0.379 0.275 0.698 0.647 0.952 1.118 0.251 0.47 0.378 1.117 0.378 1.941z"/>
			<path d="m75.448 129.59h-2.5v12.313h-2.058v-12.313h-3.077l0.58-1.96h7.635l-0.58 1.96z"/>
			<path d="m89.497 141.91h-5.669v-13.196l-0.487-1.078h2.545v12.313h4.206l-0.595 1.961z"/>
			<path d="m103.71 134.42c0 1.307-0.238 2.493-0.715 3.558-0.478 1.065-1.15 1.933-2.013 2.599-0.151 0.117-0.305 0.234-0.456 0.354-0.153 0.117-0.305 0.229-0.457 0.333-0.448 0.326-0.908 0.565-1.379 0.716-0.473 0.149-0.963 0.225-1.471 0.225-0.771 0-1.498-0.18-2.179-0.539-0.681-0.358-1.272-0.858-1.776-1.499-0.501-0.641-0.898-1.39-1.188-2.245-0.289-0.856-0.435-1.788-0.435-2.794 0-1.295 0.239-2.474 0.718-3.539 0.477-1.065 1.146-1.932 2.01-2.599 0.153-0.117 0.305-0.234 0.458-0.353 0.151-0.118 0.305-0.229 0.456-0.333 0.874-0.641 1.824-0.961 2.849-0.961 0.772 0 1.499 0.18 2.18 0.539s1.272 0.856 1.775 1.489c0.503 0.635 0.899 1.383 1.188 2.246 0.291 0.861 0.435 1.796 0.435 2.803zm-2.102 0.706c0-0.798-0.108-1.553-0.327-2.266-0.219-0.712-0.524-1.333-0.914-1.862-0.392-0.529-0.854-0.95-1.387-1.265-0.533-0.313-1.119-0.471-1.76-0.471-0.294 0-0.585 0.026-0.869 0.079-0.283 0.053-0.559 0.183-0.822 0.392-0.305 0.235-0.57 0.529-0.793 0.882-0.223 0.354-0.408 0.74-0.555 1.158-0.148 0.418-0.258 0.853-0.328 1.303-0.07 0.451-0.107 0.899-0.107 1.344 0 0.797 0.109 1.552 0.328 2.264 0.219 0.713 0.523 1.334 0.915 1.863 0.39 0.529 0.853 0.951 1.386 1.265 0.534 0.313 1.119 0.471 1.759 0.471 0.296 0 0.585-0.022 0.868-0.068 0.285-0.046 0.559-0.174 0.824-0.383 0.305-0.235 0.568-0.532 0.791-0.893 0.225-0.358 0.41-0.748 0.558-1.165 0.146-0.42 0.256-0.854 0.327-1.306 0.071-0.451 0.106-0.899 0.106-1.342z"/>
			<path d="m112.98 137.5c0 0.731-0.14 1.402-0.42 2.01-0.278 0.607-0.662 1.088-1.15 1.44l-0.914 0.667c-0.537 0.393-1.123 0.588-1.752 0.588-0.56 0-1.109-0.099-1.652-0.294-0.545-0.195-1.045-0.51-1.502-0.94l0.701-2.314c0.498 0.471 1.006 0.863 1.523 1.177 0.519 0.313 1.098 0.471 1.736 0.471 0.235 0 0.463-0.053 0.687-0.157 0.417-0.496 0.624-1.104 0.624-1.823 0-0.652-0.127-1.159-0.381-1.52-0.254-0.359-0.567-0.644-0.943-0.854-0.376-0.209-0.789-0.388-1.234-0.538-0.447-0.15-0.859-0.356-1.235-0.618-0.374-0.261-0.689-0.613-0.944-1.059-0.254-0.444-0.381-1.071-0.381-1.883 0-0.692 0.127-1.329 0.381-1.91 0.255-0.582 0.615-1.043 1.082-1.383 0.152-0.118 0.308-0.232 0.465-0.344 0.158-0.11 0.313-0.226 0.465-0.343 0.486-0.354 1.021-0.529 1.6-0.529 0.519 0 1.028 0.102 1.531 0.304 0.504 0.203 0.969 0.494 1.395 0.872l-0.686 2.295c-0.427-0.418-0.904-0.781-1.434-1.089-0.527-0.307-1.064-0.461-1.613-0.461-0.174 0-0.357 0.046-0.55 0.138-0.173 0.209-0.306 0.457-0.403 0.744-0.096 0.288-0.145 0.583-0.145 0.883 0 0.628 0.127 1.104 0.381 1.432s0.57 0.592 0.952 0.794c0.382 0.203 0.796 0.382 1.243 0.539 0.445 0.158 0.859 0.373 1.24 0.646 0.382 0.275 0.698 0.647 0.953 1.118 0.253 0.47 0.38 1.117 0.38 1.941z"/>
		
		
			<path d="m127.83 136.22h-4.037v5.901h-2.058v-13.194l-0.487-1.079h7.161l-0.579 1.941h-4.037v4.47h4.616l-0.579 1.961z"/>
			<path d="m140.92 142.12v-10.077l-3.308 5.803h-0.976l-3.307-5.784v10.059h-1.629v-13.02l-0.686-1.254h2.514l3.855 6.765 3.855-6.765h1.736v14.273h-2.054z"/>
		
	

</svg>
