<?xml version="1.0" encoding="UTF-8"?>
<svg width="210.68px" height="152.36px" enable-background="new 0 0 210.682 152.365" version="1.1" viewBox="0 0 210.68 152.36" xml:space="preserve" xmlns="http://www.w3.org/2000/svg">
<g fill="#fff">
	<polygon points="113.78 84.228 118.82 102.14 131.55 102.45 133.17 52.927 120.9 52.638 120.41 67.675 115.58 52.509 102.54 52.202 100.92 101.72 113.19 102.01"/>
	<polygon points="55.567 69.308 50.605 70.511 50.605 54.275 41.649 53.871 41.649 104.38 50.605 102.22 50.605 80.987 55.567 79.785 55.567 101.02 64.549 98.836 64.549 56 55.567 54.773"/>
	<path d="m78.96 59.979-5.544 34.447h6.422l0.837-5.682h6.375l0.832 5.682h6.429l-5.497-34.447h-9.854zm5.624 22.877h-3.025l2.156-17.972h0.292l1.368 11.365 0.792 6.606h-1.583z"/>
	<path d="m172.45 56.499c-4.789-0.379-7.216 3.084-7.506 6.682l-1.239 15.595c-0.265 3.339 1.274 7.377 6.481 7.791 4.958 0.398 7.066-3.348 7.273-5.957l0.318-4.032-6.078-0.482-0.272 3.428c-0.115 1.453-0.647 1.414-0.962 1.387-0.711-0.057-0.768-0.518-0.736-0.957l0.519-6.467 7.732 0.617 0.794-10.041c0.338-4.2-2.207-7.235-6.324-7.564zm-0.128 11.82-1.656-0.135 0.402-5.039c0.019-0.209 0.221-1.053 0.847-1.004 0.242 0.023 0.89 0.072 0.807 1.137l-0.4 5.041z"/>
	<polygon points="145.28 77.16 145.37 77.162 149.18 93.633 155.48 93.949 157.03 62.597 151.21 62.308 150.52 76.193 150.44 76.193 146.72 62.089 140.21 61.769 138.66 93.112 144.48 93.403"/>
	<polygon points="196.27 86.256 195.44 53.635 187.25 55.598 188.25 94.394 206.61 89.992 206.45 83.817"/></g><g fill="#CE2027">
	<path d="m93.353 103.44h-18.985l-23.962 48.923 32.865-1.787 15.863-35.72c0.618-1.334 1.146-2.498 1.576-3.493l-7.148-0.523-0.209-7.4z"/>
	<path d="m138.39 99.071 0.049 11.003-21.336-1.548c0.274 0.438 0.564 0.896 0.869 1.377l20.422 34.121 32.861-1.787-27.411-42.52-5.454-0.646z"/>
	<path d="m138.18 44.463 22.892-44.463-33.054 1.799-14.089 29.939c-0.914 1.818-1.621 3.309-2.123 4.471-0.506 1.166-0.986 2.232-1.438 3.207-0.309 0.656-0.615 1.338-0.916 2.023l28.72 1.055 8e-3 1.969z"/>
	<path d="m93.852 49.161-0.183-6.354 7.323 0.271c-0.271-0.469-0.544-0.941-0.818-1.428-0.84-1.471-1.61-2.85-2.312-4.137-0.701-1.291-1.261-2.236-1.672-2.846l-18.209-28.369-32.487 1.768 30.274 45.316 18.084-4.221z"/>
	</g><path d="m27.712 74.49v-0.186c0-1.711-0.513-2.982-1.535-3.814-1.02-0.83-2.148-1.244-3.374-1.244-1.599 0-3.157 0.586-4.674 1.76-1.514 1.176-2.732 2.969-3.652 5.377-0.917 2.414-1.375 4.761-1.375 7.041 0 1.744 0.466 3.205 1.411 4.375 0.938 1.181 2.314 1.763 4.122 1.763 1.66 0 3.058-0.527 4.197-1.58 1.145-1.056 2.149-2.674 3.01-4.861l10.162 1.574c-1.056 3.631-3.103 6.678-6.124 9.158-3.03 2.473-6.967 3.707-11.821 3.707-5.064 0-8.933-1.347-11.614-4.045-2.67-2.701-4.007-6.293-4.007-10.779 0-3.435 0.794-6.885 2.383-10.349 1.589-3.465 3.908-6.188 6.958-8.172 3.053-1.98 6.707-2.971 10.973-2.971 4.425 0 7.92 1.109 10.481 3.332 1.995 1.727 3.333 3.893 4.02 6.484l-0.519-15.074-34.28 3.813-2.454 46.531 38.101-10.343-0.77-22.581-9.619 1.084z"/>
	<path d="m66.96 52.826-28.962-4.41 2.645 59.494 26.853-1.39-0.536-53.694zm-2.411 46.01-8.982 2.179v-21.23l-4.962 1.202v21.228l-8.956 2.17v-50.514l8.956 0.404v16.236l4.962-1.203v-14.535l8.982 1.227v42.836z"/>
	<path d="m72.664 58.246-1.769 38.571h25.835l-3.02-43.487-21.046 4.916zm15.218 36.18-0.832-5.682h-6.375l-0.837 5.682h-6.422l5.544-34.447h9.854l5.497 34.447h-6.429z"/>
	<polygon points="84.007 64.885 83.715 64.885 81.559 82.856 84.584 82.856 86.167 82.856 85.375 76.25"/>
	<path d="m99.128 104.38 36.425 2.646-0.247-58.991-37.816-1.384 1.638 57.729zm3.41-52.179 13.041 0.307 4.829 15.166 0.489-15.037 12.273 0.289-1.617 49.524-12.733-0.31-5.046-17.914-0.581 17.781-12.271-0.291 1.616-49.515z"/>
	<path d="m136.82 96.062 20.291 2.39 2.896-40.961-22.183 0.883-1.004 37.688zm3.388-34.293 6.508 0.32 3.721 14.104h0.086l0.686-13.885 5.821 0.289-1.548 31.352-6.305-0.316-3.81-16.471-0.085-2e-3 -0.805 16.243-5.822-0.291 1.553-31.343z"/>
	<path d="m171.91 62.141c-0.626-0.049-0.828 0.795-0.847 1.004l-0.402 5.039 1.656 0.135 0.399-5.041c0.084-1.065-0.563-1.114-0.806-1.137z"/>
	<path d="m164.79 50.705-5.291 41.094 21.93-4.661-0.506-38.195-16.133 1.762zm13.98 13.358-0.794 10.041-7.732-0.617-0.519 6.467c-0.031 0.439 0.025 0.9 0.736 0.957 0.314 0.027 0.847 0.066 0.962-1.387l0.272-3.428 6.078 0.482-0.318 4.032c-0.207 2.609-2.315 6.355-7.273 5.957-5.207-0.414-6.746-4.452-6.481-7.791l1.239-15.595c0.29-3.598 2.717-7.061 7.506-6.682 4.117 0.329 6.662 3.364 6.324 7.564z"/>
	<path d="m185.22 52.449-2.771 44.618 28.233-2.899-3.407-40.713-22.055-1.006zm3.035 41.945-1.002-38.795 8.19-1.963 0.831 32.621 10.174-2.438 0.165 6.175-18.358 4.4z"/>

<path d="m37.252 71.06c-0.687-2.591-2.024-4.757-4.02-6.483-2.562-2.224-6.057-3.332-10.481-3.332-4.266 0-7.92 0.991-10.973 2.971-3.05 1.983-5.369 4.707-6.958 8.172-1.589 3.464-2.383 6.914-2.383 10.349 0 4.486 1.337 8.078 4.007 10.779 2.682 2.698 6.55 4.045 11.614 4.045 4.854 0 8.791-1.234 11.821-3.707 3.021-2.48 5.068-5.527 6.124-9.158l-10.161-1.576c-0.86 2.188-1.865 3.806-3.01 4.861-1.14 1.053-2.537 1.58-4.197 1.58-1.808 0-3.184-0.582-4.122-1.763-0.945-1.17-1.411-2.631-1.411-4.375 0-2.28 0.458-4.627 1.375-7.041 0.92-2.407 2.139-4.2 3.652-5.377 1.517-1.174 3.075-1.76 4.674-1.76 1.226 0 2.354 0.414 3.374 1.244 1.022 0.832 1.535 2.103 1.535 3.813v0.187l9.619-1.084-0.079-2.345z" fill="#fff"/>
</svg>
