<?xml version="1.0" encoding="UTF-8"?>
<!-- Generator: Adobe Illustrator 16.0.0, SVG Export Plug-In . SVG Version: 6.00 Build 0)  -->
<svg width="171.61px" height="159.29px" enable-background="new 0 0 171.608 159.293" version="1.1" viewBox="0 0 171.61 159.29" xml:space="preserve" xmlns="http://www.w3.org/2000/svg">
<path d="m67.332 83.129v59.978h8.1813v-27.664l23.515 11.469v-9.0634l-23.515-11.49v-9.7151l24.535 12.306v-9.3677l-24.535-12.343zm-49.895 59.978h43.283v-40.254l-43.283-21.034zm8.1805-101.35 20.45 9.7661v-9.0649l-20.45-9.7669v-8.3255h20.45v-8.1805h-28.631v58.954l8.1805 3.9743zm35.102-25.572h-8.1789v53.262l47.508 23.828v-9.3701l-39.329-19.553zm60.73 0v43.42l32.72 16.413v-59.833zm24.539 46.58-16.359-8.2068v-30.193h16.359zm-31.147-46.58h-8.1813v53.262l47.51 23.828v-9.3701l-39.328-19.553zm11.653 81.018-19.834-9.9924v55.896h8.3861v-42.369l11.447 5.3416v37.027h8.1797v-42.097l11.315 5.3432v36.754h8.1813v-41.939l-27.675-13.682zm-34.626-54.817-16.356-8.0044v-18.197h-8.1813v22.974l24.537 12.304v11.403l-24.537-11.992v9.0665l32.717 15.897v-59.652h-8.1789z" fill="#aa9a69" stroke-width=".79678"/>
</svg>
