<?xml version="1.0" encoding="UTF-8"?>
<svg width="277.32px" height="277.32px" enable-background="new 0 0 277.322 277.32" version="1.1" viewBox="0 0 277.32 277.32" xml:space="preserve" xmlns="http://www.w3.org/2000/svg">

	
		<circle cx="138.66" cy="138.66" r="138.66" fill="#020202"/>
		<linearGradient id="SVGID_1_" x1="165.61" x2="165.61" y1="218.03" y2="41.331" gradientUnits="userSpaceOnUse">
			<stop stop-color="#FFE7A3" offset="0"/>
			<stop stop-color="#FFCA05" offset=".5939"/>
			<stop stop-color="#FAAC18" offset="1"/>
		</linearGradient>
		<path d="m230.05 124.75c-0.664-1.99-22.801 1.21-31.611 2.285 0.23-0.697 0.433-1.309 0.591-1.765 2.891-8.407-4.601-7.229-8.542-7.751-3.944-0.526-4.343 8.805-4.864 9.857-0.528 1.049-25.763 3.152-42.853 4.993-17.09 1.84-34.437 7.886-39.958 15.772-5.521 7.891 3.154 10.778 5.783 9.727 2.628-1.051-1.315-1.051 5.522-6.308 6.834-5.26 67.297-11.039 67.297-11.039s-6.311 18.398-9.987 34.171c-3.681 15.773 2.103 34.966 9.33 34.177 5.113-0.556 13.933-15.774 16.825-22.608 2.031-4.805 1.051-16.955-0.264-14.327-1.311 2.629-10.645 18.795-14.063 16.954-2.554-1.376 5.896-31.501 11.541-50.163 7.502-0.575 30.469-2.005 33.146-2.675 3.158-0.79 2.107-11.3 2.107-11.3z" fill="url(#SVGID_1_)"/>
		
			<linearGradient id="SVGID_2_" x1="211.7" x2="211.7" y1="218.03" y2="41.328" gradientUnits="userSpaceOnUse">
				<stop stop-color="#FFE7A3" offset="0"/>
				<stop stop-color="#FFCA05" offset=".5939"/>
				<stop stop-color="#FAAC18" offset="1"/>
			</linearGradient>
			<path d="m220.06 146.04s-10.251-2.106-13.404 3.941c-3.155 6.051-16.563 29.443-9.466 45.744 7.098 16.3 17.072 4.52 19.588 0.395 3.287-5.392 10.909-24.053 11.434-35.36 0.525-11.301-2.627-14.196-8.152-14.72zm-12.352 43.899c-3.945-5.258 3.941-25.497 3.941-25.497-1.837 5.78 7.537 2.633 7.276 4.733-0.263 2.101-7.276 26.024-11.217 20.764z" fill="url(#SVGID_2_)"/>
		
		
			<linearGradient id="SVGID_3_" x1="124.61" x2="124.61" y1="218.03" y2="41.331" gradientUnits="userSpaceOnUse">
				<stop stop-color="#FFE7A3" offset="0"/>
				<stop stop-color="#FFCA05" offset=".5939"/>
				<stop stop-color="#FAAC18" offset="1"/>
			</linearGradient>
			<path d="m169.85 183.11c-1.84 2.63-11.109 16.368-12.357 12.752-0.688-1.986 12.618-33.783 11.83-36.674-0.789-2.889-6.309-9.73-11.041-7.888-4.733 1.838-13.344 11.503-15.71 14.656 0.921-5.456 3.222-10.581 2.169-10.842-1.051-0.263-10.907-0.524-12.75 2.895-1.84 3.415-9.201 23.132-13.67 30.489-4.466 7.363-10.251 11.57-7.098 5.261 3.153-6.305 12.621-30.104 12.621-30.104 0-2.368-7.625-5.787-10.78-3.684-3.151 2.106-4.732 4.607-4.994 5.923 0 0-4.208-6.838-10.253-3.152-6.048 3.673-26.241 24.063-23.134 44.423 2.629 17.218 11.51 10.443 13.935 8.019 3.156-3.153 5.255-7.101 6.043-7.101 0 0 1.579 7.231 4.732 9.334 3.156 2.104 5.798 0.969 13.407-7.887 7.232-8.409 10.649-12.488 10.649-12.488s-4.076 19.06-1.71 20.113c2.367 1.053 9.729 2.627 10.252 0 0.525-2.628 6.834-36.677 15.248-41.673 8.415-4.998 2.236 9.075 0.527 14.068-1.678 4.899-4.142 19.128 1.313 22.084 9.463 5.126 26.288-22.604 25.764-24.449-0.526-1.838-3.153-6.705-4.993-4.075zm-83.864 19.327c-4.208-6.834 10.911-26.027 13.8-28.659 2.895-2.626 5.917 1.581 5.917 1.581-0.528 3.942-15.512 33.911-19.717 27.078z" fill="url(#SVGID_3_)"/>
		
		<linearGradient id="SVGID_4_" x1="131.71" x2="131.71" y1="218.03" y2="41.329" gradientUnits="userSpaceOnUse">
			<stop stop-color="#FFE7A3" offset="0"/>
			<stop stop-color="#FFCA05" offset=".5939"/>
			<stop stop-color="#FAAC18" offset="1"/>
		</linearGradient>
		<path d="m178.44 67.363c-4.176-6.496-14.178-4.045-16.914-2.48 0 0-9.318 7.574-11.516 21.285-0.944 5.887 0.522 12.771 3.141 16.576-1.416 1.467-3.973 2.701-5.236 2.096-5.051-2.434-6.753-3.153-11.516-4.887 5.773-15.95 14.916-44.475 19.892-53.046 6.413-11.042 13.05-13.093 6.995-0.271-1.443 3.057-5.699 12.823-5.699 12.823 0.391 1.175 8.446 0.784 9.617 0 1.173-0.782 7.902-14.83 9.328-23.024 1.971-11.324-14.03-15.256-24.287-3.335-10.436 12.124-19.043 35.491-27.146 62.201-0.149 0.497-0.314 0.964-0.473 1.446-8.556-2.215-16.06-2.803-21.704-1.25-4.708 1.297-26.875 8.384-16.997 25.79 9.869 17.391 37.09 0.749 44.077-9.237 0.815-1.163 1.582-1.846 2.093-3.14 7.25 4.505 14.953 6.426 16.705 6.472 4.217 0.112 9.438-4.045 11.161-7.124 2.147 0.578 5.993-0.327 8.198-2.724 8.31-9.022 15.03-30.785 10.281-38.171zm-84.309 47.868c-2.539-7.423 10.844-12.899 19.441-12.114 1.388 0.125 4.09 0.87 7.42 1.922-9.336 16.518-24.687 16.552-26.861 10.192zm69.459-19.536c-3.184 2.707-5.83 0.25-4.855-7.956 0.925-7.781 5.091-15.836 10.469-15.53 6.107 0.346-1.704 20.162-5.614 23.486z" fill="url(#SVGID_4_)"/>
		<linearGradient id="SVGID_5_" x1="234.94" x2="234.94" y1="218.03" y2="41.334" gradientUnits="userSpaceOnUse">
			<stop stop-color="#FFE7A3" offset="0"/>
			<stop stop-color="#FFCA05" offset=".5939"/>
			<stop stop-color="#FAAC18" offset="1"/>
		</linearGradient>
		<path d="m223.52 156.74s10.863-4.596 14.633-9.836c2.758-3.836 4.343-3.578 7.195-1.438 5.756 4.317 2.398 9.113-1.12 12.912-2.215 2.393-1.077 5.875-0.599 8.996 0.479 3.113 4.335 16.887 5.397 22.785 2.317 12.874-7.961 22.62-18.79 16.708-6.078-3.317-9.434-12.89-8.395-15.831 0.718-2.037 9.834-3.115 9.834-3.115s0.879 10.018 3.597 10.314c6.997 0.757 2.64-12.235-0.479-22.068-3.118-9.834-2.64-11.514-2.159-12.953-3.119 0.721-7.355 5.598-10.714 4.877-3.357-0.716 0.161-10.151 1.6-11.351z" fill="url(#SVGID_5_)"/>
		<linearGradient id="SVGID_6_" x1="190.7" x2="190.7" y1="218.03" y2="41.33" gradientUnits="userSpaceOnUse">
			<stop stop-color="#FFE7A3" offset="0"/>
			<stop stop-color="#FFCA05" offset=".5939"/>
			<stop stop-color="#FAAC18" offset="1"/>
		</linearGradient>
		<path d="m194.09 84.066s6.654 2.405 7.625 2.102c1.666-0.52 4.607-17.59 4.65-20.008 0.047-2.416-0.307-7.284-5.207-8.383-4.889-1.084-10.418-0.52-14.037 5.666-1.035 1.769-8.232 7.682-10.08 8.314-1.848 0.635-2.215 6.964-1.905 8.22 0.31 1.255 5.456-1.985 7.058-2.786-0.613 1.574 5.644 16.098 6.544 18.848 1.422 4.345 0.016 8.955-0.829 9.604-0.847 0.651-4.982 0.489-4.57-6.527 0.162-2.804 1.458-5.114 1.458-5.114l-5.754-2.971s-2.749 3.252-3.065 9.28c-0.321 6.099 1.425 11.158 7.123 13.311 2.729 1.03 11.17 0 13.496-6.048 3.546-9.224-4.619-23.204-5.119-32.107-0.365-6.482 1.432-7.648 2.908-8.141 1.396-0.47 3.17-0.76 2.27 4.939-0.519 3.292-2.566 11.801-2.566 11.801z" fill="url(#SVGID_6_)"/>
		<g fill="#F5F5F5">
			<path d="m48.563 71.336c0-2.332-0.687-4.172-2.042-5.459-1.342-1.283-3.382-1.931-6.065-1.931h-7.713v24.319h5.666v-9.335h1.818l3.475 9.335h6.175l-4.478-10.665c2.1-1.358 3.164-3.459 3.164-6.264zm-10.154-2.559h1.882c1.897 0 2.67 0.734 2.67 2.523 0 0.892-0.216 1.582-0.657 2.098-0.404 0.472-1.073 0.7-2.044 0.7h-1.852v-5.321z"/>
			<rect x="93.919" y="63.946" width="5.667" height="24.319"/>
			<path d="m84.747 65.379c-1.608-0.951-3.742-1.433-6.345-1.433h-6.015v24.319h6.292c2.765 0 4.955-0.593 6.507-1.77 1.522-1.155 2.668-2.69 3.402-4.559 0.713-1.816 1.076-3.898 1.076-6.198 0-2.2-0.406-4.242-1.206-6.063-0.83-1.888-2.08-3.333-3.711-4.296zm-0.962 10.738c0 2.283-0.437 4.111-1.3 5.432-0.788 1.203-2.054 1.789-3.872 1.789h-0.56v-14.461h0.56c2.22 0 5.172 0.753 5.172 7.24z"/>
			<path d="m119.64 66.881c-1.563-2.219-3.834-3.343-6.747-3.343-2.947 0-5.235 1.131-6.799 3.36-1.487 2.117-2.24 5.215-2.24 9.201 0 4.021 0.76 7.133 2.26 9.244 1.574 2.211 3.86 3.333 6.796 3.333 2.925 0 5.196-1.129 6.748-3.352 1.478-2.112 2.225-5.216 2.225-9.226s-0.754-7.114-2.243-9.217zm-9.094 3.328c0.463-1.158 1.179-1.675 2.315-1.675 1.138 0 1.856 0.514 2.323 1.673 0.564 1.399 0.853 3.383 0.853 5.898 0 2.562-0.288 4.556-0.858 5.93-0.47 1.136-1.169 1.647-2.267 1.647-1.191 0-1.924-0.524-2.376-1.702-0.556-1.43-0.835-3.403-0.835-5.875 0-2.504 0.283-4.488 0.845-5.896z"/>
			<path d="m57.57 63.946-7.041 24.319h5.604l1.388-5.598h5.02l1.401 5.598h5.797l-6.531-24.319h-5.638zm1.164 13.84 1.287-5.189 1.3 5.189h-2.587z"/>
		</g>
	
	
		<linearGradient id="SVGID_7_" x1="71.476" x2="71.476" y1="218.03" y2="41.329" gradientUnits="userSpaceOnUse">
			<stop stop-color="#FFE7A3" offset="0"/>
			<stop stop-color="#FFCA05" offset=".5939"/>
			<stop stop-color="#FAAC18" offset="1"/>
		</linearGradient>
		<path d="m95.816 117.52c-1.668-0.023-3.617 0.327-5.887 1.185-11.828 4.471-32.436 23.09-39.953 43.641-4.212 11.503-0.527 20.505 4.203 20.505 4.732 0 10.589-3.323 11.964-1.706 2.231 2.628-8.537 37.01-11.44 36.935-4.994-0.131-5.784-11.57-2.628-15.771 3.154-4.207 5.652-4.999 4.469-6.31-1.125-1.252-5.519-8.939-9.727-3.684s-12.817 14.524-5.979 26.879c6.834 12.355 15.445 11.238 21.754 8.347 5.861-2.688 16.559-36.278 16.033-44.953-0.524-8.677-6.309-14.985-13.932-13.671-7.625 1.313-2.365-6.704 0-10.646 2.365-3.943 10.458-16.556 14.986-20.309 4.598-3.809 12.746-8.607 9.856-1.775-2.893 6.839-14.064 28.527-12.226 30.891 0 0 6.313 5.26 10.517-1.315 4.205-6.571 16.563-32.335 16.823-37.329 0.147-2.782-0.771-6.872-3.66-9.176-2.484-0.025-4.111-0.784-5.173-1.738z" fill="url(#SVGID_7_)"/>
	

</svg>
