<?xml version="1.0" encoding="UTF-8"?>
<!-- Generator: Adobe Illustrator 16.0.0, SVG Export Plug-In . SVG Version: 6.00 Build 0)  -->
<svg width="370px" height="146px" enable-background="new -12.5 -146.455 370 146" version="1.1" viewBox="-12.5 -146.46 370 146" xml:space="preserve" xmlns="http://www.w3.org/2000/svg">
<g fill="#082174">
	<path d="m-6.51-121.36h20.416c2.441 0 4.434 0.31 5.977 0.923 1.551 0.617 2.773 1.395 3.655 2.344 0.89 0.949 1.49 1.976 1.802 3.081 0.313 1.104 0.472 2.134 0.472 3.08 0 1.897-0.418 3.41-1.255 4.534-0.829 1.122-1.945 2.07-3.337 2.843 0.832 0.282 1.646 0.667 2.428 1.161 0.781 0.488 1.468 1.113 2.059 1.867 0.594 0.759 1.069 1.663 1.437 2.715 0.363 1.055 0.552 2.266 0.552 3.635 0 1.895-0.376 3.555-1.125 4.975-0.748 1.426-1.732 2.611-2.949 3.552-1.222 0.949-2.617 1.672-4.18 2.162-1.563 0.494-3.169 0.737-4.802 0.737h-21.15v-37.609zm11.488 14.643h6.06c1.214 0 2.176-0.207 2.868-0.63 0.698-0.418 1.046-1.245 1.046-2.478 0-0.946-0.36-1.612-1.068-2-0.717-0.388-1.666-0.575-2.846-0.575h-6.06v5.683zm0 14.012h6.738c0.583 0 1.155-0.05 1.696-0.159 0.541-0.103 1.013-0.287 1.434-0.555 0.418-0.265 0.748-0.619 0.993-1.074 0.243-0.458 0.363-1.06 0.363-1.797 0-2.282-1.345-3.418-4.018-3.418h-7.207l1e-3 7.003z"/>
	<path d="m32.182-121.36h11.49v27.968h16.498v9.641h-27.988v-37.609z"/>
	<path d="m75.415-121.36h11.225l13.58 37.609h-11.9l-1.574-5.372h-11.848l-1.677 5.372h-11.54l13.734-37.609zm9.031 24.177-3.331-11.588h-0.106l-3.608 11.588h7.045z"/>
	<path d="m102.78-121.36h11.484v37.609h-11.484v-37.609z"/>
	<path d="m120.22-121.36h11.747l10.859 20.123h0.106v-20.123h10.865v37.609h-11.178l-11.434-20.544h-0.103v20.544h-10.862v-37.609z"/>
	<path d="m159.8-121.36h30.864v9.64h-19.375v4.69h17.595v8.951h-17.595v4.69h19.946v9.64h-31.437l2e-3 -37.611z"/>
	<path d="m14.399-65.409c-0.062-0.305-0.167-0.717-0.313-1.244-0.154-0.524-0.421-1.045-0.807-1.561-0.388-0.508-0.904-0.963-1.548-1.354-0.642-0.391-1.465-0.586-2.48-0.586-1.167 0-2.135 0.254-2.91 0.765-0.776 0.517-1.398 1.194-1.858 2.037-0.463 0.84-0.801 1.788-1.007 2.846-0.206 1.052-0.313 2.118-0.313 3.203 0 1.083 0.106 2.151 0.313 3.209 0.207 1.049 0.544 2 1.007 2.847 0.46 0.836 1.083 1.521 1.858 2.03 0.775 0.511 1.744 0.769 2.91 0.769 0.837 0 1.543-0.137 2.126-0.405 0.583-0.272 1.074-0.652 1.479-1.13 0.399-0.482 0.725-1.059 0.982-1.717 0.257-0.664 0.452-1.373 0.605-2.125h9.668c0 1.631-0.321 3.238-0.962 4.832-0.639 1.594-1.58 3.033-2.815 4.316-1.242 1.273-2.771 2.307-4.593 3.088-1.822 0.784-3.895 1.178-6.222 1.178-2.595 0-4.896-0.439-6.894-1.309-1.998-0.876-3.691-2.063-5.081-3.574-1.39-1.504-2.436-3.281-3.156-5.346-0.717-2.063-1.074-4.286-1.074-6.66 0-2.531 0.379-4.833 1.141-6.914 0.762-2.07 1.85-3.848 3.268-5.326 1.42-1.471 3.119-2.623 5.106-3.433 1.984-0.809 4.213-1.219 6.69-1.219 4.414 0.03 7.827 1.149 10.229 3.367 2.405 2.21 3.809 5.352 4.23 9.414h-9.579v2e-3z"/>
	<path d="m27.288-61.299c0-2.47 0.388-4.734 1.167-6.797 0.775-2.063 1.872-3.84 3.29-5.329 1.417-1.49 3.122-2.659 5.125-3.496 1.995-0.846 4.208-1.27 6.621-1.27 2.422 0 4.629 0.424 6.629 1.27 1.998 0.837 3.708 2.006 5.123 3.496 1.417 1.489 2.517 3.267 3.292 5.329 0.773 2.063 1.164 4.33 1.164 6.797s-0.391 4.732-1.164 6.797c-0.776 2.063-1.875 3.834-3.292 5.326-1.415 1.49-3.122 2.656-5.123 3.502-2 0.837-4.208 1.264-6.629 1.264-2.414 0-4.626-0.427-6.621-1.264-2-0.846-3.708-2.012-5.125-3.502-1.417-1.492-2.514-3.265-3.29-5.326-0.78-2.064-1.167-4.331-1.167-6.797zm9.848 0c0 1.803 0.215 3.281 0.65 4.422 0.43 1.147 0.959 2.04 1.587 2.69 0.628 0.649 1.312 1.097 2.062 1.353 0.742 0.26 1.429 0.387 2.054 0.387 0.627 0 1.314-0.127 2.062-0.387 0.742-0.256 1.431-0.703 2.059-1.353 0.625-0.65 1.155-1.543 1.59-2.69 0.43-1.141 0.65-2.619 0.65-4.422 0-1.809-0.22-3.283-0.65-4.426-0.436-1.146-0.965-2.039-1.59-2.688-0.628-0.646-1.317-1.1-2.059-1.357-0.748-0.249-1.435-0.383-2.062-0.383-0.625 0-1.312 0.134-2.054 0.383-0.75 0.259-1.434 0.714-2.062 1.357-0.628 0.647-1.158 1.541-1.587 2.688-0.434 1.142-0.65 2.618-0.65 4.426z"/>
	<path d="m92.868-57.638c0 4.479-1.197 7.808-3.583 9.976s-6.043 3.254-10.965 3.254c-4.925 0-8.588-1.086-10.991-3.254s-3.602-5.496-3.602-9.976v-19.783h9.85v17.564c0 0.813 0.022 1.657 0.061 2.532 0.048 0.869 0.221 1.666 0.522 2.39 0.296 0.723 0.77 1.317 1.429 1.786 0.656 0.46 1.582 0.699 2.773 0.699 1.166 0 2.062-0.239 2.687-0.699 0.627-0.469 1.091-1.063 1.389-1.786 0.293-0.724 0.469-1.521 0.514-2.39 0.042-0.875 0.064-1.719 0.064-2.532v-17.564h9.852v19.783z"/>
	<path d="m97.878-77.421h10.072l9.311 17.249h0.092v-17.249h9.311v32.241h-9.582l-9.807-17.611h-0.084v17.611h-9.313v-32.241z"/>
	<path d="m139.29-69.159h-8.957v-8.263h27.753v8.263h-8.95v23.979h-9.847l1e-3 -23.979z"/>
	<path d="m169.05-57.057-11.236-20.363h10.876l5.33 11.872 5.547-11.872h10.793l-11.461 20.363v11.878h-9.849v-11.878z"/>
	</g>
		
			<rect x="-6.494" y="-38.639" width="197.68" height="4.341" fill="#D42626"/>
		
	
	
		<g fill="#082174">
			<path d="m6.166-24.801v13.969c0 0.908 0.218 1.525 0.653 1.854 0.376 0.29 1.038 0.433 1.987 0.433h0.724v1.196h-10.923v-1.196h1.024c1.56 0 2.341-0.762 2.341-2.287v-13.969h-3.585c-0.723 0-1.245 0.051-1.56 0.15-0.513 0.158-0.879 0.5-1.096 1.019-0.207 0.47-0.413 1.281-0.623 2.437h-1.244l0.549-5.726h0.977c0.276 0.259 0.472 0.404 0.578 0.435 0.198 0.06 0.491 0.088 0.876 0.088h14.453c0.595 0 1.08-0.174 1.454-0.521h0.979l0.55 5.725h-1.247c-0.167-0.944-0.301-1.572-0.399-1.883-0.257-0.787-0.617-1.281-1.083-1.48-0.385-0.159-0.987-0.24-1.808-0.24h-3.577v-4e-3z"/>
			<path d="m28.595-14.419h-6.641l-1.275 3.589c-0.307 0.846-0.321 1.439-0.045 1.78 0.268 0.34 1.083 0.509 2.447 0.509h0.385v1.195h-8.05v-1.195h0.458c0.823 0 1.479-0.273 1.973-0.824 0.346-0.398 0.684-1.063 1.007-1.988l5.19-14.609-0.327-0.898h4.492l6.063 15.566c0.354 0.918 0.714 1.563 1.069 1.932 0.472 0.488 1.13 0.765 1.97 0.822v1.196h-9.872v-1.196h1.069c0.887 0 1.445-0.195 1.674-0.584 0.218-0.379 0.167-0.962-0.147-1.746l-1.44-3.549zm-0.697-1.691-2.787-7.161-2.547 7.161h5.334z"/>
			<path d="m56.511-12.672-2.224 5.323h-16.261v-1.196h0.502c1.225 0 1.992-0.313 2.299-0.939 0.148-0.307 0.223-0.729 0.223-1.256v-12.264c0-1.465-0.795-2.197-2.388-2.197h-0.578v-1.197h10.29v1.197h-0.876c-1.504 0-2.254 0.713-2.254 2.137v12.623c0 0.561 0.112 0.932 0.335 1.121s0.614 0.287 1.18 0.287h3.867c1.127 0 2.059-0.43 2.801-1.289 0.335-0.391 0.957-1.168 1.869-2.347h1.214l1e-3 -3e-3z"/>
			<path d="m63.644-16.229v5.458c0 1.487 0.801 2.227 2.399 2.227h0.43v1.196h-9.903v-1.196h0.55c1.563 0 2.344-0.762 2.344-2.288v-12.038c0-0.855-0.184-1.461-0.55-1.811-0.365-0.35-0.974-0.521-1.825-0.521h-0.519v-1.196h9.902v1.196h-0.516c-0.901 0-1.512 0.177-1.833 0.529-0.321 0.354-0.48 0.996-0.48 1.924v5.504c1.294-0.158 2.628-0.935 4.001-2.317 0.605-0.611 1.203-1.331 1.794-2.168 0.771-1.097 1.158-1.914 1.158-2.453 0-0.679-0.611-1.019-1.825-1.019h-0.327v-1.196h8.108v1.196c-0.879 0.051-1.476 0.123-1.794 0.209-0.572 0.15-1.083 0.449-1.526 0.898-0.315 0.318-0.687 0.781-1.11 1.391l-1.248 1.748c-0.859 1.217-1.744 2.181-2.653 2.889 0.731 0.38 1.761 1.408 3.083 3.098l0.134 0.18 2.653 3.408c0.742 0.946 1.4 1.621 1.973 2.021 0.778 0.547 1.66 0.82 2.637 0.82v1.198h-10.346v-1.198c1.412 0 2.121-0.273 2.121-0.82 0-0.392-0.868-1.559-2.595-3.502-0.773-0.868-1.473-1.621-2.104-2.258-0.731-0.742-1.444-1.109-2.133-1.109z"/>
			<path d="m93.467-15.436v4.665c0 1.487 0.801 2.227 2.402 2.227h0.904v1.196h-10.627v-1.196h0.488c0.921 0 1.571-0.137 1.956-0.416 0.455-0.329 0.684-0.932 0.684-1.811v-12.099c0-0.888-0.181-1.498-0.541-1.834-0.363-0.332-0.988-0.502-1.878-0.502h-0.636v-1.193l3.912-0.243c2.065-0.147 3.728-0.224 4.983-0.224 2.26 0 4.035 0.16 5.321 0.479 1.284 0.317 2.313 0.865 3.083 1.644 0.968 0.978 1.454 2.139 1.454 3.485 0 2.472-1.499 4.118-4.492 4.937 0.7 0.576 1.518 1.51 2.444 2.793 0.583 0.809 1.51 1.973 2.773 3.486 0.603 0.614 1.208 1.055 1.825 1.314 0.525 0.221 1.253 0.385 2.193 0.494v1.18c-0.444 0.031-1.071 0.048-1.881 0.048-2.366 0-4.079-0.276-5.145-0.823-0.563-0.278-1.099-0.675-1.602-1.183-0.555-0.56-1.18-1.326-1.883-2.303l-1.75-2.438c-0.446-0.576-0.974-1.141-1.584-1.688h-2.402v5e-3zm0-10.11v8.82h1.186c1.8 0 3.153-0.276 4.063-0.835 1.158-0.697 1.736-1.887 1.736-3.574 0-2.939-1.8-4.411-5.396-4.411h-1.589z"/>
			<path d="m122.7-14.419h-6.641l-1.275 3.589c-0.307 0.846-0.321 1.439-0.044 1.78 0.268 0.34 1.083 0.509 2.447 0.509h0.385v1.195h-8.05v-1.195h0.458c0.82 0 1.476-0.273 1.973-0.824 0.346-0.398 0.681-1.063 1.007-1.988l5.187-14.609-0.324-0.898h4.492l6.063 15.566c0.354 0.918 0.712 1.563 1.066 1.932 0.475 0.488 1.133 0.765 1.973 0.822v1.196h-9.872v-1.196h1.066c0.89 0 1.448-0.195 1.677-0.584 0.218-0.379 0.167-0.962-0.148-1.746l-1.44-3.549zm-0.698-1.691-2.787-7.161-2.547 7.161h5.334z"/>
			<path d="m132.37-25.202v-1.197c0.723-0.039 1.437-0.075 2.151-0.106l1.465-0.059c0.108 0 0.535-0.024 1.277-0.075 1.619-0.102 3.003-0.15 4.149-0.15 3.954 0 6.825 0.41 8.613 1.229 2.123 0.979 3.613 2.529 4.462 4.665 0.435 1.106 0.652 2.294 0.652 3.561 0 2.679-0.938 4.97-2.815 6.861-2.067 2.084-5.502 3.125-10.304 3.125h-9.651v-1.197c0.968 0 1.646-0.11 2.031-0.344 0.524-0.308 0.787-0.906 0.787-1.794v-11.83c0-1.393-0.349-2.221-1.041-2.48-0.393-0.14-0.986-0.209-1.776-0.209zm7.011 0v14.297c0 1.022 0.156 1.67 0.466 1.936 0.313 0.264 1.035 0.396 2.171 0.396 3.095 0 5.368-0.912 6.822-2.737 1.186-1.504 1.78-3.379 1.78-5.622 0-2.631-0.754-4.707-2.255-6.219-1.454-1.469-3.658-2.202-6.612-2.202-0.848 0-1.638 0.053-2.372 0.151z"/>
			<path d="m157.42-25.202v-1.197h9.654v1.197h-0.508c-1.54 0-2.311 0.767-2.311 2.305v12.126c0 0.825 0.185 1.405 0.561 1.731 0.377 0.332 0.979 0.494 1.809 0.494h0.446v1.196h-9.651v-1.196h0.43c1.474 0 2.207-0.699 2.207-2.105v-12.246c0-0.829-0.167-1.418-0.502-1.775-0.338-0.354-0.915-0.529-1.735-0.529h-0.4v-1e-3z"/>
			<path d="m169.38-16.561c0-3.02 1.091-5.512 3.271-7.475 2.177-1.963 4.967-2.946 8.367-2.946 3.191 0 5.795 0.905 7.813 2.715 2.015 1.812 3.024 4.147 3.024 7.022 0 2.182-0.608 4.133-1.825 5.846-1.187 1.674-2.796 2.896-4.832 3.662-1.423 0.551-3.009 0.824-4.761 0.824-2.022 0-3.867-0.379-5.527-1.14-1.838-0.845-3.242-2.078-4.21-3.692-0.882-1.463-1.32-3.069-1.32-4.816zm4.536-1.479c0 2.894 0.673 5.256 2.016 7.09 1.313 1.813 3.049 2.721 5.203 2.721 2.67 0 4.506-1.309 5.514-3.932 0.455-1.205 0.684-2.533 0.684-3.978 0-2.634-0.607-4.853-1.82-6.657-1.287-1.914-3.027-2.871-5.222-2.871-2.631 0-4.489 1.206-5.575 3.619-0.534 1.164-0.8 2.504-0.8 4.008z"/>
		</g>
	<g fill="#D42626">
	<path d="m353.28-100.1c-1.103 3.44-2.625 6.686-4.389 9.855-1.75 3.184-3.861 6.186-6.22 9.076-4.735 5.718-10.885 10.813-18.474 13.898-3.772 1.528-7.865 2.538-12.034 2.897-2.054 0.188-4.246 0.204-6.205 0.112-1.738-0.058-3.563-0.156-5.306-0.254-7.047-0.386-13.946-0.955-20.612-1.271-6.663-0.334-13.108-0.326-19.026 0.239-5.935 0.601-11.219 1.675-16.123 3.496-2.462 0.915-4.855 2.054-7.223 3.481-1.25 0.769-2.204 1.382-2.932 1.957-0.823 0.675-1.684 1.455-2.506 2.365-1.684 1.801-3.273 4.055-4.654 6.625-0.703 1.293-1.313 2.672-1.833 4.168-0.511 1.51-0.927 3.11-0.972 5.045l-2e-3 0.063c-0.013 0.46-0.395 0.825-0.853 0.813-0.131-2e-3 -0.251-0.039-0.358-0.09-0.961-0.49-1.83-1.183-2.576-1.988-0.771-0.795-1.435-1.702-1.983-2.653-1.118-1.92-1.827-4.034-2.267-6.197-0.816-4.333-0.459-8.878 1.039-13.235 0.744-2.183 1.821-4.306 3.187-6.313 1.471-2.109 3.103-3.828 4.515-5.278 2.969-3 6.434-5.664 10.219-7.754 3.779-2.104 7.849-3.649 11.922-4.626 4.082-0.988 8.164-1.454 12.125-1.568 7.937-0.226 15.377 0.804 22.483 2.009 7.109 1.233 13.921 2.765 20.619 4.196l5.009 1.052c1.484 0.341 2.758 0.583 4.172 0.729 2.766 0.304 5.592 0.234 8.448-0.26 5.72-0.954 11.501-3.621 16.847-7.368 5.353-3.756 10.324-8.53 14.678-13.881l0.021-0.031c0.256-0.313 0.717-0.36 1.032-0.106 0.24 0.2 0.324 0.518 0.232 0.797z"/>
	<path d="m348.01-77.468c-0.769 3.071-1.937 5.972-3.335 8.815-1.387 2.853-3.104 5.563-5.018 8.189-3.866 5.209-8.902 9.881-14.987 13.292-3.047 1.681-6.32 3.084-9.752 4.043-1.663 0.486-3.591 0.886-4.994 1.167-1.677 0.315-3.217 0.555-4.841 0.786-6.412 0.931-12.883 1.203-19.092 1.218-6.204 0.038-12.178-0.174-17.469-0.046-2.637 0.054-5.098 0.165-7.342 0.384-2.257 0.215-4.302 0.532-6.316 1.01-1.006 0.242-2 0.547-3.01 0.897l-1.523 0.583-0.768 0.332-0.383 0.182-0.191 0.09-0.099 0.045c-0.045 0.031 0.304-0.237 0.144-0.114l-0.03 0.02-0.059 0.035-0.488 0.287-0.242 0.148c-0.078 0.042-0.076 0.039-0.12 0.059-0.134 0.069-0.249 0.081-0.461 0.229-0.385 0.229-0.771 0.463-1.144 0.726-0.769 0.508-1.51 1.088-2.256 1.735-1.479 1.306-2.9 2.924-4.111 4.952-0.575 1.019-1.137 2.144-1.518 3.421-0.188 0.637-0.375 1.331-0.476 2.063-0.084 0.72-0.146 1.515-0.114 2.374v0.067c0.018 0.469-0.349 0.856-0.816 0.873-0.115 6e-3 -0.228-0.017-0.328-0.05-1.766-0.664-3.342-1.979-4.535-3.58-1.189-1.613-2.049-3.499-2.549-5.475-1.002-3.963-0.696-8.263 0.727-12.19 0.697-1.976 1.674-3.869 2.889-5.613 0.607-0.868 1.264-1.711 1.982-2.494 0.32-0.38 0.793-0.838 1.227-1.262l0.905-0.906 0.052-0.051 0.023-0.022c-0.139 0.106 0.225-0.179 0.195-0.156l0.135-0.119 0.262-0.239 0.527-0.479 1.091-0.93c0.742-0.613 1.513-1.203 2.315-1.755 1.6-1.119 3.313-2.114 5.084-2.985 3.563-1.728 7.383-2.844 11.063-3.416 3.699-0.586 7.243-0.66 10.598-0.521 6.698 0.338 12.662 1.367 18.414 2.16 2.875 0.391 5.692 0.762 8.488 1.052 2.799 0.275 5.574 0.488 8.352 0.604 1.363 0.059 2.814 0.074 4.117 0.086 1.577-0.021 2.629 0.021 3.906-0.051 2.465-0.143 4.956-0.484 7.426-1.158 9.924-2.556 19.586-9.664 27.135-18.917l0.026-0.039c0.257-0.313 0.722-0.36 1.035-0.104 0.227 0.185 0.313 0.48 0.249 0.748z"/>
	<path d="m342.59-48.21c-2.037 4.665-4.972 8.822-8.382 12.729-3.448 3.863-7.536 7.33-12.272 10.131-2.381 1.37-4.906 2.611-7.588 3.57-0.669 0.24-1.348 0.473-2.033 0.685l-1.818 0.544c-1.271 0.354-2.479 0.673-3.717 0.985-4.935 1.247-9.955 2.174-14.953 2.868-4.991 0.684-9.975 1.188-14.704 1.492-4.707 0.354-9.21 0.455-12.685 0.661-1.734 0.101-3.142 0.237-4.27 0.41l-0.822 0.147-0.396 0.087-0.191 0.056-0.098 0.025-0.051 0.014-0.024 9e-3 -0.015 2e-3c-0.086 0.067 0.104-0.089 0.072-0.063-0.115 0.056-0.311 0.176-0.356 0.184-0.036 0-0.042-0.039-0.117-8e-3l-0.365 0.114c-0.239 0.072-0.464 0.137-0.7 0.191-0.903 0.234-1.955 0.323-3.187 1.303-0.575 0.483-1.19 1.185-1.644 2.145-0.453 0.971-0.797 2.165-0.656 3.75l0.017 0.146c0.048 0.518-0.329 0.979-0.845 1.035-1.813 0.198-3.667-0.558-5.153-1.738-1.487-1.201-2.676-2.87-3.364-4.773-1.481-3.824-0.854-8.518 1.121-12.09 0.479-0.9 1.034-1.749 1.635-2.527 0.305-0.388 0.613-0.765 0.933-1.127 0.144-0.171 0.368-0.398 0.558-0.598 0.18-0.188 0.219-0.254 0.336-0.385l0.601-0.562 0.526-0.479c0.354-0.315 0.721-0.616 1.095-0.912 0.739-0.586 1.512-1.137 2.302-1.613 3.167-1.958 6.426-3.094 9.395-3.803 5.979-1.391 11.088-1.387 15.938-1.253 4.838 0.135 9.425 0.475 13.985 0.598 4.558 0.142 9.068 0.147 13.604-9e-3l6.557-0.32c1.977-0.134 4.01-0.398 6.053-0.859 8.205-1.789 16.675-6.019 24.537-11.633l0.035-0.029c0.336-0.24 0.799-0.159 1.039 0.17 0.148 0.217 0.169 0.496 0.067 0.73z"/>
	</g><path d="m233.17-80.836" fill="#082174"/>
	
		
			<path d="m298.62-114.66c-1.791-4.715-6.447-6.521-8.272-9.495-1.531-2.5-1.188-5.854-2.643-7.997-2.751-4.043-8.78-6.122-13.178-7.266-25.025-6.535-42.437 7.625-57.416 22.082-4.683 4.52-9.516 9.124-11.625 15.095 1.658 0.028 3.438-1.42 5.205-2.522 1.731-1.08 3.522-2.804 5.543-3.128-6.892 10.243-14.817 20.792-18.032 36.258 4.788-3.675 9.021-10.502 13.831-12.784-1.855 6.107-3.29 14.871-3.825 20.896-0.44 5.021-2.013 11.157 0.251 13.907 3.439-27.923 13.49-31.969 28.313-43.963 0.568-0.458 1.558-1.719 1.582-2.07-0.135 0.192-10.631 1.87-10.975 1.976-0.209-0.037 4.896-8.563 5.059-8.477-0.072 0.187-10.469 1.699-10.438 1.73 3.454-7.023 9.807-11.825 15.316-14.21 0.389 0.022-4.539 4.665-5.851 8.7-0.081-0.12 9.381-1.504 9.636-1.529 0.131 0.078-4.445 7.689-4.488 7.698 0.277 0.156 7.203-1.582 10.94-1.437l-4.64 12.098c8.719-3.468 21.54-4.618 31.177-2.687 4.339-3.664 10.402-11.432 16.948-11.13 0.708 1.728 0.346 4.484-0.037 7.252 6.658-0.035 10.158-12.34 7.619-18.997zm-20.444-10.062c-0.215 0.296-0.827 0.999-1.776 0.999-0.469 0-0.951-0.176-1.433-0.519-0.391-0.279-0.604-0.617-0.642-1.01-0.047-0.566 0.299-1.077 0.484-1.312l-1.563-1.211c-0.063-0.014-0.222-0.047-0.396-0.047-0.252 0-0.431 0.064-0.527 0.192-0.562 0.692-2.172 3.161 0.498 5.977l-0.187 0.251c-0.048-0.022-4.626-2.313-3.478-6.392-0.657-0.02-1.979-0.092-2.569-0.318-0.021 0.438 0.045 1.445 0.918 2.43l-0.215 0.237c-0.104-0.081-2.67-1.961-2.733-4.606l-9e-3 -0.307 0.254 0.17c3e-3 0 0.413 0.254 1.511 0.254 0.42 0 0.89-0.036 1.399-0.109 0.271-0.042 0.544-0.086 0.817-0.134 0.742-0.125 1.513-0.254 2.314-0.254 1.645 0 3.105 0.569 4.596 1.792 3.158 2.598 6.535 4.422 8.813 4.76l0.314 0.047-0.227 0.223c-0.029 0.031-3.225 3.125-8.396 3.125-0.409 0-0.824-0.021-1.24-0.059l-0.021-0.313c0.035-0.011 3.719-0.94 5.457-2.818l-1.963-1.048zm19.037 21.41c-0.851 3.479-2.478 5.365-4.924 6.777 0.703-1.403 1.3-4.174 1.004-6.046 0.188-5.43-8.687-2.949-12.338-0.868-1.897 1.088-3.726 3.739-5.996 2.731-2.052-7.907 7.479-7.673 8.789-14.855 3.125 0.505 6.507 0.751 8.864 1.995-0.219-2.291-2.504-4.978-3.485-7.464 4.402 2.598 10.353 8.452 8.086 17.73z" fill="#082174"/>
		
	


</svg>
