<?xml version="1.0" encoding="UTF-8"?>
<!-- Generator: Adobe Illustrator 16.0.0, SVG Export Plug-In . SVG Version: 6.00 Build 0)  -->
<svg width="160" height="146" enable-background="new -12.5 -146.455 370 146" version="1.1" viewBox="-12.5 -146.46 160 146" xml:space="preserve" xmlns="http://www.w3.org/2000/svg">
<g transform="translate(-208.26 -.44415)"><g fill="#d42626">
	
	
	
	
	
	
	
	
	
	
	
	
	
	
	<path d="m353.28-100.1c-1.103 3.44-2.625 6.686-4.389 9.855-1.75 3.184-3.861 6.186-6.22 9.076-4.735 5.718-10.885 10.813-18.474 13.898-3.772 1.528-7.865 2.538-12.034 2.897-2.054 0.188-4.246 0.204-6.205 0.112-1.738-0.058-3.563-0.156-5.306-0.254-7.047-0.386-13.946-0.955-20.612-1.271-6.663-0.334-13.108-0.326-19.026 0.239-5.935 0.601-11.219 1.675-16.123 3.496-2.462 0.915-4.855 2.054-7.223 3.481-1.25 0.769-2.204 1.382-2.932 1.957-0.823 0.675-1.684 1.455-2.506 2.365-1.684 1.801-3.273 4.055-4.654 6.625-0.703 1.293-1.313 2.672-1.833 4.168-0.511 1.51-0.927 3.11-0.972 5.045l-2e-3 0.063c-0.013 0.46-0.395 0.825-0.853 0.813-0.131-2e-3 -0.251-0.039-0.358-0.09-0.961-0.49-1.83-1.183-2.576-1.988-0.771-0.795-1.435-1.702-1.983-2.653-1.118-1.92-1.827-4.034-2.267-6.197-0.816-4.333-0.459-8.878 1.039-13.235 0.744-2.183 1.821-4.306 3.187-6.313 1.471-2.109 3.103-3.828 4.515-5.278 2.969-3 6.434-5.664 10.219-7.754 3.779-2.104 7.849-3.649 11.922-4.626 4.082-0.988 8.164-1.454 12.125-1.568 7.937-0.226 15.377 0.804 22.483 2.009 7.109 1.233 13.921 2.765 20.619 4.196l5.009 1.052c1.484 0.341 2.758 0.583 4.172 0.729 2.766 0.304 5.592 0.234 8.448-0.26 5.72-0.954 11.501-3.621 16.847-7.368 5.353-3.756 10.324-8.53 14.678-13.881l0.021-0.031c0.256-0.313 0.717-0.36 1.032-0.106 0.24 0.2 0.324 0.518 0.232 0.797z"/>
	<path d="m348.01-77.468c-0.769 3.071-1.937 5.972-3.335 8.815-1.387 2.853-3.104 5.563-5.018 8.189-3.866 5.209-8.902 9.881-14.987 13.292-3.047 1.681-6.32 3.084-9.752 4.043-1.663 0.486-3.591 0.886-4.994 1.167-1.677 0.315-3.217 0.555-4.841 0.786-6.412 0.931-12.883 1.203-19.092 1.218-6.204 0.038-12.178-0.174-17.469-0.046-2.637 0.054-5.098 0.165-7.342 0.384-2.257 0.215-4.302 0.532-6.316 1.01-1.006 0.242-2 0.547-3.01 0.897l-1.523 0.583-0.768 0.332-0.383 0.182-0.191 0.09-0.099 0.045c-0.045 0.031 0.304-0.237 0.144-0.114l-0.03 0.02-0.059 0.035-0.488 0.287-0.242 0.148c-0.078 0.042-0.076 0.039-0.12 0.059-0.134 0.069-0.249 0.081-0.461 0.229-0.385 0.229-0.771 0.463-1.144 0.726-0.769 0.508-1.51 1.088-2.256 1.735-1.479 1.306-2.9 2.924-4.111 4.952-0.575 1.019-1.137 2.144-1.518 3.421-0.188 0.637-0.375 1.331-0.476 2.063-0.084 0.72-0.146 1.515-0.114 2.374v0.067c0.018 0.469-0.349 0.856-0.816 0.873-0.115 6e-3 -0.228-0.017-0.328-0.05-1.766-0.664-3.342-1.979-4.535-3.58-1.189-1.613-2.049-3.499-2.549-5.475-1.002-3.963-0.696-8.263 0.727-12.19 0.697-1.976 1.674-3.869 2.889-5.613 0.607-0.868 1.264-1.711 1.982-2.494 0.32-0.38 0.793-0.838 1.227-1.262l0.905-0.906 0.052-0.051 0.023-0.022c-0.139 0.106 0.225-0.179 0.195-0.156l0.135-0.119 0.262-0.239 0.527-0.479 1.091-0.93c0.742-0.613 1.513-1.203 2.315-1.755 1.6-1.119 3.313-2.114 5.084-2.985 3.563-1.728 7.383-2.844 11.063-3.416 3.699-0.586 7.243-0.66 10.598-0.521 6.698 0.338 12.662 1.367 18.414 2.16 2.875 0.391 5.692 0.762 8.488 1.052 2.799 0.275 5.574 0.488 8.352 0.604 1.363 0.059 2.814 0.074 4.117 0.086 1.577-0.021 2.629 0.021 3.906-0.051 2.465-0.143 4.956-0.484 7.426-1.158 9.924-2.556 19.586-9.664 27.135-18.917l0.026-0.039c0.257-0.313 0.722-0.36 1.035-0.104 0.227 0.185 0.313 0.48 0.249 0.748z"/>
	<path d="m342.59-48.21c-2.037 4.665-4.972 8.822-8.382 12.729-3.448 3.863-7.536 7.33-12.272 10.131-2.381 1.37-4.906 2.611-7.588 3.57-0.669 0.24-1.348 0.473-2.033 0.685l-1.818 0.544c-1.271 0.354-2.479 0.673-3.717 0.985-4.935 1.247-9.955 2.174-14.953 2.868-4.991 0.684-9.975 1.188-14.704 1.492-4.707 0.354-9.21 0.455-12.685 0.661-1.734 0.101-3.142 0.237-4.27 0.41l-0.822 0.147-0.396 0.087-0.191 0.056-0.098 0.025-0.051 0.014-0.024 9e-3 -0.015 2e-3c-0.086 0.067 0.104-0.089 0.072-0.063-0.115 0.056-0.311 0.176-0.356 0.184-0.036 0-0.042-0.039-0.117-8e-3l-0.365 0.114c-0.239 0.072-0.464 0.137-0.7 0.191-0.903 0.234-1.955 0.323-3.187 1.303-0.575 0.483-1.19 1.185-1.644 2.145-0.453 0.971-0.797 2.165-0.656 3.75l0.017 0.146c0.048 0.518-0.329 0.979-0.845 1.035-1.813 0.198-3.667-0.558-5.153-1.738-1.487-1.201-2.676-2.87-3.364-4.773-1.481-3.824-0.854-8.518 1.121-12.09 0.479-0.9 1.034-1.749 1.635-2.527 0.305-0.388 0.613-0.765 0.933-1.127 0.144-0.171 0.368-0.398 0.558-0.598 0.18-0.188 0.219-0.254 0.336-0.385l0.601-0.562 0.526-0.479c0.354-0.315 0.721-0.616 1.095-0.912 0.739-0.586 1.512-1.137 2.302-1.613 3.167-1.958 6.426-3.094 9.395-3.803 5.979-1.391 11.088-1.387 15.938-1.253 4.838 0.135 9.425 0.475 13.985 0.598 4.558 0.142 9.068 0.147 13.604-9e-3l6.557-0.32c1.977-0.134 4.01-0.398 6.053-0.859 8.205-1.789 16.675-6.019 24.537-11.633l0.035-0.029c0.336-0.24 0.799-0.159 1.039 0.17 0.148 0.217 0.169 0.496 0.067 0.73z"/>
	
	</g>
		
			<path d="m298.62-114.66c-1.791-4.715-6.447-6.521-8.272-9.495-1.531-2.5-1.188-5.854-2.643-7.997-2.751-4.043-8.78-6.122-13.178-7.266-25.025-6.535-42.437 7.625-57.416 22.082-4.683 4.52-9.516 9.124-11.625 15.095 1.658 0.028 3.438-1.42 5.205-2.522 1.731-1.08 3.522-2.804 5.543-3.128-6.892 10.243-14.817 20.792-18.032 36.258 4.788-3.675 9.021-10.502 13.831-12.784-1.855 6.107-3.29 14.871-3.825 20.896-0.44 5.021-2.013 11.157 0.251 13.907 3.439-27.923 13.49-31.969 28.313-43.963 0.568-0.458 1.558-1.719 1.582-2.07-0.135 0.192-10.631 1.87-10.975 1.976-0.209-0.037 4.896-8.563 5.059-8.477-0.072 0.187-10.469 1.699-10.438 1.73 3.454-7.023 9.807-11.825 15.316-14.21 0.389 0.022-4.539 4.665-5.851 8.7-0.081-0.12 9.381-1.504 9.636-1.529 0.131 0.078-4.445 7.689-4.488 7.698 0.277 0.156 7.203-1.582 10.94-1.437l-4.64 12.098c8.719-3.468 21.54-4.618 31.177-2.687 4.339-3.664 10.402-11.432 16.948-11.13 0.708 1.728 0.346 4.484-0.037 7.252 6.658-0.035 10.158-12.34 7.619-18.997zm-20.444-10.062c-0.215 0.296-0.827 0.999-1.776 0.999-0.469 0-0.951-0.176-1.433-0.519-0.391-0.279-0.604-0.617-0.642-1.01-0.047-0.566 0.299-1.077 0.484-1.312l-1.563-1.211c-0.063-0.014-0.222-0.047-0.396-0.047-0.252 0-0.431 0.064-0.527 0.192-0.562 0.692-2.172 3.161 0.498 5.977l-0.187 0.251c-0.048-0.022-4.626-2.313-3.478-6.392-0.657-0.02-1.979-0.092-2.569-0.318-0.021 0.438 0.045 1.445 0.918 2.43l-0.215 0.237c-0.104-0.081-2.67-1.961-2.733-4.606l-9e-3 -0.307 0.254 0.17c3e-3 0 0.413 0.254 1.511 0.254 0.42 0 0.89-0.036 1.399-0.109 0.271-0.042 0.544-0.086 0.817-0.134 0.742-0.125 1.513-0.254 2.314-0.254 1.645 0 3.105 0.569 4.596 1.792 3.158 2.598 6.535 4.422 8.813 4.76l0.314 0.047-0.227 0.223c-0.029 0.031-3.225 3.125-8.396 3.125-0.409 0-0.824-0.021-1.24-0.059l-0.021-0.313c0.035-0.011 3.719-0.94 5.457-2.818zm19.037 21.41c-0.851 3.479-2.478 5.365-4.924 6.777 0.703-1.403 1.3-4.174 1.004-6.046 0.188-5.43-8.687-2.949-12.338-0.868-1.897 1.088-3.726 3.739-5.996 2.731-2.052-7.907 7.479-7.673 8.789-14.855 3.125 0.505 6.507 0.751 8.864 1.995-0.219-2.291-2.504-4.978-3.485-7.464 4.402 2.598 10.353 8.452 8.086 17.73z" fill="#082174"/>
		
	
</g>

</svg>
