<?xml version="1.0" encoding="UTF-8"?>
<svg width="59.467" height="57.814" enable-background="new 0 0 154.026 60.962" version="1.1" viewBox="0 0 59.467 57.814" xml:space="preserve" xmlns="http://www.w3.org/2000/svg">

<path transform="matrix(.91143 0 0 .91143 3.1877 4.5883)" d="m5.5625 0.94336c-0.097524-0.0026692-0.19619-5.4655e-4 -0.29492 0.0097656-0.3044 0.031775-0.9833 0.16491-1.5449 0.76758-0.96186 1.0277-0.68191 2.2801-0.36328 2.8672 0.3116 0.57407 0.88181 0.97486 0.89648 0.98633 0.87451 0.68332 4.6469 3.1945 6.4687 4.4141 3e-3 0.00198 0.0049 0.00388 0.0078 0.00586-0.55504 0.18767-1.0731 0.37137-1.3476 0.50586 0.1572-0.077-1.603 0.61324-1.5273 2.4238 0.034353 0.82135 0.43208 1.3087 0.55664 1.4609 0.47063 0.57529 1.2323 0.87512 1.2402 0.87891 1.8476 0.88459 9.2514 3.8892 13.82 5.6758-2.9383 1.3067-6.9681 3.2567-7.5371 3.5391-0.77678 0.38543-1.5266 0.77036-1.9688 1.0273-0.09688 0.05631-0.29049 0.17349-0.42188 0.26758 0.44151-0.31617-1.4885 0.74717-1.0254 2.6484 0.13371 0.54897 0.42645 0.94089 0.70117 1.207-1.2166 0.71414-2.965 1.7492-3.5625 2.1875 0.00856-0.0063-0.65817 0.41526-0.98242 1.1738-0.26754 0.62597-0.38814 1.7103 0.42773 2.6172 1.1953 1.3345 3.2031 0.57768 2.5 0.74219 0.1434-0.03357 0.30569-0.07903 0.47266-0.13281 2.0968-0.67527 10.418-4.0882 12.244-4.9844-0.0074 0.0036 0.17429-0.07669 0.41016-0.22461-1.6638 7.428-3.3276 14.856-4.9844 22.287-0.7233 3.2761 3.4277 5.3618 5.6172 2.8086 1.4859-1.7382 2.9738-3.4764 4.4609-5.2148 1.4412 1.7335 2.882 3.4685 4.3203 5.1992 2.1771 2.634 6.4356 0.56821 5.7266-2.7676-1.5961-7.588-3.2002-15.176-4.8047-22.764 1.491 0.7544 8.1711 3.4571 9.668 3.9199 0.03567 0.01103 0.52202 0.20082 1.1113 0.17578 0.35932-0.01537 1.4978-0.17941 2.0918-1.3359 1.1289-2.1876-1.4569-3.67-0.8418-3.2129-0.45911-0.34118-1.4674-0.93247-2.3496-1.4434 0.1373-0.22647 0.25086-0.49062 0.31055-0.80469 0.2593-1.3642-0.63322-2.2093-0.97852-2.4668-0.04062-0.03029-0.15969-0.11161-0.09961-0.07031-0.11188-0.0769-0.27511-0.17204-0.35352-0.2168-0.3422-0.19538-0.99567-0.52837-1.5645-0.81055-0.30276-0.1502-3.7295-1.8255-6.1465-2.8887 4.0153-1.5568 11.417-4.5897 13.168-5.4102-0.0074 0.0035 0.68401-0.26727 1.1309-0.75781 0.02964-0.03253 0.6986-0.67277 0.63867-1.7871-0.09533-1.8122-2.0981-2.4251-1.5684-2.1875-0.19072-0.08556-0.45762-0.18183-0.74609-0.28125 0.27318-0.18242 0.50933-0.34178 0.78516-0.52539 1.4091-0.938 4.0019-2.6711 4.709-3.2363 0.03589-0.028689 0.55802-0.40046 0.86719-0.98438 0.2158-0.4076 0.53139-1.3405-0.0078-2.3379a2.1397 2.1397 0 0 0-0.0059-0.00977c-0.56462-1.0309-1.543-1.2627-2.1386-1.2773-0.08509-0.00209-0.16133 8.003e-4 -0.22852 0.00586-0.11296 0.00851-0.22575 0.022602-0.32617 0.042969-1.4425 0.29255-12.147 5.5228-13.104 5.9941-1.018 0.50153-1.9124 0.95364-2.4219 1.2285-0.0013 7.004e-4 -0.70661 0.3374-1.1113 0.82422-0.10371 0.12473-0.66485 0.80756-0.55859 1.8301a2.1397 2.1397 0 0 0 2e-3 0.0098c0.13819 1.2714 1.1823 1.8932 1.541 2.0566-2.2237 1.3255-4.5912 2.7471-5.3086 3.248-0.01419 0.0099-0.56354 0.35987-0.89258 0.86328-0.03683 0.05634-0.07201 0.14999-0.10938 0.22266-0.21766-0.42864-0.51405-0.73208-0.67774-0.86719-0.0401-0.0331-0.16201-0.1295-0.07422-0.06055-0.11676-0.0917-0.28102-0.2037-0.35742-0.25586-0.75765-0.51729-3.3096-2.0817-6.2363-3.8496 0.16985-0.06457 0.32074-0.12586 0.43945-0.18164-0.23567 0.11066 1.3374-0.43551 1.5507-1.9922 0.12614-0.90261-0.28318-1.5606-0.42969-1.7676-0.45083-0.63685-1.272-1.0125-1.2812-1.0176-2.428-1.3292-13.872-6.7299-16.328-7.6934 0.022644 0.008883-0.59077-0.286-1.2734-0.30469zm20.299 25.016c-0.11087 0.49406-0.22122 0.98835-0.33203 1.4824-0.25982-0.3577-0.57377-0.60018-0.78516-0.73242 0.36426-0.24224 0.73767-0.4957 1.1172-0.75zm4.166 14.926c-0.01329 0.01528-0.02773 0.02964-0.04102 0.04492-0.01097-0.0131-0.02223-0.02596-0.0332-0.03906 0.02486-3.73e-4 0.04937-0.0049 0.07422-0.0059z"/><g transform="matrix(.91143 0 0 .91143 3.1877 4.5883)"><g transform="matrix(.82803 0 0 .82803 60.065 1.3975)" fill="#fff"><path transform="translate(-54.944 -1.1845)" d="m46.022 5.1904c-0.03821 0.00277-0.06652 0.00936-0.07813 0.011719-1.0983 0.22273-11.748 5.3243-15.205 7.0273-1.2561 0.61885-2.2779 1.1352-2.8418 1.4395-0.10989 0.05929-0.48414 0.25097-0.59375 0.38281-0.0246 0.02959-0.11587 0.14308-0.09766 0.31836 0.03232 0.29737 0.34523 0.40602 0.39648 0.42774 0.46131 0.19546 1.8201 0.56893 2.9434 0.88086 0.85426 0.23722 1.7076 0.47984 2.2793 0.65625-2.1021 1.3017-9.6731 5.7078-11.244 6.8047-0.09561 0.06676-0.31489 0.21386-0.40234 0.34766-0.03904 0.05972-0.15577 0.28995 0.01953 0.50781 0.10666 0.13256 0.2455 0.15164 0.29102 0.15625 0.19106 0.01936 0.61987-0.14072 0.75-0.18555 2.9294-1.0091 15.803-6.2632 18.363-7.4629 0.09701-0.04546 0.45009-0.19886 0.5625-0.32227 0.0272-0.02986 0.12136-0.13422 0.11133-0.30859-0.01628-0.30932-0.34002-0.42847-0.39062-0.45117-0.44842-0.20116-1.8973-0.64498-3.0098-0.99414-0.76283-0.23943-1.5261-0.48265-2.1016-0.6875-0.17561-0.06251-0.32867-0.12205-0.46289-0.17578 0.86738-0.64444 3.0423-2.0929 5.25-3.5625 2.2679-1.5097 4.6885-3.1263 5.5078-3.7813 0.09919-0.079293 0.30566-0.23927 0.38477-0.38867 0.03019-0.057008 0.10374-0.23173 2e-3 -0.41992-0.11539-0.21064-0.319-0.22902-0.43363-0.2207z"/><path transform="translate(-54.944 -1.1845)" d="m14.938 25.851c-0.03199-0.0018-0.06016-4.81e-4 -0.08399 2e-3 -0.03176 0.0032-0.05353 0.0079-0.0625 0.0098-0.95345 0.19746-9.2618 4.117-12.006 5.4785-0.97808 0.48531-1.7864 0.90201-2.2305 1.1602-0.11749 0.06829-0.23003 0.1385-0.30664 0.19336-0.03958 0.02835-0.32452 0.2095-0.24805 0.52344 0.05321 0.21844 0.24555 0.32158 0.30859 0.35547 0.14442 0.07763 0.39359 0.16573 0.61523 0.23633 0.89015 0.28354 2.4847 0.66844 3.3809 0.92383-0.85207 0.52579-2.4701 1.4683-4.125 2.4375-1.8398 1.0775-3.938 2.3179-4.6016 2.8047-0.072089 0.05289-0.28277 0.19515-0.35547 0.36524-0.039656 0.09277-0.077203 0.29261 0.074219 0.46094 0.19618 0.21904 0.4983 0.12524 0.54102 0.11523 0.098304-0.02302 0.22498-0.061 0.36914-0.10742 2.3354-0.75209 12.425-4.8863 14.447-5.8789 0.08604-0.04223 0.37737-0.17507 0.48438-0.30664 0.02524-0.03104 0.08108-0.10422 0.09375-0.22852 0.02937-0.29955-0.235-0.44759-0.29297-0.48047-0.13912-0.07891-0.38236-0.17309-0.60547-0.25195-0.98332-0.34758-2.7714-0.85462-3.6777-1.1777 0.59025-0.42472 1.6705-1.153 2.8867-1.9629 2.0215-1.3462 4.6852-3.1057 5.4375-3.7109 0.07017-0.05646 0.2563-0.19819 0.32617-0.34961 0.03365-0.07293 0.09379-0.27192-0.05273-0.45312-0.09618-0.11908-0.22045-0.15284-0.31641-0.1582z"/><path transform="translate(-54.944 -1.1845)" d="m22.575 26.798c-0.11166-0.0043-0.31896 0.02121-0.41992 0.24609-0.16718 0.3663 0.24764 0.63688 0.29688 0.67578 0.61583 0.48654 2.7033 1.8418 4.2812 2.8867 0.8613 0.57032 1.652 1.1029 2.123 1.4434-0.71951 0.23843-2.0503 0.59086-2.7695 0.84961-0.17742 0.06382-0.37356 0.14102-0.50586 0.23047-0.06989 0.04726-0.28058 0.20594-0.24024 0.48047 0.03321 0.22596 0.23304 0.33412 0.26367 0.35352 0.06229 0.03944 0.14808 0.08735 0.23633 0.13281 1.615 0.83197 9.5404 4.0459 11.344 4.6035 0.11096 0.03431 0.33018 0.10592 0.47852 0.09961 0.05172-0.0022 0.26333-0.02065 0.37109-0.23047 0.19239-0.36959-0.2116-0.63222-0.26758-0.67383-0.6188-0.45985-2.817-1.71-4.5117-2.6914-0.87914-0.50908-1.6926-0.98667-2.2188-1.3125 0.69993-0.19678 1.7688-0.46382 2.4336-0.66992 0.19069-0.05912 0.37514-0.12147 0.50391-0.18164 0.05514-0.02577 0.29823-0.12911 0.3457-0.37891 0.05773-0.30378-0.21584-0.46687-0.24414-0.48633-0.06289-0.04323-0.1527-0.09706-0.24609-0.15039-0.35305-0.20158-0.98868-0.52859-1.7578-0.91016-1.8038-0.89486-8.6608-4.1699-9.4238-4.3086-0.0084-0.0015-0.03505-0.0064-0.07227-0.0078z"/><path transform="translate(-54.944 -1.1845)" d="m-10.888 3.1845c-0.11209-0.00542-0.24516 0.018635-0.35156 0.13281-0.1871 0.19991-0.09677 0.43357-0.05859 0.50391 0.08169 0.15052 0.31072 0.32465 0.41016 0.40234 1.07 0.83609 4.7202 3.2494 7.6621 5.2188 1.883 1.2606 3.5428 2.3866 4.2871 2.9453-0.14863 0.05659-0.32098 0.1201-0.51758 0.1875-0.62947 0.2158-1.4682 0.4785-2.3105 0.74219-1.3162 0.41201-2.8105 0.87289-3.373 1.1484-0.082333 0.04033-0.43603 0.19444-0.42188 0.5332 0.00579 0.1385 0.070003 0.22206 0.097656 0.25586 0.1211 0.14803 0.50276 0.31944 0.62695 0.37891 2.8713 1.3747 17.182 7.1263 20.344 8.2383 0.11989 0.04216 0.59376 0.22362 0.7793 0.20898 0.05489-0.0043 0.2809-0.03865 0.36719-0.27734 0.11681-0.32583-0.1956-0.53344-0.22266-0.55469-0.07292-0.05727-0.17381-0.13153-0.29297-0.21289-1.2343-0.84273-6.2908-3.9226-12.332-7.5254 2.6577-0.72889 5.0259-1.441 5.6836-1.75 0.07487-0.03518 0.39361-0.16534 0.43359-0.45703 0.02243-0.16052-0.048129-0.26897-0.076176-0.30859-0.1186-0.16755-0.55462-0.39191-0.69141-0.4668-2.9476-1.6137-16.548-8.0243-19.424-9.1523-0.15722-0.061677-0.2944-0.11258-0.39648-0.14453-0.0196-0.00614-0.11057-0.041451-0.22266-0.046875z"/></g><path transform="matrix(.82803 0 0 .82803 60.065 1.3975)" d="m-32.592 47.381c-0.43669 0.50618-0.87157 1.0139-1.3101 1.5185-2.8341 3.2613-5.6714 6.5198-8.509 9.7781 1.2457-5.4654 3.6595-16.069 6.0619-26.675 0.98219 4.6634 3.2916 15.543 5.6052 26.422-2.6977-3.2159-5.3953-6.432-8.09-9.6505-0.48252-0.57632-0.96341-1.154-1.4451-1.731l-2.0469 1.7089c0.48171 0.57699 0.96422 1.1533 1.4451 1.731 3.8603 4.6372 7.7146 9.2794 11.571 13.92a1.3701 1.3726 19.15 0 0 2.3947-1.1629c-2.667-12.679-5.3376-25.358-8.027-38.032a1.3908 1.39 45.361 0 0-2.7166-0.01795c-2.8498 12.678-5.6807 25.36-8.5082 38.042a1.3271 1.3222 71.639 0 0 2.2958 1.1569c3.9508-4.6216 7.8994-9.2451 11.854-13.863 0.43488-0.50775 0.87338-1.0124 1.3101-1.5185z" fill="#fff" style="paint-order:normal"/><path d="m27.249 35.402 2.6582 2.3575 2.6582-2.2305" fill="none" stroke="#fff" stroke-linecap="round" stroke-linejoin="round" stroke-width="1.9873" style="paint-order:normal"/></g></svg>
