<?xml version="1.0" encoding="UTF-8"?>
<svg width="154.03px" height="60.962px" enable-background="new 0 0 154.026 60.962" version="1.1" viewBox="0 0 154.03 60.962" xml:space="preserve" xmlns="http://www.w3.org/2000/svg">

	<path d="m154.03 42.067c0-1.709-1.199-3.55-3.834-3.55-0.229 0-0.516 0.011-0.827 0.075 0 0-3.517-0.075-3.844-0.075h-0.122-10.5c-0.366 0-0.842 0.037-1.494 0.116-0.568 0.071-0.846 0.079-0.941 0.079-0.276 0-0.577-0.019-0.896-0.056l-0.859-0.099c-0.301-0.031-0.506-0.041-0.629-0.041h-2.486c-0.347 0-0.668 0.019-0.975 0.056-0.438 0.02-0.823 0.033-1.156 0.042l-2.878 0.124c-1.746 0.063-2.403 0.071-2.638 0.071-0.699 0-1.324-0.027-1.861-0.083l-1.703-0.173c-0.287-0.027-0.499-0.037-0.639-0.037-1.38 0-4.926-0.024-6.313-0.024-0.252 0-2.74-2.153-3.713-2.739-0.5-0.302-2.266-1.313-2.912-1.688 0.22-0.298 1.133-0.629 1.52-0.886 0.76-0.507 0.422-1.688-0.378-2.179-0.545-0.333-0.612-0.739-6.548-3.539-1.978-0.933-3.319-1.55-4.27-1.964 1.393-0.492 3.938-1.486 8.884-3.498 9.817-3.995 10.11-4.487 10.585-4.988 0.51-0.541 1.563-1.695 1.013-2.195-1.394-1.266-2.523-1.743-4.644-2.448 0.35-0.231 1.705-1.009 2.026-1.224 1.532-1.02 3.171-2.061 4.349-2.871 2.033-1.399 3.503-3.165 2.803-4.407-0.488-0.863-2.424-1.249-3.395-0.784-0.633 0.303-0.441 0.094-9.836 4.559-9.283 4.413-8.883 4.382-9.328 4.771-0.971 0.844-0.949 1.335-0.718 2.068 0.253 0.802 1.601 1.389 3.124 1.941-8.058 4.78-9.118 5.023-11.061 6.205-0.668 0.406-0.188 0.211-1.393 0.211-0.778 0-3.082-2.321-5.529-3.968-1.244-0.836-2.845-2.032-4.549-3.063-0.493-0.299-0.986-0.597-1.47-0.889 2.105-0.758 4.305-0.87 3.95-2.085-0.296-1.014-1.385-1.986-2.068-2.364-0.845-0.464-1.52-0.737-11.693-5.825-2.279-1.139-10.32-4.643-11.017-4.643-0.748 0-1.769 0.087-2.279 0.634-0.541 0.58 0.223 1.991 0.802 2.532 1.267 1.183 5.277 4.813 6.838 5.857 0.611 0.407 2.203 1.336 2.871 1.783-2.802 0.92-4.893 1.417-4.77 2.701 0.084 0.887 1.401 2.401 5.403 4.095 1.864 0.788 4.005 1.896 6.823 3.034 3.545 1.432 5.971 2.394 7.67 3.048-1.191 0.513-2.927 1.303-5.548 2.533-7.476 3.51-7.628 4.091-8.059 4.64-0.512 0.653-0.809 1.275-0.61 2.082 0.178 0.722 1.9 1.055 2.426 1.422-4.464 2.611-7.714 4.138-7.983 4.138-0.834 0-3.514 0.019-4.482 0.019-0.167 0-0.383 0.012-0.646 0.044l-1.153 0.15c-0.623 0.082-1.011 0.099-1.227 0.099-0.113 0-0.464-0.011-1.295-0.104l-1.299-0.147c-0.286-0.03-0.501-0.041-0.675-0.041-0.149 0-0.28 0.026-0.421 0.038-0.14-0.012-0.271-0.038-0.419-0.038-0.253 0-0.551 0.029-0.997 0.097l-1.05 0.158c-0.104 0.016-0.309 0.038-0.707 0.038-0.338 0-0.626-0.016-0.855-0.048l-1.465-0.197c-0.227-0.03-0.467-0.048-0.705-0.048h-3.195c-0.392 0-0.748 0.028-1.088 0.085-0.753 0.121-3.131 0.13-3.786 0.022-0.445-0.071-0.871-0.107-1.274-0.107-0.944 0-5.458-0.443-7.282-0.443-2.409 0-8.019 0.22-9.251 0.22-0.527 0-3.565-0.22-4.696-0.22-2.328 0-4.295 0.676-5.845 2.008-1.644 1.418-2.512 3.345-2.512 5.572-4e-3 1.101-0.422 4.737-0.422 5.913 0 0.45 0.221 3.451 0.181 3.976 0 0-0.181 1.392-0.181 1.68 0 2.166 1.551 3.737 3.688 3.737h5.442 13.466 15.029c2.538 0 7.171-0.446 8.316-0.446 0.227 0 0.541-0.013 0.939-0.041 0.232-0.017 0.393-0.028 0.494-0.03 0.054-1e-3 0.138-2e-3 0.192-8e-3 1.103-0.08 1.583-0.092 1.771-0.092h5.727c0.728 0.026 1.274 0.051 1.641 0.076 0.851 0.084 1.182 0.095 1.358 0.095 0.978 0 4.244 0.446 5.414 0.446h8.331c1.594 0 5.357-0.417 6.418-0.363 0.047 3e-3 0.146 6e-3 0.191 6e-3 2.607 0 11.391-0.063 13.919-0.063 0.084 0 0.169-3e-3 0.253-8e-3h0.125c0.023 0 0.074-3e-3 0.107-3e-3 0.037 0 0.07 0.01 0.107 0.01 0.374 0 0.796-0.044 1.329-0.138 0.76-0.137 1.516-0.205 2.264-0.205 0.634 0 1.28 0.059 1.922 0.177 0.603 0.111 1.065 0.166 1.446 0.166h3.59c0.458 0 0.991-0.053 1.629-0.161 0.645-0.105 1.225-0.159 1.714-0.159 0.3 0 0.866 0.032 1.866 0.19 0.597 0.093 0.967 0.13 1.283 0.13h5.818 0.147c0.159 0 0.321-0.015 0.479-0.042 0.029-4e-3 0.058-8e-3 0.086-0.013l0.837-0.124c0.54-0.076 1.05-0.115 1.497-0.115 0.77 0 1.457 0.046 2.041 0.138 0.633 0.104 1.154 0.156 1.575 0.156h7.648 0.147c0.177 0 0.352-0.018 0.525-0.052 0.042-7e-3 0.083-0.013 0.123-0.021l1.035-0.195c-3e-3 1e-3 1.988 1e-3 2.099 0.019 0.41 0.064 0.819 0.126 1.202 0.178 0.305 0.045 0.604 0.071 0.867 0.071h7.918c0.365 0 0.76-0.034 1.205-0.104 0.567-0.094 1.164-0.14 1.796-0.14 0.694 0 1.558 0.06 2.563 0.177l0.211 0.026c0.152 0.026 0.311 0.041 0.471 0.041 2.178 0 3.76-1.508 3.76-3.587 5e-3 -1.922 5e-3 -12.971 5e-3 -14.887z"/>
	
		<g fill="#fff">
			<path d="m91.195 23.276c-0.173-0.215 12.131-7.285 12.198-7.492 0.066-0.207-6.074-1.688-6.099-1.918-0.024-0.231 18.313-9.009 18.474-8.715 0.159 0.294-11.455 7.666-11.502 8.018-0.046 0.353 6.26 2.038 6.272 2.266 0.013 0.226-19.17 8.056-19.343 7.841z"/>
			<path d="m60.13 39.697c-0.206-0.229 9.571-5.678 9.595-5.895 0.021-0.216-4.722-1.197-4.798-1.509s14.361-7.06 14.529-6.852c0.169 0.209-9.027 6.043-9.045 6.306s4.959 1.526 4.934 1.781c-0.026 0.255-15.009 6.399-15.215 6.169z"/>
			<path d="m105.62 38.533c0.114-0.219-7.627-4.423-7.514-4.614s3.717-0.961 3.759-1.182-11.292-5.563-11.38-5.367c-0.089 0.195 7.107 4.671 7.084 4.938-0.024 0.267-3.905 1.117-3.864 1.396s11.802 5.049 11.915 4.829z"/>
			<path d="m80.786 22.345c0.076-0.212-13.501-8.294-13.501-8.294s6.707-1.8 6.751-2.121c0.045-0.322-20.229-9.881-20.448-9.646-0.219 0.234 12.767 8.538 12.732 8.875-0.034 0.336-6.958 2.171-6.944 2.506s21.333 8.893 21.41 8.68z"/>
		</g>
		
			
				<path d="m8.775 40.776c1.605 0 2.918 0.515 3.933 1.547v-0.348c0-0.653 0.256-0.98 0.764-0.98 0.557 0 0.835 0.356 0.835 1.061v0.147c0 0.032-0.022 0.277-0.071 0.736-0.051 0.459-0.075 1.008-0.075 1.646 0 0.082 0.017 0.346 0.05 0.786l0.074 0.984c0.015 0.081 0.022 0.196 0.022 0.344 0 0.788-0.304 1.183-0.909 1.183-0.638 0-0.958-0.326-0.958-0.98v-0.121l0.05-0.662c0.014-0.229 0.022-0.409 0.022-0.536 0-0.984-0.331-1.746-0.995-2.303-0.665-0.555-1.579-0.834-2.743-0.834-1.066 0-1.914 0.267-2.546 0.789-0.628 0.525-0.943 1.23-0.943 2.116 0 1.029 0.464 1.794 1.401 2.285 0.522 0.264 1.44 0.499 2.753 0.715 1.951 0.309 3.286 0.736 4.007 1.277 1.083 0.803 1.623 1.941 1.623 3.416 0 1.544-0.55 2.797-1.654 3.763-1.104 0.97-2.532 1.453-4.284 1.453-1.864 0-3.408-0.594-4.635-1.774v0.221 0.146c0.066 0.261 0.1 0.427 0.1 0.512 0 0.596-0.305 0.896-0.907 0.896-0.658 0-0.987-0.344-0.987-1.035 0-0.08 0.024-0.146 0.074-0.194l0.099-1.279c0.049-0.641 0.071-1.05 0.071-1.229 0-0.328-0.04-0.82-0.122-1.478-0.082-0.655-0.123-1.146-0.123-1.475 0-0.738 0.311-1.105 0.934-1.105 0.638 0 0.96 0.372 0.96 1.116v0.445 0.57c0 1.237 0.391 2.224 1.175 2.949 0.784 0.726 1.847 1.089 3.188 1.089 1.241 0 2.232-0.296 2.966-0.883 0.736-0.594 1.103-1.396 1.103-2.415 0-1.561-0.983-2.512-2.95-2.856l-1.402-0.248c-1.392-0.247-2.475-0.534-3.245-0.861-0.705-0.314-1.265-0.803-1.683-1.466-0.418-0.664-0.627-1.417-0.627-2.252 0-1.445 0.525-2.621 1.571-3.523 1.051-0.903 2.411-1.355 4.084-1.355z" fill="#fff"/>
			
			
				<path d="m22.597 58.26c-2.179 0-3.904-0.787-5.173-2.361-1.272-1.572-1.906-3.706-1.906-6.393 0-2.723 0.64-4.858 1.918-6.408 1.277-1.549 3.041-2.321 5.287-2.321 2.146 0 3.854 0.754 5.126 2.261 1.269 1.509 1.904 3.55 1.904 6.124 0 2.788-0.643 5.002-1.93 6.638-1.287 1.639-3.029 2.46-5.226 2.46zm0.05-15.713c-1.574 0-2.795 0.605-3.663 1.817-0.87 1.215-1.303 2.921-1.303 5.115 0 2.228 0.434 3.958 1.303 5.177 0.868 1.222 2.082 1.829 3.639 1.829 1.524 0 2.732-0.633 3.626-1.903 0.893-1.269 1.342-2.994 1.342-5.176 0-2.196-0.429-3.891-1.281-5.079-0.851-1.188-2.075-1.78-3.663-1.78z" fill="#fff"/>
			
			
				<path d="m33.914 45.108v1.575l-0.147 1.994v3.795c0 1.149 0.125 1.985 0.38 2.514 0.256 0.524 0.736 0.937 1.439 1.23 0.656 0.278 1.329 0.417 2.017 0.417 0.9 0 1.673-0.17 2.313-0.515 0.637-0.346 1.051-0.809 1.24-1.395 0.189-0.58 0.293-1.324 0.308-2.228v-6.332c0-1.247-0.015-1.952-0.047-2.117-0.145-0.838-0.558-1.256-1.236-1.256-0.115 0-0.274 0.012-0.484 0.039-0.308 0.04-0.525 0.061-0.654 0.061-0.21 0-0.392-0.081-0.545-0.246-0.153-0.16-0.229-0.345-0.229-0.554 0-0.585 0.361-0.872 1.082-0.872 0.116 0 0.229 8e-3 0.344 0.023l1.453 0.195c0.36 0.05 0.768 0.074 1.228 0.074 0.442 0 0.812-0.022 1.107-0.069l1.057-0.158c0.295-0.045 0.492-0.065 0.591-0.065 0.688 0 1.032 0.276 1.032 0.836 0 0.556-0.336 0.836-1.008 0.836h-0.275-0.246c-0.492 0-0.795 0.246-0.91 0.734-0.115 0.49-0.171 1.746-0.171 3.773v4.289c0 1.063-0.033 1.829-0.099 2.306-0.132 0.815-0.41 1.527-0.836 2.132-0.983 1.422-2.646 2.134-4.992 2.134-2.886 0-4.744-0.94-5.582-2.82-0.262-0.572-0.393-1.461-0.393-2.671 0-0.587 0.025-1.458 0.073-2.61 0.05-1.152 0.075-2.023 0.075-2.612v-1.295c0-1.194-8e-3 -1.865-0.025-2.014-0.116-0.896-0.434-1.346-0.958-1.346h-0.173-0.222-0.32c-0.688 0-1.032-0.28-1.032-0.836 0-0.56 0.313-0.836 0.934-0.836 0.262 0 0.541 0.023 0.836 0.071 0.802 0.132 1.548 0.197 2.237 0.197 0.704 0 1.517-0.073 2.434-0.222 0.197-0.032 0.412-0.047 0.641-0.047 0.67 0 1.006 0.276 1.006 0.836 0 0.556-0.288 0.836-0.861 0.836-0.13 0-0.326-0.023-0.589-0.065-0.263-0.038-0.458-0.06-0.59-0.06-0.524 0-0.877 0.281-1.055 0.837-0.082 0.252-0.132 0.752-0.148 1.507z" fill="#fff"/>
			
			
				<path d="m50.173 54.112c0 0.963 0.095 1.533 0.294 1.713 0.145 0.147 0.339 0.237 0.576 0.269 0.239 0.032 0.776 0.049 1.611 0.049h2.164c1.133 0 1.886-0.148 2.265-0.448 0.374-0.298 0.563-0.899 0.563-1.805 0-0.244-8e-3 -0.526-0.024-0.851-0.034-0.631-0.051-1.011-0.051-1.14 0-0.711 0.289-1.068 0.863-1.068 0.687 0 1.033 0.327 1.033 0.986 0 0.194-9e-3 0.353-0.025 0.467l-0.173 1.253c-0.049 0.36-0.073 0.736-0.073 1.132 0 0.229 0.021 0.569 0.062 1.019 0.039 0.451 0.061 0.792 0.061 1.021 0 0.738-0.418 1.105-1.254 1.105-0.164 0-0.542-0.026-1.13-0.086-0.395-0.027-1-0.057-1.82-0.086h-5.777c-0.396 0-1.052 0.033-1.968 0.101-0.132 0-0.356 0.013-0.677 0.037-0.319 0.022-0.57 0.034-0.75 0.034-0.689 0-1.032-0.296-1.032-0.883 0-0.525 0.253-0.789 0.761-0.789 0.132 0 0.328 0.025 0.591 0.077 0.263 0.046 0.459 0.071 0.59 0.071 0.837 0 1.254-0.616 1.254-1.846v-9.859c0-1.211-0.417-1.819-1.254-1.819-0.229 0-0.402 0.018-0.515 0.049-0.263 0.05-0.485 0.076-0.666 0.076-0.214 0-0.392-0.08-0.541-0.235-0.146-0.156-0.22-0.35-0.22-0.577 0-0.573 0.352-0.859 1.057-0.859 0.099 0 0.22 8e-3 0.371 0.023l1.301 0.147c0.722 0.082 1.254 0.122 1.599 0.122 0.426 0 0.951-0.04 1.577-0.122l1.129-0.147c0.131-0.016 0.237-0.023 0.321-0.023 0.736 0 1.105 0.286 1.105 0.859 0 0.228-0.073 0.421-0.222 0.577-0.148 0.155-0.327 0.235-0.54 0.235-0.167 0-0.385-0.026-0.665-0.076-0.116-0.031-0.288-0.049-0.516-0.049-0.836 0-1.253 0.604-1.253 1.81v9.536z" fill="#fff"/>
			
			
				<path d="m117.83 50.562v-5.975c0-1.211-0.414-1.819-1.246-1.819-0.209 0-0.373 0.025-0.486 0.068-0.262 0.07-0.473 0.104-0.636 0.104-0.211 0-0.39-0.079-0.536-0.238-0.146-0.161-0.219-0.36-0.219-0.598 0-0.589 0.344-0.884 1.033-0.884 0.082 0 0.205 8e-3 0.367 0.023l1.697 0.172c0.64 0.065 1.354 0.098 2.139 0.098 0.428 0 1.344-0.024 2.756-0.074l2.826-0.123c0.377-9e-3 0.82-0.024 1.327-0.049 0.231-0.032 0.477-0.047 0.737-0.047 0.871 0 1.305 0.384 1.305 1.155 0 0.293-0.041 0.745-0.123 1.351-0.084 0.607-0.123 1.066-0.123 1.377 0 0.262 0.016 0.59 0.05 0.985 0.032 0.393 0.049 0.754 0.049 1.082 0 0.672-0.297 1.008-0.886 1.008-0.607 0-0.908-0.385-0.908-1.152 0-0.228 6e-3 -0.577 0.021-1.052 0.018-0.473 0.027-0.823 0.027-1.053 0-0.864-0.246-1.409-0.736-1.639-0.489-0.229-1.65-0.343-3.479-0.343-1.553 0-2.436 0.14-2.647 0.418-0.163 0.214-0.245 0.967-0.245 2.264v1.814c0 0.464 0.062 0.746 0.185 0.851 0.121 0.109 0.464 0.161 1.021 0.161h0.812c1.065 0 1.599-0.395 1.599-1.181 0-0.181-0.022-0.425-0.063-0.737s-0.061-0.551-0.061-0.713c0-0.624 0.296-0.935 0.886-0.935 0.557 0 0.835 0.363 0.835 1.085 0 0.098-0.018 0.294-0.059 0.591l-0.171 1.331c-0.077 0.593-0.114 1.038-0.114 1.333 0 0.673 0.086 1.53 0.257 2.565 0.058 0.345 0.087 0.673 0.087 0.985 0 0.641-0.295 0.96-0.884 0.96-0.558 0-0.837-0.343-0.837-1.031 0-0.165 0.012-0.409 0.036-0.736 0.024-0.329 0.038-0.575 0.038-0.739 0-0.509-0.14-0.837-0.418-0.982-0.182-0.115-0.559-0.172-1.132-0.172h-0.763c-0.572 0-0.926 0.064-1.057 0.192-0.132 0.132-0.197 0.488-0.197 1.068v2.893c0 0.762 0.087 1.274 0.257 1.541 0.175 0.27 0.497 0.402 0.974 0.402h0.541 0.541c0.753 0 1.131 0.278 1.131 0.836 0 0.231-0.086 0.428-0.258 0.591-0.173 0.164-0.381 0.244-0.628 0.244-0.261 0-0.647-0.039-1.155-0.122-0.721-0.113-1.541-0.172-2.461-0.172-0.591 0-1.22 0.05-1.893 0.146l-0.836 0.124c-0.049 0-0.105 0.011-0.171 0.024h-0.147c-0.722 0-1.082-0.294-1.082-0.885 0-0.525 0.254-0.786 0.76-0.786 0.066 0 0.281 0.016 0.641 0.052 0.182 0.046 0.352 0.071 0.518 0.071 0.442 0 0.748-0.137 0.921-0.404 0.172-0.272 0.267-0.75 0.284-1.441v-3.883z" fill="#fff"/>
			
			
				<path d="m136.35 43.063 3.786 12.44 4.156-13.253c0.213-0.688 0.58-1.031 1.107-1.031h0.122c0.163 0 0.376 0.023 0.64 0.071 0.327 0.084 0.539 0.124 0.639 0.124 0.262 0.031 0.623 0.049 1.083 0.049 0.491 0 0.874-0.025 1.155-0.073l0.859-0.147c0.051-0.016 0.148-0.023 0.295-0.023 0.755 0 1.132 0.282 1.132 0.848 0 0.516-0.263 0.774-0.788 0.774-0.13 0-0.322-0.019-0.576-0.05-0.256-0.033-0.445-0.048-0.578-0.048-0.837 0-1.254 0.613-1.254 1.842v9.86c0 1.229 0.409 1.846 1.229 1.846 0.163 0 0.346-0.025 0.54-0.071 0.362-0.036 0.573-0.052 0.639-0.052 0.525 0 0.788 0.261 0.788 0.786 0 0.591-0.353 0.885-1.058 0.885 0.033 0-0.089-0.014-0.369-0.049-1.13-0.132-2.092-0.195-2.876-0.195-0.772 0-1.509 0.056-2.212 0.173-0.296 0.047-0.557 0.071-0.789 0.071-0.639 0-0.958-0.271-0.958-0.821 0-0.566 0.329-0.85 0.991-0.85 0.166 0 0.289 0.011 0.371 0.031 0.364 0.045 0.578 0.066 0.646 0.066 0.594 0 0.966-0.613 1.114-1.843 0.033-0.26 0.051-1.098 0.051-2.508 0-0.542 0.014-1.327 0.049-2.361v-6.566c0-0.096-0.043-0.146-0.123-0.146-0.049 0-0.1 0.05-0.148 0.146l-4.523 14.063c-0.197 0.625-0.654 0.938-1.377 0.938-0.428 0-0.743-0.061-0.949-0.186-0.203-0.124-0.364-0.374-0.478-0.752l-4.45-14.063c-0.049-0.096-0.107-0.146-0.175-0.146-0.063 0-0.097 0.05-0.097 0.146l0.174 11.392c0.016 1.192 0.338 1.789 0.975 1.789h0.73 0.293c0.636 0 0.951 0.278 0.951 0.836 0 0.557-0.328 0.835-0.984 0.835-0.115 0-0.286-0.014-0.514-0.049-0.361-0.047-0.748-0.106-1.157-0.171-0.327-0.049-0.745-0.074-1.255-0.074-0.9 0-1.482 0.025-1.744 0.074l-1.033 0.195c-0.033 0-0.082 0.011-0.148 0.024h-0.147c-0.752 0-1.13-0.286-1.13-0.859 0-0.229 0.073-0.421 0.219-0.578 0.15-0.154 0.329-0.233 0.543-0.233 0.18 0 0.393 0.023 0.64 0.074 0.245 0.049 0.427 0.073 0.54 0.073 0.838 0 1.254-0.613 1.254-1.844v-9.886c0-1.229-0.416-1.842-1.254-1.842-0.131 0-0.328 0.015-0.589 0.048-0.264 0.031-0.46 0.05-0.591 0.05-0.508 0-0.762-0.259-0.762-0.774 0-0.565 0.369-0.848 1.105-0.848 0.064 0 0.172 8e-3 0.32 0.023l0.861 0.099c0.426 0.049 0.826 0.073 1.203 0.073 0.311 0 0.734-0.032 1.266-0.1 0.534-0.064 0.924-0.096 1.17-0.096 0.641 0 1.066 0.398 1.277 1.205l0.173 0.639z" fill="#fff"/>
			
			
				<path d="m110.02 56.168h-0.392-0.147-0.174c-0.508 0-1.162-0.491-1.967-1.47l-4.621-5.586 4.326-5.268c0.572-0.702 1.059-1.053 1.451-1.053 0.115 0 0.286 0.02 0.516 0.061 0.23 0.042 0.401 0.063 0.516 0.063 0.607 0 0.91-0.288 0.91-0.86 0-0.575-0.334-0.861-1.008-0.861-0.114 0-0.377 0.033-0.785 0.097-0.92 0.147-1.633 0.222-2.142 0.222-0.817 0-1.605-0.069-2.36-0.214-0.377-0.067-0.688-0.104-0.934-0.104-0.605 0-0.908 0.275-0.908 0.835 0 0.59 0.329 0.887 0.982 0.887 0.277 0 0.655-0.04 1.129-0.121 0.117-0.019 0.24-0.028 0.371-0.028 0.213 0 0.32 0.064 0.32 0.196 0 0.133-0.066 0.28-0.198 0.445l-3.368 4.277-3.418-4.477c-0.098-0.13-0.146-0.229-0.146-0.293 0-0.116 0.098-0.172 0.293-0.172 0.084 0 0.251 0.016 0.506 0.056 0.254 0.038 0.486 0.076 0.7 0.116h0.221 0.222c0.655 0 0.984-0.293 0.984-0.873 0-0.567-0.329-0.849-0.984-0.849-0.246 0-0.533 0.025-0.859 0.078-1.066 0.179-2.057 0.15-2.926 0.15-0.457 0-0.94-0.011-1.396-0.077-0.953-0.163-1.424-0.151-1.506-0.151-0.705 0-1.058 0.278-1.058 0.835 0 0.59 0.335 0.887 1.009 0.887h0.553 0.553c0.459 0 0.967 0.324 1.525 0.979l4.498 5.268-4.35 5.339c-0.574 0.707-0.996 1.156-1.269 1.361-0.271 0.205-0.593 0.306-0.971 0.306-0.098 0-0.249-0.014-0.455-0.037-0.204-0.025-0.356-0.037-0.454-0.037-0.102 0-0.182 0.021-0.268 0.036-0.012-0.038-0.022-0.067-0.035-0.107-0.359-1.055-5.279-28.993-6.02-30.016-0.701-0.968-1.945-0.715-2.334 0.211-0.426 1.019-5.973 28.434-6.345 29.573-0.489 1.501 0.272 2.096 0.557 2.11 1.508 0.071 2.593-2.82 3.454-3.883 1.354-1.678 2.406-2.789 3.605-4.033 0.946 1.493 1.82 2.566 3.186 4.243 0.821 1.012 2.357 3.726 3.82 3.608 0.125-0.011 0.254-6e-3 0.379-0.012 0.044 2e-3 0.076 0.014 0.121 0.014 0.215 0 0.5-0.032 0.861-0.096 0.902-0.164 1.813-0.247 2.731-0.247 0.802 0 1.605 0.074 2.407 0.221 0.443 0.083 0.763 0.122 0.961 0.122 0.623 0 0.935-0.294 0.935-0.885 0-0.572-0.361-0.86-1.083-0.86-0.164 0-0.369 4e-3 -0.615 0.017l-0.738 0.028-0.564 0.029h-0.051c-0.229 0-0.342-0.09-0.342-0.267 0-0.147 0.146-0.406 0.441-0.781l3.591-4.559 3.662 4.577c0.312 0.394 0.468 0.656 0.468 0.784 0 0.163-0.131 0.245-0.393 0.245h-0.934-0.838c-0.67 0-1.007 0.271-1.007 0.812 0 0.573 0.351 0.859 1.058 0.859 0.296 0 0.688-0.039 1.18-0.122 0.787-0.13 1.508-0.198 2.163-0.198 0.591 0 1.354 0.076 2.289 0.225 0.409 0.063 0.694 0.096 0.86 0.096 0.639 0 0.957-0.286 0.957-0.859 2e-3 -0.541-0.301-0.812-0.908-0.812zm-24.807-27.615c0.582 3.229 3.335 9.084-0.212 10.822-2.804-2.448 0.065-6.983 0.212-10.822zm-4.668 24.615c-0.057-2.039 0.908-4.889 1.273-7.216 0.949 0.605 1.5 1.615 2.123 2.549-0.874 1.812-2.444 2.932-3.396 4.667zm4.456-6.153c-0.293-0.07-1.873-2.372-2.76-3.608 0.386-1.099 0.483-2.487 0.85-3.607 0.899 0.516 1.675 2.147 2.122 2.122 0.446-0.023 1.393-1.577 2.124-2.333 2.187 3.921-2.042 7.495-2.336 7.426zm1.486 1.697c0.369-1.188 1.347-1.768 1.91-2.76 1.145 1.755 0.977 4.826 1.696 7.002-1.43-1.184-2.369-2.86-3.606-4.242z" fill="#fff"/>
			
			<path d="m61.41 45.14 2.044 10.551 2.57-12.97c0.213-1.128 0.771-1.696 1.67-1.696 0.947 0 1.511 0.498 1.695 1.497l2.494 13.343 2.121-10.351c0.148-0.731 0.224-1.286 0.224-1.669 0-0.683-0.35-1.022-1.048-1.022-0.148 0-0.365 0.016-0.647 0.049-0.283 0.031-0.5 0.049-0.649 0.049-0.715 0-1.072-0.29-1.072-0.873 0-0.565 0.35-0.846 1.048-0.846 0.265 0 0.541 0.016 0.823 0.05 1.362 0.166 2.261 0.248 2.693 0.248 0.332 0 0.827-0.049 1.484-0.15 0.656-0.098 1.15-0.147 1.482-0.147 0.616 0 0.924 0.298 0.924 0.898 0 0.549-0.3 0.82-0.897 0.82-0.101 0-0.251-0.021-0.45-0.061-0.199-0.041-0.35-0.063-0.448-0.063-0.349 0-0.603 0.133-0.761 0.399s-0.346 0.865-0.563 1.794l-2.791 11.898c-0.217 0.913-0.732 1.372-1.547 1.372-0.864 0-1.405-0.564-1.621-1.697l-2.519-13.193-2.769 13.542c-0.184 0.896-0.657 1.348-1.422 1.348-0.781 0-1.28-0.459-1.496-1.372l-2.968-12.422c-0.15-0.631-0.336-1.06-0.561-1.282-0.224-0.226-0.579-0.338-1.061-0.338h-0.174l-0.548 0.074c-0.533 0-0.799-0.275-0.799-0.835 0-0.59 0.292-0.884 0.874-0.884 0.232 0 0.499 0.023 0.798 0.073 0.897 0.15 1.771 0.225 2.619 0.225 0.398 0 1.314-0.082 2.744-0.248 0.248-0.034 0.491-0.05 0.723-0.05 0.599 0 0.897 0.272 0.897 0.821 0 0.6-0.366 0.897-1.096 0.897-0.15 0-0.379-0.018-0.686-0.049-0.309-0.033-0.537-0.049-0.686-0.049-0.582 0-0.872 0.271-0.872 0.821 0 0.201 0.024 0.434 0.074 0.698l0.15 0.8z" fill="#fff"/>
		
	

</svg>
