<?xml version="1.0" encoding="UTF-8"?>
<svg width="140.67px" height="169.08px" enable-background="new 0 0 140.672 169.085" version="1.1" viewBox="0 0 140.67 169.08" xml:space="preserve" xmlns="http://www.w3.org/2000/svg">

	<path d="m139.48 36.183c-9.69-49.251-78.181-33.929-78.181-33.929l-0.866 0.17s-69.188 11.766-59.502 61.017c7.643 38.842 69.865 109.86 92.286 105.45l0.802-0.157c22.425-4.411 53.102-93.707 45.461-132.55z" fill="#ED6425"/><g fill="#fff">
	<path d="m91.995 26.399c4.623-1.342 3.784 7.403 3.591 11.773-0.107 2.483 0.337 6.39-1.581 6.604-2.194 0.25-2.103-4.684-2.583-7.324-0.692-3.782-2.6-10.132 0.573-11.053z"/>
	<path d="m48.631 48.654c-0.686-3.761-3.368-7.342-3.733-10.912-0.391-3.84 1.949-4.669 2.156-7.61 0.392-5.647-5.764-9.678-10.769-8.759-2.378 0.433-3.483 2.185-3.736 4.881-0.42 4.497 0.109 9.156-0.575 13.212-0.568 3.385-2.016 10.435 1.005 11.054 2.888 0.593 3.674-2.438 4.021-4.596 0.331-2.047-0.258-6.667 2.011-6.744 2.218-0.082 3.576 5.055 4.165 6.458 0.818 1.957 2.269 6.773 4.309 6.462 1.186-0.183 1.385-2.138 1.146-3.446zm-9.189-16.367c-2.727 0.08-3.322-4.862-0.574-5.458 3.303-0.717 3.195 5.38 0.574 5.458z"/>
	<path d="m82.091 26.542c-1.579-0.877-6.2-1.495-8.474-1.293-4.136 0.368-3.341 4.848-3.016 8.47 0.198 2.216 0.82 6.071 0.573 8.474-0.129 1.251-0.627 2.6-0.573 3.302 0.159 2.125 1.81 4.542 4.165 4.738 1.983 0.168 3.863-0.997 5.457-1.866 1.432-0.781 3.397-2.047 4.307-3.158 4.572-5.589 2.602-15.863-2.439-18.667zm-3.734 18.158c-3.008 0.36-2.752-2.901-2.924-6.511-0.187-3.892-0.771-6.461 1.328-7.971 0.102-0.074 0.098-0.092 0.268-0.135 1.898-0.478 4.857 4.399 4.912 7.31 0.069 3.32-1.746 7.083-3.584 7.307z"/>
	<path d="m115.83 32.715c-0.546-5.107-4.522-9.964-9.479-9.189-1.371 0.214-2.274 0.613-3.014 1.292-4.115 3.777-3.504 19.022 1.004 21.536 3.456 1.929 7.874-0.124 9.479-2.439 1.9-2.739 2.398-7.592 2.01-11.2zm-7.756 7.755c-2.425-0.194-2.647-8.376-0.283-9.049 3.487-0.991 4.293 9.37 0.283 9.049z"/>
	<path d="m29.103 81.248c-1.968-1.739-2.509-4.236-3.876-6.75-0.925-1.693-2.521-6.05-4.737-5.741-1.42 0.197-1.403 2.986-1.578 4.45-0.251 2.074-1.228 5.338-3.88 3.734-1.476-0.889-1.059-4.389-0.718-7.61 0.533-5.034-1.428-11.462 2.587-12.062 2.856-0.428 4.187 1.934 5.313 3.735 0.757 1.215 1.749 2.615 2.583 3.877 1.351 2.043 3.658 6.86 6.03 6.748 1.88-0.09 2.941-3.153 3.59-4.737 0.911-2.222 1.525-4.147 2.585-5.6 0.895-1.229 2.542-2.925 4.741-2.442 3.074 0.669 2.561 7.007 3.012 10.338 0.386 2.845 1.9 10.391-1.435 10.48-3.613 0.101-1.44-7.535-4.451-7.896-1.853-0.22-2.929 2.529-3.734 4.309-1.334 2.946-1.772 5.609-6.032 5.167z"/>
	<path d="m129.47 69.189c-0.676-3.276 1.151-4.821 0.719-7.896-0.528-3.781-5.799-6.467-9.903-5.889-0.983 0.14-2.832 0.479-3.737 1.579-1.136 1.393-0.809 4.546-0.717 6.606 0.184 4.173-0.279 13.476 2.584 13.499 2.975 0.019 1.465-5.995 4.738-6.033 1.74-0.017 2.455 1.728 3.303 2.874 0.695 0.941 2.041 3.011 3.877 2.439 2.544-0.788-0.321-4.578-0.864-7.179zm-7.319-4.739c-2.825-0.434-2.053-5.007 0.574-5.457 3.859-0.657 3.29 6.045-0.574 5.457z"/>
	<path d="m84.818 54.972c-1.782 0.204-4.243 1.385-5.17 3.304-1.018 2.098-0.381 5.388-0.285 8.039 0.129 3.727-0.022 14.449 3.443 14.217 3.352-0.227 0.252-7.719 5.457-6.75 1.969 0.368 2.041 2.681 4.164 2.873 0.305-1.68-0.451-2.54-0.572-3.735-0.375-3.653 1.879-5.685 2.15-9.045 0.409-4.979-4.366-9.458-9.187-8.903zm0.286 11.202c-2.736-0.34-2.901-6.154 0-6.605 3.626-0.566 3.876 7.082 0 6.605z"/>
	<path d="m51.934 61.292c3.368-1.263 3.884 2.996 4.163 6.891 0.261 3.573 0.953 6.571 0.577 9.188-0.236 1.652-1.326 3.035-2.729 2.873-2.337-0.264-2.114-4.499-2.442-7.61-0.425-4.05-1.689-9.325 0.431-11.342z"/>
	<path d="m72.898 70.479c0.019-2.579 1.504-4.809 1.149-7.178-0.601-3.975-4.277-5.902-8.33-5.887-6.65 0.021-4.667 5.201-4.308 10.913 0.173 2.711 0.609 5.454 0.719 7.464 0.143 2.574-0.066 5.456 1.867 5.456 3.27 0 0.283-7.007 3.59-7.32 3.816-0.364 2.811 6.053 6.607 5.886 1.626-3.02-1.318-5.926-1.294-9.334zm-5.312-4.164c-2.305 0.082-2.66-3.876-0.286-4.308 2.78-0.503 2.67 4.224 0.286 4.308z"/>
	<path d="m108.65 57.556c-1.203-1.104-3.81-2.208-6.029-1.866-3.535 0.545-4.639 3.54-4.881 7.182-0.313 4.678 0.082 11.78 2.441 13.925 3.428 3.121 8.446-0.237 10.482-2.727 3.812-4.663 1.405-13.377-2.013-16.514zm-3.731 15.65c-4.08 0.461-3.825-9.594-0.717-10.193 2.95-0.568 4.034 9.821 0.717 10.193z"/>
	<path d="m113.68 111.4c-2.918 0.479-4.08-1.226-5.742-2.582-1.371-1.12-3.557-3.516-5.315-3.303-2.765 0.33-0.974 6.142-4.021 6.462-4.183 0.432-3.496-7.881-3.592-12.637-0.07-3.735-1.645-10.135 1.438-10.77 3.049-0.635 2.605 3.359 4.884 3.59 2.237 0.225 3.785-3.236 6.172-3.59 4.556-0.681 3.69 3.856 1.724 6.029-1.238 1.365-3.367 2.37-3.443 4.311-0.107 2.688 3.354 4.338 5.168 5.885 1.929 1.647 4.747 3.244 2.727 6.605z"/>
	<path d="m77.928 87.281c-2.644 0.387-4.861 1.932-5.029 5.454-0.144 3.05 0.621 6.293 1.009 10.916 0.36 4.378-0.316 11.122 4.163 10.626 2.803-0.313 1.918-5.063 4.021-5.314 2.652-0.317 2.879 4.174 5.742 3.59 2.969-0.602-0.447-6.379-0.434-7.752 0.031-2.441 1.899-4.682 2.156-7.18 0.693-6.776-4.609-11.37-11.628-10.34zm3.733 12.062c-2.726-0.117-3.529-8.317-0.435-8.902 3.858-0.733 5.07 9.096 0.435 8.902z"/>
	<path d="m66.723 39.607c-0.634-1.597-1.33-3.183-2.154-4.882-1.347-2.78-2.699-7.364-5.313-8.614-6.426-3.081-5.534 6.193-6.03 11.484-0.25 2.672-1.253 9.487 1.004 9.622 1.074 0.065 1.838-1.681 2.586-2.442 0.758-0.767 1.992-1.859 3.302-1.864 3.278-0.015 5 5.941 8.188 2.009 0.072-2.123-0.944-3.712-1.583-5.313zm-7.912 0.708c-2.238-0.096-2.894-6.824-0.356-7.305 3.165-0.599 4.159 7.464 0.356 7.305z"/>
	<path d="m68.449 106.38c-2.163-4.299-4.249-7.909-6.319-12.348-1.351-2.906-2.472-6.597-6.032-6.177-3.29 0.386-3.505 5.422-4.163 9.19-0.651 3.732-1.239 6.725-1.435 9.619-0.205 3.045 0.373 6.033 2.298 6.033 1.645 0 2.14-2.225 2.871-3.592 0.778-1.453 1.835-2.699 3.733-2.729 5.386-0.082 4.022 7.98 10.195 7.033 1.371-2.393-0.183-5.109-1.148-7.029zm-10.608-3.713c-2.235-0.097-2.893-6.826-0.356-7.306 3.165-0.6 4.16 7.465 0.356 7.306z"/>
	<path d="m37.287 87.71c-1.882 0.15-4.016 0.822-5.023 2.01-2.304 2.726-0.754 9.322-0.144 14.359 0.412 3.391 0.688 9.361 3.733 8.903 2.039-0.308 1.441-3.491 2.154-5.457 0.83-2.303 3.503-2.899 5.454-4.595 1.57-1.362 3.325-4.436 3.162-7.609-0.223-4.29-4.738-7.978-9.336-7.611zm1.504 11.538c-2.138-0.281-2.871-4.856-0.589-5.662 3.734-1.322 4.463 6.165 0.589 5.662z"/>
</g>
</svg>
