<?xml version="1.0" encoding="UTF-8"?>
<svg enable-background="new 0 0 160 160" version="1.1" viewBox="0 0 160 160" xml:space="preserve" xmlns="http://www.w3.org/2000/svg"><defs><clipPath id="clipPath18"><circle cx="80" cy="80" r="80" fill="none" stroke-linecap="round" stroke-linejoin="round" stroke-width="3.366"/></clipPath></defs>
<circle cx="80" cy="80" r="80" stroke-linecap="round" stroke-linejoin="round" stroke-width="3.366"/>
	
		
		
		
		
		<g clip-path="url(#clipPath18)"><path d="m123.48 128.34-43.229-76.47-45.742 77.003h-34.506v10.487h37.917l42.297-69.705 39.312 69.686h40.474v-10.985z" clip-path="none" fill="#3fedff"/><path d="m80.405 38.03-49.903 83.874h-30.502v11.049h34.511l45.742-76.877 43.229 76.346h36.518v-11.053h-32.406z" clip-path="none" fill="#f5ff1f"/><path d="m30.502 125.9 49.903-83.87 47.187 83.336h32.408v-6.166h-28.297l-51.302-90.75-54.014 91.124h-26.387v6.326h30.502z" clip-path="none" fill="#ff3f76"/></g>
		
		
	<g fill="#FF3F76">
	<path d="m28.656 59.619c-1.229-1.385-3.899-2.472-8.011-3.264-1.667-0.311-2.5-0.996-2.5-2.056 0-1.003 0.763-1.504 2.289-1.504 1.639 0 3.765 0.593 6.379 1.778l2.521-6.611c-2.967-1.468-5.813-2.204-8.54-2.204-3.829 0-6.863 0.929-9.102 2.788-2.24 1.857-3.359 4.339-3.359 7.447 0 2.063 0.696 3.742 2.087 5.033 1.391 1.293 3.648 2.236 6.771 2.829 1.681 0.325 2.772 0.615 3.274 0.869 0.501 0.255 0.752 0.657 0.752 1.208 0 0.65-0.3 1.178-0.9 1.579-0.601 0.403-1.402 0.604-2.406 0.604-1.257 0-2.464-0.25-3.623-0.752-1.159-0.501-2.606-1.479-4.344-2.936l-2.226 7.1c3.375 2.642 6.979 3.962 10.808 3.962 3.489 0 6.356-0.984 8.603-2.957 2.247-1.97 3.369-4.473 3.369-7.511 2e-3 -2.216-0.613-4.018-1.842-5.402z"/>
	<path d="m43.438 65.934h4.917c3.885 0 6.598-0.911 8.137-2.733 1.541-1.824 2.31-4.154 2.31-6.995 0-3.092-0.844-5.491-2.532-7.194-1.688-1.701-4.065-2.553-7.131-2.553h-15.406v28.333h9.705v-8.858zm0-12.673h2.014c1.032 0 1.835 0.265 2.416 0.794 0.579 0.53 0.87 1.268 0.87 2.216 0 1.935-1.145 2.901-3.434 2.901h-1.865v-5.911z"/>
	<path d="m118.59 75.394c2.29 0 4.593-0.521 6.911-1.568v-9.197c-2.05 0.862-3.702 1.294-4.958 1.294-1.979 0-3.509-0.488-4.59-1.464-1.08-0.974-1.62-2.352-1.62-4.132s0.536-3.164 1.61-4.152c1.073-0.99 2.579-1.485 4.513-1.485 1.469 0 3.151 0.431 5.044 1.293v-8.984c-2.317-0.918-4.466-1.377-6.444-1.377-4.336 0-7.887 1.394-10.647 4.184-2.763 2.791-4.145 6.37-4.145 10.735 0 4.337 1.346 7.896 4.039 10.68 2.692 2.782 6.121 4.173 10.287 4.173z"/>
	<polygon points="148.34 67.702 139.23 67.702 139.23 64.015 147.34 64.015 147.34 57.021 139.23 57.021 139.23 53.335 148.34 53.335 148.34 46.362 129.52 46.362 129.52 74.694 148.34 74.694"/>
	</g>
		<g fill="#fff">
			<path d="m60.954 127.84 0.278-0.417c-0.495 0.299-0.984 0.567-1.469 0.804-0.969 0.495-1.654 0.742-2.056 0.742-0.64 0-0.959-0.407-0.959-1.222 0-0.557 0.289-0.938 0.866-1.144 1.021-0.361 2.02-0.809 3-1.345l2.087-1.175c0.33-0.175 0.624-0.263 0.881-0.263 0.402 0 0.742 0.237 1.021 0.711 0.288 0.443 0.433 0.845 0.433 1.206 0 0.319-0.083 0.629-0.247 0.928-0.382 0.711-0.876 1.521-1.484 2.427-0.547 0.814-1.093 1.716-1.639 2.706-0.598 1.062-1.16 2.118-1.686 3.169-0.505 1.031-0.907 1.912-1.206 2.644-0.269 0.711-0.479 1.165-0.634 1.361-0.165 0.227-0.397 0.34-0.696 0.34-0.412 0-0.757-0.154-1.036-0.464-0.289-0.288-0.433-0.644-0.433-1.067 0-0.443 0.129-1 0.387-1.669 0.299-0.752 0.742-1.696 1.33-2.83 0.587-1.083 1.177-2.113 1.771-3.093 0.591-0.977 1.089-1.761 1.491-2.349z"/>
			<path d="m72.245 124.37c1.443 0.546 2.165 1.758 2.165 3.634 0 0.804-0.114 1.639-0.34 2.504-0.216 0.835-0.562 1.748-1.036 2.737-0.443 0.907-0.969 1.784-1.577 2.629-1.783 2.402-3.556 3.603-5.319 3.603-0.67 0-1.278-0.17-1.824-0.51-0.547-0.319-0.979-0.789-1.299-1.407-0.31-0.608-0.464-1.283-0.464-2.025 0-1.041 0.216-2.17 0.649-3.386 0.412-1.185 1.021-2.371 1.824-3.556 0.402-0.598 0.82-1.144 1.252-1.639 0.433-0.495 0.928-0.995 1.484-1.5 0.639-0.598 1.314-1.113 2.025-1.546 0.66-0.412 1.165-0.619 1.516-0.619 0.496-1e-3 0.81 0.36 0.944 1.081zm-1.886 2.412h-0.294c-0.876 0.763-1.644 1.603-2.304 2.52-0.701 0.969-1.237 1.917-1.608 2.845-0.402 0.958-0.603 1.809-0.603 2.551 0 0.577 0.103 1.031 0.309 1.361s0.484 0.495 0.835 0.495c0.763 0 1.66-0.727 2.69-2.18 0.495-0.701 0.902-1.392 1.222-2.072 0.36-0.773 0.639-1.495 0.835-2.165 0.186-0.701 0.278-1.299 0.278-1.793 0-0.464-0.124-0.84-0.371-1.128-0.247-0.289-0.577-0.434-0.989-0.434z"/>
			<path d="m81.434 130.28c0.814 0.526 1.222 1.345 1.222 2.458 0 1.145-0.33 2.263-0.99 3.355-0.319 0.536-0.701 1.036-1.144 1.5s-0.912 0.866-1.407 1.206c-1.041 0.701-2.087 1.052-3.139 1.052-1.031 0-1.907-0.33-2.628-0.99-0.742-0.649-1.113-1.417-1.113-2.304 0-0.598 0.17-1.113 0.51-1.546s0.752-0.649 1.237-0.649c0.319 0 0.598 0.104 0.835 0.31 0.227 0.196 0.34 0.448 0.34 0.757 0 0.155-5e-3 0.258-0.016 0.31-0.021 0.309-0.031 0.448-0.031 0.417 0 0.319 0.098 0.582 0.294 0.788 0.206 0.217 0.443 0.325 0.711 0.325 0.381 0 0.825-0.206 1.33-0.618 0.515-0.402 0.963-0.912 1.345-1.531 0.546-0.855 0.82-1.608 0.82-2.257 0-0.361-0.093-0.649-0.278-0.866-0.196-0.216-0.464-0.325-0.804-0.325h-0.108c-0.031 0.011-0.087 0.016-0.17 0.016-0.031 0-0.069 2e-3 -0.116 8e-3s-0.085 0.013-0.116 0.023c-0.052 0.011-0.149 0.016-0.294 0.016-0.278 0-0.5-0.098-0.665-0.294-0.186-0.186-0.278-0.422-0.278-0.711 0-0.361 0.118-0.66 0.355-0.897 0.217-0.216 0.593-0.422 1.129-0.619 1.041-0.35 1.773-0.675 2.195-0.974 0.412-0.289 0.619-0.619 0.619-0.99 0-0.227-0.083-0.407-0.248-0.541s-0.376-0.201-0.634-0.201c-0.381 0-0.763 0.098-1.144 0.294l-1.222 0.634c-0.216 0.103-0.423 0.155-0.618 0.155-0.289 0-0.516-0.098-0.681-0.294-0.186-0.186-0.278-0.417-0.278-0.696 0-0.443 0.242-0.892 0.727-1.345 0.464-0.433 1.092-0.799 1.886-1.098 0.773-0.278 1.566-0.417 2.381-0.417 0.588 0 1.108 0.119 1.562 0.355 0.443 0.227 0.798 0.557 1.067 0.99 0.247 0.433 0.371 0.917 0.371 1.453 1e-3 1.474-0.938 2.721-2.814 3.741z"/>
			<path d="m83.139 138.94c0-0.67 0.221-1.262 0.665-1.778 0.454-0.526 0.948-0.789 1.484-0.789 0.351 0 0.639 0.124 0.866 0.371 0.216 0.247 0.325 0.567 0.325 0.958 0 0.67-0.222 1.273-0.665 1.809-0.443 0.557-0.933 0.835-1.469 0.835-0.361 0-0.649-0.134-0.866-0.402-0.227-0.256-0.34-0.591-0.34-1.004z"/>
			<path d="m94.895 136.06c0.608-0.093 1.175-0.139 1.701-0.139 1.722 0 2.583 0.531 2.583 1.592 0 0.351-0.114 0.67-0.34 0.958-0.237 0.299-0.495 0.449-0.773 0.449-0.052 0-0.165-0.026-0.34-0.078-0.711-0.237-1.263-0.355-1.654-0.355-1.206 0-2.871 0.361-4.994 1.083-0.268 0.093-0.474 0.139-0.619 0.139-0.319 0-0.624-0.191-0.912-0.572-0.248-0.33-0.371-0.624-0.371-0.881 0-0.422 0.345-0.964 1.036-1.624 0.299-0.278 0.794-0.721 1.484-1.33 0.402-0.351 1.057-0.892 1.964-1.624 0.711-0.567 1.211-0.964 1.5-1.19 0.845-0.66 1.613-1.258 2.304-1.794 0.866-0.69 1.494-1.273 1.886-1.747 0.34-0.422 0.51-0.83 0.51-1.221 0-0.299-0.077-0.516-0.232-0.649-0.165-0.145-0.376-0.217-0.634-0.217-0.31 0-0.619 0.072-0.928 0.217-0.278 0.134-0.696 0.407-1.252 0.819-0.784 0.618-1.33 0.928-1.639 0.928-0.237 0-0.448-0.103-0.634-0.31-0.186-0.206-0.278-0.448-0.278-0.727 0-0.392 0.17-0.804 0.51-1.237 0.309-0.412 0.763-0.819 1.36-1.222 0.567-0.371 1.18-0.665 1.84-0.881 0.649-0.206 1.268-0.309 1.855-0.309 0.608 0 1.169 0.134 1.685 0.402 0.495 0.248 0.892 0.614 1.191 1.098 0.278 0.464 0.417 0.984 0.417 1.562s-0.129 1.16-0.387 1.747c-0.258 0.598-0.629 1.155-1.113 1.67-0.34 0.371-0.84 0.84-1.5 1.407-0.608 0.495-1.525 1.196-2.752 2.103-0.98 0.731-1.805 1.376-2.474 1.933z"/>
		</g>
	

</svg>
