<?xml version="1.0" encoding="UTF-8"?>
<svg width="193.06px" height="126.19px" enable-background="new 0 0 193.061 126.188" version="1.1" viewBox="0 0 193.06 126.19" xml:space="preserve" xmlns="http://www.w3.org/2000/svg">

	
		<g fill="#231F20">
			<path d="m114.6 98.729c0.459 0.069 0.938 0.202 1.317 0.312l0.036 8e-3c0.382 0.104 0.777 0.213 1.141 0.269 0.168 0.022 0.311 0.035 0.452 0.035h0.046c0.313-9e-3 0.696-0.129 1.065-0.246 0.594-0.187 1.272-0.399 2.117-0.373 0.093-0.054 0.188-0.116 0.284-0.183 0.355-0.233 0.755-0.498 1.332-0.639l0.097-0.023c0.028-8e-3 0.056-8e-3 0.082-4e-3l0.105 0.012c0.218 0.023 0.4 0.047 0.563 0.07 0.558 0.086 0.97 0.191 1.289 0.338 0.688-0.158 1.462-0.182 2.203-0.073 0.648 0.097 1.245 0.302 1.757 0.578l0.788-17.981c0.017-0.334-0.136-0.83-0.331-1.099l-3.301-4.543c-0.195-0.269-0.631-0.502-0.961-0.519l-28.095-1.227c0.198 0.689 0.723 1.529 1.741 2.178 0.016 8e-3 0.025 0.02 0.038 0.025l0.112-0.016c0.057-4e-3 0.108-8e-3 0.159-8e-3 0.401 0 0.85 0.155 1.328 0.459 0.472 0.305 0.91 0.713 1.175 1.094 0.247 0.113 0.468 0.234 0.679 0.371 0.707 0.451 1.133 0.965 1.505 1.42 0.348 0.425 0.68 0.83 1.247 1.191 0.097 0.063 0.198 0.12 0.304 0.176l0.108 0.063c0.057 0.025 0.105 0.074 0.142 0.128l0.062 0.099c0.028 0.039 0.071 0.09 0.117 0.144 8e-3 0.011 0.017 0.022 0.025 0.034 0.066-0.023 0.14-0.037 0.216-0.034l6.742 0.296c0.33 0.014 0.77 0.242 0.978 0.503l0.494 0.627c0.205 0.261 0.356 0.75 0.347 1.082l-0.679 15.479c0.359-0.063 0.737-0.085 1.174-0.023z"/>
			<path d="m142.94 71.57c0.207 0.262 0.65 0.45 0.982 0.428l13.194-1.023c0.33-0.025 0.735-0.288 0.896-0.579l1.623-2.963c0.161-0.292 0.104-0.731-0.116-0.981l-1.996-2.191c-0.227-0.248-0.429-0.723-0.455-1.055l-0.845-10.88c-5.882 0.048-10.223 9.519-10.266 9.616-0.032 0.074-0.118 0.104-0.191 0.077-0.074-0.027-0.117-0.109-0.089-0.188 0.097-0.314 2.421-7.73 4.496-8.279 0.438-0.112 0.739-0.348 0.897-0.689 0.358-0.783-0.108-1.927-0.226-2.184-0.06-0.017-0.171-0.04-0.225-0.051-0.353-0.074-1.046-0.218-1.128-0.806-0.025-8e-3 -0.05-0.02-0.075-0.027-0.904-0.323-2.021-0.72-2.609-2.122l-0.584-1.396-0.125 0.144c-0.026 0.031-0.057 0.05-0.096 0.055l-0.344 0.042c-0.197 0.024-0.394 0.043-0.592 0.067l-0.146 0.015c-1.163 0.121-2.268 0.242-3.57 0.833l1.313 16.892c0.021 0.334-0.102 0.832-0.284 1.112l-1.619 2.472c-0.179 0.281-0.159 0.721 0.048 0.98l2.132 2.681z"/>
			<path d="m135.17 69.515 3.395-4.51c0.198-0.264 0.351-0.754 0.339-1.088l-0.514-11.698c-0.017-0.335-0.3-0.593-0.634-0.581l-13.021 0.573c-0.339 0.302-0.705 0.582-1.118 0.844-0.014 8e-3 -0.023 0.013-0.034 0.02l0.359 8.28c0.018 0.335-0.128 0.828-0.314 1.104l-0.439 0.636c-0.19 0.272-0.619 0.51-0.95 0.524l-5.925 0.26c-0.333 0.018-0.78-0.178-1.003-0.432l-0.526-0.607c-0.219-0.252-0.408-0.731-0.424-1.063l-0.065-1.498c-0.382 0.411-0.802 0.803-1.302 1.112-0.433 0.269-0.883 0.456-1.343 0.553-0.308 0.472-0.867 0.845-1.172 1.052l-0.093 0.063c-0.475 0.33-1.125 0.583-1.651 0.781l-0.136 0.056c-0.179 0.159-0.327 0.326-0.499 0.521l-0.025 0.026c-0.289 0.331-0.649 0.744-1.237 1.146 0 0-0.039 0.022-0.039 0.027-0.316 0.19-0.627 0.291-0.931 0.291-0.228 0-0.401-0.054-0.519-0.09-0.013-4e-3 -0.027-0.011-0.043-0.016-0.422 0.285-0.828 0.605-1.315 0.984l-0.033 0.024c-0.555 0.437-1.131 0.888-1.754 1.276-0.189 0.117-0.369 0.211-0.555 0.31l2.248 2.493c0.223 0.244 0.678 0.438 1.008 0.42l29.294-1.288c0.334-0.011 0.769-0.241 0.971-0.505z"/>
			<path d="m168.92 46.399c-0.183-0.276-0.219-0.755-0.083-1.063l0.812-1.825c-0.045 0.048-0.112 0.066-0.176 0.038l-0.16-0.082c-0.226 0.164-0.463 0.312-0.688 0.46l-0.111 0.069c-0.479 0.304-0.917 0.584-1.275 0.911-0.202 0.188-0.455 0.596-0.696 0.989-0.14 0.229-0.287 0.463-0.448 0.696-0.08 0.125-0.162 0.245-0.244 0.361l-0.097 0.142c-0.702 1.012-1.207 1.74-1.134 2.619l0.025 0.261c6e-3 0.047-0.014 0.094-0.05 0.129l-0.268 0.237c-0.723 0.642-1.153 1.343-1.398 2.277l-0.069 0.265c-0.02 0.07-0.09 0.116-0.158 0.112-0.151-0.017-3.211-0.286-4.844-0.5l6.407 11.084c0.168 0.289 0.125 0.729-0.093 0.98l-1.468 1.693c-0.215 0.252-0.225 0.67-0.014 0.931l2.196 2.683c0.209 0.26 0.653 0.447 0.983 0.424l13.578-1.056c0.336-0.026 0.738-0.284 0.899-0.575l1.669-2.972c0.159-0.291 0.093-0.711-0.15-0.938l-2.268-2.082c-0.24-0.227-0.591-0.639-0.771-0.918l-9.906-15.35z"/>
			<path d="m169.68 43.44 0.188-0.417c-0.091 0.078-0.166 0.155-0.271 0.234l0.049 0.043c0.036 0.04 0.044 0.091 0.034 0.14z"/>
			<path d="m134.98 34.928c0 0.961-0.04 1.141-0.245 1.141-0.052 0-0.091-0.02-0.121-0.043l-0.047 0.093c-0.021 0.16-0.059 0.34-0.107 0.558 0 0.101 0.011 0.206 0.02 0.319 0.023 0.284 0.043 0.553 0.017 0.825-0.024 0.28-0.099 0.541-0.16 0.774-0.05 0.179-0.112 0.413-0.112 0.525 0.012 0.226 0.043 0.443 0.078 0.661 7e-3 0.062 0.017 0.124 0.024 0.187l2.918-0.127c0.33-0.017 0.592-0.3 0.58-0.635l-0.494-11.183c0.065 0.076 0.193 0.221 0.351 0.391l1.999 2.217c0.224 0.248 0.426 0.724 0.452 1.054l1.065 13.738c0.026 0.01 0.056 0.017 0.082 0.027 1.203-0.62 2.153-0.686 2.99-0.744l0.086-4e-3c0.17-0.016 0.33-0.027 0.493-0.043 0.409-0.287 0.802-0.553 1.177-0.786 1.017-0.638 1.739-0.899 2.44-1.148 1.269-0.451 2.362-0.841 4.87-3.418 0.896-0.922 0.777-2.616 0.652-4.406-0.115-1.736-0.24-3.527 0.481-4.947 0.07-0.138 0.163-0.243 0.265-0.332 0.026-0.059 0.053-0.119 0.082-0.167l1.637-2.498c0.184-0.276 0.329-0.507 0.322-0.507 7e-3 0-0.154-0.218-0.361-0.479l-2.053-2.655c-0.205-0.264-0.645-0.455-0.977-0.432l-13.196 1.027c-0.33 0.024-0.739 0.28-0.906 0.568l-1.709 2.959c-0.11 0.189-0.201 0.35-0.25 0.442l-0.015-0.318c-0.016-0.33-0.207-0.81-0.429-1.059l-3.787-4.239c-0.222-0.249-0.673-0.44-1.009-0.428l-6.81 0.3c3.724 1.581 9.707 5.289 9.707 12.792z"/>
			<path d="m161.35 28.123c0.252 0.218 0.357 0.65 0.241 0.962l-5.757 14.882c-0.121 0.308-0.237 0.291-0.267-0.039l-0.281-3.63c-0.086 0.078-0.173 0.155-0.264 0.239-1.518 1.386-2.731 2.449-3.395 2.471-0.073 0.103-0.175 0.23-0.327 0.358l-0.053 0.043c-0.066 0.051-0.122 0.086-0.177 0.121-0.279 0.175-0.561 0.269-0.841 0.269-0.16 0-0.293-0.031-0.395-0.063-0.187 0.129-0.366 0.25-0.552 0.366-0.319 0.198-0.616 0.37-0.967 0.568-0.276 0.156-0.538 0.3-0.777 0.456-0.241 0.151-0.443 0.292-0.627 0.443l1.443 1.428c0.653 0.659 1.327 1.336 2.148 1.336l0.412-4e-3c0.036 0 0.079 0.016 0.109 0.047 0.027 0.026 0.043 0.065 0.043 0.108l-5e-3 0.34c0.06 0.038 0.086 0.112 0.063 0.182 0.039 0.02 0.089 0.039 0.147 0.063 0.233 0.094 0.576 0.234 0.817 0.588l0.653 0.98 0.738-0.431c0.479-0.285 1.036-0.433 1.644-0.433 0.37 0 0.676 0.053 0.897 0.106l-2e-3 -0.036c-0.027-0.331 0.09-0.366 0.258-0.078l0.142 0.245c0.222 0.106 0.325 0.265 0.371 0.39 0.165-0.027 0.31-0.023 0.437 0.012 0.138 0.043 0.296 0.132 0.362 0.347 0.354 0.026 0.854-0.043 1.328-0.109l0.03-4e-3c0.358-0.051 0.763-0.105 1.188-0.137l0.23-0.015c0.046-4e-3 0.086 0.015 0.115 0.042l0.125 0.129c0.123 0.124 0.287 0.214 0.462 0.312 0.057 0.031 0.118 0.066 0.177 0.101 0.596-0.606 0.844-1.327 1.113-2.086 0.144-0.425 0.322-0.942 0.587-1.429 0.219-0.405 0.482-0.778 0.714-1.109 0.389-0.542 0.72-1.012 0.82-1.507l0.063-0.28c7e-3 -0.043 0.03-0.077 0.064-0.098l0.348-0.214c3.534-1.436 4.546-4.729 4.559-4.761 8e-3 -0.031 0.027-0.058 0.05-0.077 0.688-0.529 1.262-1.194 1.732-1.779l0.075-0.09c0.076-0.093 0.162-0.194 0.252-0.3 0.313-0.373 0.738-0.883 0.962-1.257 0.097-0.163 0.159-0.354 0.222-0.561 0.14-0.46 0.323-1.061 0.97-1.646l0.25-0.228 2.229-5.016c0.136-0.305 0.416-0.768 0.622-1.029l1.916-2.428c0.207-0.261 0.207-0.689 0-0.95l-2.1-2.655c-0.206-0.26-0.648-0.455-0.979-0.428l-13.577 1.051c-0.332 0.028-0.741 0.285-0.913 0.569l-1.751 2.97c-0.172 0.288-0.101 0.7 0.151 0.914l1.728 1.469z"/>
			<path d="m112.53 50.86c-0.043-0.027-0.078-0.055-0.111-0.086-0.425-0.015-0.854-0.02-1.237-0.022-0.551-5e-3 -1.049-9e-3 -1.534-0.035-0.554-0.031-1.354-0.105-2.056-0.374-0.071 0.016-0.141 0.027-0.218 0.043-0.396 0.077-0.869 0.171-1.569 0.128-0.191-0.011-0.393-0.031-0.597-0.058l-0.162-0.036c-0.871-0.221-1.933-0.357-2.951-0.489-1.06-0.136-2.129-0.286-3.123-0.519l0.714 16.229c0.017 0.335 0.211 0.81 0.433 1.06l0.584 0.647c1.526-1.187 3.048-2.278 4.17-2.979 0.05-0.039 0.093-0.07 0.139-0.097 0.426-0.267 0.812-0.3 1.138-0.112 1.09-1.08 2.125-1.693 3.422-2.469l0.151-0.091c0.343-0.206 0.702-0.42 1.095-0.665l0.112-0.07c1.521-1.133 2.19-1.774 3.223-2.892 0-5e-3 -3e-3 -8e-3 -7e-3 -0.013-0.036-0.057-0.032-0.131 0.016-0.187l0.023-0.027-0.289-6.584-0.361-0.024c-0.312-0.025-0.704-0.075-1.005-0.278z"/>
			<path d="m99.947 47.758c1.017 0.288 1.978 0.561 3.337 0.639 0.227 0.012 0.464 0.02 0.7 0.02h0.237c0.047 4e-3 0.09 0.012 0.133 0.026l0.198 0.074c0.096 0.036 0.229 0.07 0.369 0.109l0.036 0.013c0.303 0.081 0.613 0.17 0.895 0.299 0.183 8e-3 0.308-0.019 0.53-0.066 0.271-0.063 0.641-0.151 1.175-0.151l0.207 4e-3c0.03 0 0.064 3e-3 0.097 0.011l0.164 0.048c0.948 0.257 2.097 0.338 3.194 0.4l1.188 0.066c0.5 0.028 0.961 0.063 1.406 0.103l-0.776-17.612c-0.012-0.33 0.142-0.821 0.34-1.09l0.459-0.607c0.198-0.268 0.636-0.498 0.97-0.514l5.924-0.262c0.333-0.01 0.782 0.185 1 0.434l0.477 0.556c0.214 0.253 0.404 0.729 0.421 1.063l0.377 8.537c0.013 0.335 0.3 0.596 0.63 0.581l8.845-0.387c-0.038-0.229-0.067-0.456-0.061-0.681 0.02-0.635 0.201-1.292 0.376-1.927l0.017-0.059c0.046-0.164 0.089-0.322 0.132-0.482 4e-3 -0.133 0.012-0.254 0.036-0.369 0.019-0.109 0.055-0.234 0.112-0.386-4e-3 -4e-3 0-0.036 0-0.063 0.02-0.308-0.066-0.607-0.157-0.923-0.084-0.3-0.188-0.669-0.188-1.086 0-0.195 0.015-0.26 0.04-0.358 0.021-0.101 0.061-0.257 0.096-0.848 0.327-5.413-5.833-9.154-8.904-10.676l-21.187 0.933c-0.33 0.015-0.767 0.244-0.964 0.513l-3.398 4.559c-0.2 0.269-0.352 0.759-0.339 1.094l0.8 18.183c0.359 0.089 0.713 0.185 1.056 0.282z"/>
			<path d="m178.13 87.027c0.073 0.064 0.172 0.18 0.226 0.344 0.043-0.013 0.089-0.021 0.136-0.031 0.409-0.094 0.856-0.19 1.353-0.211 0.782-0.424 1.534-0.782 2.2-1.102 0.93-0.439 1.809-0.857 2.764-1.43 0.14-0.188 0.291-0.366 0.437-0.54l0.026-0.032c0.05-0.063 0.096-0.123 0.147-0.182l-1.024-0.344c-1.568-0.529-1.782-1.963-1.922-2.908-0.031-0.205-0.071-0.438-0.114-0.631l-0.218-0.729-0.039-0.063c-0.05-0.082-0.069-0.176-0.054-0.269-0.168-0.639-0.214-1.354 0.409-2.251l0.136-0.754c0.036-0.172 0.179-0.305 0.357-0.313 0.141-4e-3 0.266 0.059 0.334 0.168l1.827-2.053-25.961-1.412c-0.336-0.021-0.791 0.168-1.017 0.412l-3.826 4.204c-0.225 0.245-0.425 0.72-0.441 1.052l-1.294 23.769c0.198 0.163 0.392 0.33 0.575 0.507l0.16 0.154c0.265-0.311 0.58-0.602 1.011-0.848 0.332-0.19 0.698-0.357 1.009-0.49 0.61-0.992 2.598-2.608 3.669-3.228 0.186-0.108 0.365-0.198 0.521-0.269 0.623-0.27 1.225-0.305 1.755-0.332 0.42-0.021 0.802-0.047 1.105-0.172 0.396-0.162 0.798-0.424 1.138-0.656 0.201-0.145 0.427-0.297 0.673-0.439 0.3-0.172 0.591-0.301 0.884-0.387 8e-3 -0.02 0.017-0.038 0.023-0.059 0.116-0.299 0.313-0.803 0.95-1.233l0.316-0.219c0.096-0.062 0.207-0.081 0.316-0.054l0.311 0.086c0.082 0.02 0.082 0.054 0.306-0.078 0.166-0.096 0.37-0.256 0.571-0.42l0.64-11.725c0.018-0.332 0.218-0.808 0.442-1.049l0.515-0.564c0.226-0.244 0.681-0.432 1.017-0.416l5.921 0.322c0.33 0.021 0.764 0.258 0.953 0.53l0.416 0.599c0.195 0.273 0.336 0.768 0.316 1.1l-0.245 4.472c0.124 0.055 0.225 0.115 0.29 0.174z"/>
			<path d="m91.033 99.57c0.043 0.088 0.047 0.098 0.093 0.129 0.093 0.063 0.39 0.131 0.604 0.182 0.34 0.082 0.684 0.16 0.997 0.315 0.229 0.112 0.373 0.271 0.479 0.382 0.03 0.031 0.059 0.063 0.082 0.082 0.293 0.104 0.738 0.198 1.168 0.291 0.548 0.117 1.102 0.241 1.55 0.404 0.291 0.109 0.494 0.229 0.66 0.328 0.047 0.027 0.142 0.081 0.172 0.089 0.098-3e-3 0.189-0.097 0.357-0.304 0.07-0.086 0.148-0.176 0.237-0.262l0.155-0.144c0.047-0.046 0.116-0.069 0.183-0.06l0.257 0.031c0.954 0.121 1.541-0.136 2.15-0.576l0.166-0.119c0.046-0.037 0.108-0.047 0.171-0.039l0.241 0.039c0.375 0.068 0.518-4e-3 0.877-0.254 0.104-0.073 0.198-0.141 0.3-0.198l0.191-0.117c0.054-0.034 0.119-0.042 0.182-0.026l0.254 0.078c0.462 0.133 0.802 0.361 1.103 0.563 0.146 0.102 0.275 0.188 0.402 0.257l0.803-18.298c-0.014-8e-3 -0.024-0.012-0.037-0.02-0.096-0.06-0.188-0.129-0.276-0.207l-0.036-0.027c-7e-3 -8e-3 -0.018-0.02-0.025-0.026l-0.023-0.026c-0.308-0.351-0.72-0.679-1.155-1.021-0.722-0.572-1.461-1.159-1.886-1.936-0.162-0.072-0.314-0.158-0.466-0.256-0.441-0.281-0.77-0.601-1.082-0.904-0.277-0.271-0.53-0.518-0.831-0.707-0.101-0.063-0.201-0.121-0.312-0.168l-0.193 0.022c-0.416 0.056-0.85-0.051-1.25-0.308-0.409-0.256-0.703-0.618-0.993-0.965l0.272-0.271-0.293 0.242c-0.175-0.206-0.355-0.425-0.491-0.524l-0.165-0.113c-0.089-0.069-0.151-0.176-0.155-0.285l-0.012-0.162c-9e-3 -0.104-0.095-0.271-0.163-0.426-0.114-0.233-0.246-0.543-0.282-0.887l-3.653-0.158c-0.332-0.018-0.768 0.189-0.97 0.453l-2.052 2.734c-0.198 0.264-0.207 0.703-0.017 0.977l1.719 2.444c0.193 0.272 0.338 0.767 0.32 1.101l-0.207 4.738c0 4e-3 6e-3 6e-3 6e-3 8e-3l0.726 4.832c0.194 0.197 0.284 0.443 0.248 0.692-0.034 0.256-0.191 0.501-0.455 0.72-0.918 2.063-0.338 4.139 0.082 5.659 0.248 0.892 0.425 1.515 0.233 1.907 0.016 0.036 0.027 0.067 0.04 0.095z"/>
			<path d="m188.48 73.894c-2.68 0.988-4.069 3.793-4.335 4.593 0.262 0.499 0.434 1.031 0.519 1.62 0.079 0.536 0.679 0.93 1.375 1.383 1.029 0.672 2.309 1.502 2.229 3.241 0.159 0.047 0.362 0.09 0.562 0.138 0.677 0.143 1.597 0.338 2.232 1.004 0.37 0.385 0.538 0.782 0.688 1.137 0.085 0.205 0.076 0.404 0.063 0.615-0.026 0.42-0.058 0.994 0.728 1.994l0.518-9.527c0.021-0.33-0.127-0.824-0.323-1.094l-3.352-4.594c-0.191-0.253-0.582-0.471-0.904-0.51z"/>
			<path d="m139.18 106.96c0.224-0.07 0.452-0.156 0.689-0.242l0.164-0.059c0.888-0.33 1.88-0.697 2.804-0.697 0.398 0 0.762 0.07 1.076 0.215 0.19-0.123 0.386-0.24 0.584-0.354 1.479-0.854 2.701-1.236 3.761-1.184l-0.155-4.219c-0.284-0.226-0.586-0.504-0.817-0.844-0.047-0.016-0.09-0.027-0.137-0.037-0.303-0.091-0.691-0.207-1.16-0.531-0.132-0.086-0.261-0.187-0.386-0.295l-0.1-0.098c-0.473-0.533-1.114-1.063-1.736-1.576-1.063-0.881-2.153-1.783-2.771-2.881-0.252-0.133-0.489-0.275-0.729-0.439-0.623-0.428-1.094-0.893-1.553-1.344-0.422-0.412-0.806-0.789-1.268-1.108-0.179-0.121-0.359-0.229-0.555-0.327l-0.405 9e-3c-0.533 0-1.065-0.18-1.584-0.534-0.561-0.385-0.988-0.896-1.404-1.39l0.229-0.257-0.261 0.218c-0.086-0.103-0.17-0.2-0.252-0.296l0.664 18.066c0.616 0.279 1.491 0.521 2.693 0.521 0.804 1e-3 1.679-0.105 2.609-0.317z"/>
			<path d="m58.385 44.547c0.821-0.713 1.6-1.386 1.914-2.095-0.265-0.198-0.568-0.358-0.888-0.526-0.476-0.252-0.993-0.524-1.437-0.948l-0.086-0.083c-0.086-0.081-0.129-0.198-0.121-0.314l0.013-0.129c4e-3 -0.015 0-0.051-4e-3 -0.089-4e-3 -0.086-0.013-0.215 8e-3 -0.366-0.233-0.246-0.344-0.548-0.421-0.767-0.027-0.081-0.064-0.182-0.102-0.26l-0.427 7.057c0.467-0.529 1.011-1.016 1.551-1.48z"/>
			<path d="m57.323 62.188c0.151 0.09 0.295 0.177 0.438 0.267 0.23-0.07 0.564-0.06 0.818 0.09l0.236 0.136c0.18 0.104 0.241 0.339 0.141 0.521l-0.152 0.258c-0.026 0.058-0.023 0.256-0.02 0.373 9e-3 0.229 0.013 0.519-0.082 0.82 0.129 0.049 0.289 0.113 0.434 0.223 0.011-4e-3 0.019-6e-3 0.027-0.016 0.186-0.094 0.427-0.214 0.709-0.184 0.05 6e-3 0.096 8e-3 0.143 8e-3 1.425 0 3.11-2.313 3.641-3.203 0.098-0.163 0.296-0.229 0.467-0.163 0.176 0.069 0.276 0.253 0.237 0.437-0.029 0.145-0.778 3.52-4.815 4.851-0.043 0.133-0.069 0.261-0.098 0.405-0.025 0.129-0.055 0.26-0.089 0.396 0.18 0.098 0.439 0.241 0.635 0.518l0.063 0.086c0.059 0.082 0.086 0.187 0.066 0.283l-0.021 0.113c-0.02 0.125-0.043 0.241-0.07 0.354 0 0.014-3e-3 0.023-3e-3 0.033 0.242 0.318 0.319 0.646 0.315 0.965 0.011 2e-3 0.023 6e-3 0.034 7e-3l29.265 1.769c0.336 0.022 0.791-0.158 1.021-0.404l3.844-4.131c0.228-0.242 0.429-0.711 0.448-1.047l1.038-17.125c-0.913-0.06-1.709-0.214-2.478-0.364-0.731-0.148-1.411-0.28-2.127-0.323-0.295-0.016-0.584-0.016-0.871 0l-0.386 0.19c-0.571 0.284-1.265 0.408-2.068 0.357-0.848-0.05-1.646-0.272-2.421-0.485l0.057-0.386-0.105 0.369c-0.541-0.151-1.056-0.295-1.439-0.331l-0.379-0.034c-0.093-9e-3 -0.179-0.052-0.24-0.116l-0.176-0.18c-0.145-0.148-0.471-0.307-0.762-0.451-0.424-0.207-0.943-0.462-1.304-0.836l-0.943 15.612c-0.02 0.33-0.214 0.811-0.432 1.063l-0.504 0.584c-0.219 0.252-0.668 0.442-1 0.424l-5.921-0.358c-0.33-0.019-0.76-0.257-0.95-0.532l-0.462-0.658c-0.191-0.275-0.331-0.771-0.312-1.102l1.317-21.831-0.275 5e-3c-0.042 0.016-0.089 0.03-0.132 0.043-0.287 0.33-0.636 0.615-0.973 0.892-0.736 0.595-0.989 0.855-0.932 1.14l0.058 0.276c0.036 0.172-0.054 0.347-0.212 0.421l-0.344 0.163c-0.806 0.383-1.576 0.49-2.195 0.572-0.477 0.066-0.928 0.129-1.336 0.3-0.183 0.082-0.354 0.179-0.521 0.3l-0.201 0.151c-0.083 0.063-0.188 0.086-0.288 0.07l-0.229-0.039c-0.394-0.065-1.798-0.023-2.557 0.175-0.13 0.036-0.234 0.071-0.327 0.109-0.262 0.113-0.396 0.257-0.662 0.546-0.039 0.042-0.082 0.112-0.121 0.176-0.109 0.166-0.237 0.373-0.433 0.536-0.104 0.086-0.219 0.152-0.351 0.21-0.104 0.043-0.205 0.074-0.291 0.101 0 0-9e-3 0-0.017 5e-3 -0.183 0.201-0.344 0.439-0.498 0.674-0.159 0.237-0.319 0.475-0.511 0.692 0.063 0.649-0.172 1.114-0.342 1.459-0.177 0.352-0.224 0.44-0.059 0.74l0.369 0.674c0.065 0.128 0.063 0.28-0.021 0.396-0.078 0.116-0.218 0.184-0.361 0.164l-0.657-0.074c-0.013 0.039-0.026 0.086-0.043 0.133-0.112 0.33-0.273 0.802-0.798 1.19l0.063 0.098c0.108 0.175 0.063 0.405-0.104 0.519l-0.323 0.221c-7e-3 5e-3 -0.013 9e-3 -0.021 0.014l-0.506 8.379c0.202 0.576 0.724 0.916 1.387 1.317z"/>
			<path d="m54.881 68.606 1.436-2.614c-0.013-0.047-0.021-0.096-0.014-0.145l0.053-0.391c4e-3 -0.047-7e-3 -0.189-0.016-0.275-0.015-0.202-0.034-0.46 9e-3 -0.713l-0.145 0.044c-0.129 0.038-0.269 8e-3 -0.369-0.082l-0.159-0.146c-0.118-0.104-0.286-0.218-0.461-0.346-0.607-0.421-1.502-1.048-1.785-2.212-0.924-0.365-1.095-1.132-1.224-1.705-0.077-0.358-0.155-0.692-0.377-0.949l-0.211-0.254c-0.069-0.081-0.103-0.187-0.09-0.295 0.018-0.105 0.073-0.203 0.159-0.261l0.354-0.249c0.098-0.066 0.193-0.125 0.296-0.172-0.063-0.183-0.128-0.299-0.162-0.342l-0.099-0.044c-0.104-0.043-0.187-0.132-0.219-0.244l-0.034-0.121c-0.109-0.374 0.013-0.693 0.104-0.892-0.187 0-0.538 0.137-0.941 0.297-0.368 0.146-0.768 0.307-1.211 0.427-0.145 0.04-0.3 0.086-0.46 0.133l-0.106 0.035c-0.297 0.09-0.632 0.19-0.993 0.28-0.319 0.082-0.643 0.121-0.981 0.121-0.261 0-0.494-0.024-0.728-0.043-0.487-0.047-0.873-0.063-1.285 0.035l-0.354 0.085c-0.182 0.039-0.366-0.055-0.437-0.226l-0.161-0.374c-0.307-0.012-0.688 0.121-1.296 0.343-0.058 0.02-0.12 0.043-0.183 0.066l-0.091 0.035-0.305 0.241c-0.111 0.09-0.264 0.108-0.393 0.051-0.128-0.06-0.214-0.188-0.226-0.331l-4e-3 -0.137c-0.223-0.136-0.438-0.295-0.646-0.479-0.032-0.012-0.063-0.02-0.099-0.027l-0.035 0.012c-0.098 0.027-0.198 0.016-0.287-0.027l-0.073-0.039c-0.109-4e-3 -0.227-4e-3 -0.343-8e-3 -0.309-4e-3 -0.634-0.012-0.989-0.063-0.357-0.055-0.627-0.198-0.825-0.304-0.108-0.058-0.241-0.127-0.304-0.132h-0.078c-0.045 0-0.104 8e-3 -0.155 0.013l0.397 6.37c0.019 0.332-0.121 0.826-0.315 1.099l-1.606 2.271c-0.194 0.271-0.188 0.713 0.015 0.978l2.067 2.737c0.202 0.268 0.634 0.467 0.97 0.447l14.516-0.908c0.335-0.02 0.735-0.277 0.899-0.57z"/>
			<path d="m67.434 100.63c0.082 0.09 0.152 0.174 0.23 0.248 0.039 0.018 0.072 0.024 0.111 0.041l0.114 2e-3c0.062 0 0.12 0.029 0.159 0.07 0.011 0.012 0.02 0.023 0.026 0.035 0.988 0.396 1.593 0.962 2.177 1.512 0.452 0.42 0.864 0.805 1.425 1.086 0.127 0.012 0.258 0.03 0.39 0.051 1.319 0.193 2.907 0.697 3.985 1.262 1.063-0.114 1.756-0.406 2.164-0.912l0.103-0.129c0.039-0.051 0.094-0.077 0.155-0.084l0.201-0.02c1.403-0.141 2.395-0.715 3.364-1.383l-5.101-21.263c-0.078-0.323 0.017-0.813 0.207-1.086l1.724-2.438c0.194-0.274 0.19-0.715-8e-3 -0.983l-2.001-2.729c-0.197-0.269-0.631-0.479-0.965-0.464l-25.843 1.071c-0.336 0.016-0.745 0.261-0.92 0.545l-1.725 2.877c-0.173 0.287-0.137 0.73 0.074 0.988l1.874 2.283c0.211 0.258 0.345 0.736 0.293 1.067l-1.688 11.218c0.087 0.01 0.177 0.024 0.264 0.024 0.409 0 0.811-0.082 1.188-0.245l0.022-0.078c0.155-0.548 0.577-0.98 1.211-1.262 0.515-0.225 1.128-0.326 1.646-0.268 0.211-0.146 0.422-0.267 0.644-0.358 0.638-0.284 1.222-0.319 1.662-0.319 0.175 0 0.347 8e-3 0.519 0.012 0.158 8e-3 0.319 0.016 0.476 0.016 0.354 0 0.742-0.025 1.19-0.225 0.093-0.039 0.19-0.09 0.287-0.148l0.108-0.063c0.099-0.055 0.211-0.074 0.319-0.055l0.125 0.023c0.043 8e-3 0.104 8e-3 0.176 8e-3 0.139 7e-3 0.291 7e-3 0.446 0.033 9e-3 -2e-3 0.013-0.012 0.016-0.02 0.109-0.158 0.273-0.4 0.588-0.584l0.086-0.05c0.074-0.043 0.16-0.067 0.242-0.06h0.123c0.416 0 0.861-0.16 1.286-0.342l1.198-7.979c0.05-0.331 0.361-0.611 0.695-0.628l2.075-0.086c0.332-0.016 0.666 0.24 0.735 0.564l3.925 17.604c0.073 0.326-0.142 0.604-0.472 0.619l-0.64 0.025c-0.026 0.041-0.063 0.077-0.116 0.094-0.817 0.262-1.043 0.426-1.102 0.487 0.046 0.042 0.155 0.108 0.221 0.147 0.131 0.081 0.256 0.156 0.332 0.249z"/>
			<path d="m191.11 108.34c-0.777 0-2.3 0.207-3.76 1.609-0.04 0.033-0.073 0.063-0.104 0.096l-0.016 0.254c-0.043 0.592-0.395 1.214-1.009 1.803-0.577 0.544-1.296 0.992-1.91 1.188-0.238 0.313-0.479 0.592-0.741 0.84-0.832 0.795-1.692 1.173-2.447 1.504-0.735 0.322-1.433 0.627-2.146 1.309-0.116 0.112-0.233 0.232-0.35 0.366l-0.118 0.131c-0.038 0.043-0.084 0.074-0.14 0.091l-0.16 0.051c-0.07 0.021-0.163 0.063-0.262 0.104l-0.029 0.017c-0.211 0.092-0.437 0.193-0.687 0.248-0.058 0.063-0.086 0.133-0.144 0.287-0.078 0.198-0.198 0.512-0.479 0.83l-0.095 0.102c-0.022 0.031-0.059 0.059-0.096 0.074l-0.118 0.055c-0.67 0.308-1.291 0.875-1.875 1.429l-0.632 0.61c-0.129 0.125-0.247 0.222-0.372 0.336l12.366 0.674c0.33 0.02 0.784-0.168 1.012-0.413l3.823-4.153c0.225-0.246 0.423-0.717 0.441-1.048l0.454-8.351c-0.133-0.017-0.263-0.043-0.406-0.043z"/>
			<path d="m3.533 113c0.038-4e-3 0.077-0.012 0.154-0.035l0.036-0.012c0.104-0.027 0.237-0.063 0.403-0.074l0.082-6e-3c0.046-0.01 0.093-6e-3 0.141 0.011l0.09 0.022c0.344 0.098 0.58 0.237 0.771 0.352 0.032 0.021 0.059 0.037 0.082 0.051 0.289-0.014 0.659-0.039 0.795-0.125l0.121-0.082c0.077-0.055 0.175-0.072 0.268-0.059l0.175 0.027c0.143 0.022 0.271 0.065 0.384 0.131 0.236-0.043 0.466-0.049 0.677-0.058 0.18-8e-3 0.33-0.013 0.436-0.035 0.28-0.06 0.564-0.159 0.86-0.269 0.315-0.117 0.683-0.254 1.114-0.362 0.115-0.03 0.248-0.069 0.39-0.112 0.271-0.086 0.535-0.164 0.782-0.207 0.396-0.064 0.805-0.074 1.164-0.076 0.57-0.01 1.063-0.012 1.275-0.234l0.112-0.116c0.082-0.085 0.191-0.128 0.308-0.116l0.354 0.034c0.229 0.022 0.405 0.021 0.409 0.021l0.125-0.159c0.093-0.108 0.232-0.156 0.373-0.125l0.253 0.055c0.465 0.103 0.748 0.312 0.935 0.447 0.028 0.022 0.056 0.04 0.078 0.06 0.109-6e-3 0.228-0.014 0.343-0.021l0.305-8.462c-0.086-0.021-0.164-0.065-0.219-0.137-0.059-0.082-0.086-0.185-0.068-0.285l3e-3 -0.039c-0.032-0.049-0.06-0.092-0.075-0.135-0.178-0.061-0.322-0.146-0.393-0.188l-0.212-0.108c-0.063-0.031-0.107-0.078-0.143-0.137-0.923-0.214-1.358-0.88-1.686-1.377-0.237-0.357-0.438-0.663-0.735-0.796l-0.15-0.065c-0.095-0.043-0.168-0.121-0.202-0.219l-0.042-0.121c-0.16-0.459-0.537-0.852-0.937-1.271l-0.03-0.035c-0.214-0.227-0.432-0.456-0.63-0.713l-0.079-0.094c-0.072-0.102-0.102-0.229-0.063-0.351l0.022-0.073c-0.022-0.039-0.063-0.105-0.086-0.145-0.037-0.063-0.089-0.145-0.136-0.238-0.093-0.033-0.167-0.072-0.229-0.104-0.094-0.047-0.108-0.051-0.133-0.055l-0.455-0.086c-0.123-0.023-0.229-0.105-0.279-0.219-0.055-0.111-0.047-0.245 0.016-0.352l0.188-0.307c0.011-0.023 0.026-0.047 0.043-0.068-0.297-0.166-0.547-0.301-0.937-0.449l-0.175-0.066c-0.105-0.043-0.189-0.131-0.225-0.24l-0.041-0.137c-0.161-0.511-0.512-0.965-1.103-1.434l-0.172-0.131c-0.146-0.113-0.188-0.309-0.105-0.467l0.079-0.164c0.03-0.065 0.033-0.102 0.046-0.19 0-0.021 5e-3 -0.039 5e-3 -0.056-0.09 0.032-0.191 0.079-0.261 0.113-0.226 0.103-0.463 0.212-0.734 0.255l-0.216 0.029c-0.057 0.014-0.115 4e-3 -0.175-0.012-0.132 4e-3 -0.265-0.059-0.343-0.18l-0.073-0.117c-0.151-0.088-0.343-0.15-0.584-0.187-0.168-0.022-0.361-0.038-0.588-0.038-0.378 0-0.773 0.035-1.098 0.063l-0.495 0.043c-0.053 4e-3 -0.106-8e-3 -0.155-0.023l-0.739 20.571c0.331 2e-3 0.668 0.017 1.004 0.069z"/>
			<path d="m93.091 24.013c-0.125 0-0.25-8e-3 -0.365-0.02-0.188-0.012-0.366-0.02-0.472 7e-3 -0.082 0.023-0.159 0.052-0.237 0.086-0.467 0.199-0.875 0.573-1.265 0.932l-0.348 0.311c-0.052 0.043-0.107 0.074-0.175 0.086l-0.293 0.065c-0.398 0.086-0.748 0.16-1.012 0.273-0.176 0.074-0.295 0.155-0.396 0.276-0.05 0.058-0.129 0.25-0.175 0.377-0.108 0.3-0.25 0.666-0.558 1-0.284 0.309-0.65 0.511-0.975 0.688-0.146 0.081-0.354 0.191-0.45 0.276-0.262 0.227-0.394 0.425-0.545 0.654 0 4e-3 -0.017 0.027-0.017 0.032-0.104 0.15-0.222 0.323-0.381 0.505l-0.078 0.098c-0.039 0.043-0.086 0.082-0.14 0.101l-0.128 0.056c-0.637 0.28-1.229 0.481-1.801 0.677-0.442 0.155-0.849 0.296-1.201 0.448-0.034 0.014-0.063 0.028-0.096 0.043 0.116 0.269 0.191 0.604 0.178 0.848l-0.714 11.795 1.387 1.336c0.879 0.855 2.873 1.825 5.815 1.991 0.085 9e-3 0.171 0.013 0.251 0.017l0.29-0.141c0.592-0.284 1.469-0.397 2.597-0.33 1.063 0.058 2.168 0.268 2.92 0.545 0.479-0.021 0.938-0.014 1.389 7e-3l1.056-17.428c0.021-0.334-0.125-0.824-0.318-1.097l-3.289-4.563c-0.139 0.031-0.289 0.049-0.454 0.049z"/>
			<path d="m72.527 121.73c0.144-0.214 0.36-0.541 0.314-0.666l-0.248-0.681c-0.03-0.082-0.013-0.176 0.05-0.237 0.063-0.062 0.155-0.086 0.237-0.054l0.309 0.107c-0.07-0.432 0.027-0.81 0.127-1.203l0.014-0.047c0.029-0.111 0.063-0.232 0.089-0.361l0.036-0.164c0.015-0.078 0.072-0.141 0.147-0.166l0.192-0.07c0.184-0.063 0.361-0.159 0.554-0.296-0.022-0.112-0.034-0.214-0.043-0.308-7e-3 -0.06-0.016-0.146-0.026-0.203l-0.383-0.16c-0.064-0.021-0.115-0.08-0.132-0.151-0.02-0.069 0-0.144 0.043-0.198l0.254-0.307c0.037-0.053 0.101-0.172 0.151-0.271 0.12-0.242 0.284-0.562 0.561-0.769-0.048-0.011-0.095-0.026-0.15-0.042l-0.277-0.074c-0.078-0.02-0.136-0.072-0.158-0.154l-0.063-0.207c-0.047-0.164-0.133-0.357-0.225-0.563-0.313-0.722-0.738-1.694-0.343-2.821-0.614-0.765-0.373-1.47-0.179-2.041 0.129-0.373 0.246-0.717 0.188-1.102l-0.052-0.327c-0.011-0.063 9e-3 -0.129 0.048-0.181 0.04-0.049 0.098-0.076 0.163-0.082l0.437-0.025c0.168-9e-3 0.315 3e-3 0.457 0.031 0.097-0.344 0.093-0.576 0.063-0.635l-0.077-0.109c-0.039-0.059-0.05-0.129-0.035-0.193l0.035-0.123c0.098-0.363 0.387-0.556 0.555-0.664 0.029-0.02 0.068-0.043 0.09-0.063-0.096-0.211-0.327-0.288-1.178-0.434-0.399-0.064-0.821-0.139-1.258-0.268-0.145-0.043-0.294-0.083-0.459-0.125l-0.125-0.031c-0.303-0.078-0.648-0.166-1-0.279-0.658-0.207-1.07-0.518-1.467-0.813-0.374-0.28-0.683-0.514-1.176-0.677l-0.353-0.113c-0.104-0.035-0.17-0.141-0.154-0.25l0.074-0.502c-0.289-0.232-0.709-0.326-1.44-0.479l-0.313-0.063-0.415 0.051c-0.089 8e-3 -0.166-0.027-0.218-0.102-0.046-0.07-0.05-0.16-0.011-0.232l0.108-0.199c-0.136-0.258-0.25-0.529-0.343-0.83-0.036-0.051-0.079-0.096-0.133-0.151l-0.078-0.017c-0.059-0.014-0.104-0.049-0.136-0.104l-0.063-0.098c-0.102-0.07-0.211-0.141-0.326-0.215-0.185-0.114-0.381-0.248-0.576-0.396l-4.593 0.19c-0.332 0.015-0.564-0.245-0.516-0.576l1.159-7.729c-0.166 0.035-0.347 0.059-0.535 0.045-0.156 0.199-0.366 0.443-0.743 0.606-0.121 0.052-0.246 0.095-0.371 0.121l-0.054 8e-3c-0.02 9e-3 -0.043 9e-3 -0.065 9e-3l-0.039 2e-3c-0.464 4e-3 -0.967 0.137-1.491 0.276-0.627 0.168-1.273 0.345-1.95 0.345-0.296 0-0.573-0.037-0.837-0.103-0.136 0.089-0.277 0.163-0.429 0.229-0.506 0.221-1.005 0.279-1.442 0.334-0.398 0.043-0.726 0.086-1.017 0.215-0.082 0.033-0.157 0.074-0.23 0.125l-0.053 0.197c-0.146 0.537-0.479 0.93-0.959 1.146-0.377 0.163-0.786 0.187-1.1 0.187-0.132 0-0.268-4e-3 -0.398-8e-3l-0.021-0.467-0.016 0.467c-0.295-0.012-0.571-9e-3 -0.673 0.027l-0.182 0.061-3.043 20.213c-0.05 0.332-0.253 0.817-0.455 1.082l-1.341 1.77-1.474-1.965c-0.198-0.269-0.355-0.758-0.339-1.094l0.19-5.336-0.709-0.506c-0.222-0.16-0.849-0.533-1.884-0.533-0.416 0-0.845 0.063-1.272 0.187-0.018 5e-3 -0.03 8e-3 -0.048 0.016l-0.063 0.093c-0.253 0.355-0.708 0.641-1.323 0.814-0.527 0.152-1.137 0.215-1.596 0.158-0.245 0.109-0.482 0.195-0.724 0.266-0.615 0.176-1.135 0.199-1.515 0.199-0.188 0-0.372-4e-3 -0.55-0.012-0.168-0.01-0.334-0.012-0.502-0.012-0.327 0-0.724 0.02-1.215 0.158-0.108 0.031-0.222 0.071-0.332 0.109l-0.119 0.043c-0.059 0.023-0.125 0.031-0.188 0.02l-0.115-0.016c-0.043-8e-3 -0.112-8e-3 -0.183-0.012-0.161-4e-3 -0.333-8e-3 -0.504-0.043-0.022 0.016-0.059 0.043-0.111 0.09-0.125 0.101-0.316 0.253-0.62 0.365l-0.094 0.035c-0.043 0.016-0.089 0.026-0.136 0.022l-0.141-4e-3c-0.482 0-1.032 0.146-1.549 0.293l-0.347 0.101-0.104 2.939c-0.014 0.334-0.2 0.813-0.418 1.063l-1.825 2.102c-0.218 0.25-0.253 0.689-0.078 0.975l1.787 2.928c0.175 0.283 0.593 0.524 0.923 0.541l14.535 0.521c0.33 8e-3 0.759-0.206 0.95-0.479l1.546-2.26 1.782 2.46c0.193 0.272 0.627 0.479 0.961 0.468l11.479-0.479c0.336-0.017 0.752-0.257 0.923-0.537l1.818-2.946c0.175-0.283 0.121-0.701-0.122-0.931l-2.012-1.888c-0.245-0.229-0.396-0.687-0.344-1.012l1.336-7.914c0.06-0.332 0.374-0.611 0.709-0.623l10.712-0.449c0.332-0.01 0.658 0.246 0.722 0.572l1.505 7.785c0.063 0.323-0.073 0.791-0.303 1.032l-1.984 2.078c-0.232 0.241-0.257 0.655-0.056 0.919l2.099 2.791c0.101 0.132 0.261 0.25 0.437 0.333 0.071-0.1 0.135-0.199 0.196-0.29z"/>
			<path d="m9.154 121.49c-0.12-0.521 0.012-1.013 0.137-1.486 0.068-0.262 0.145-0.533 0.168-0.795-0.057-0.102-0.125-0.246-0.146-0.424-0.022-0.258 0.017-0.488 0.053-0.693 0.018-0.125 0.05-0.305 0.032-0.366-0.1-0.354-0.498-0.731-0.917-1.133-0.409-0.39-0.863-0.825-1.11-1.323-0.062-0.128-0.09-0.249-0.104-0.357-0.223-0.031-0.444-0.047-0.646-0.047-0.301 0-0.444 0.035-0.472 0.051l-0.104 0.063c-0.07 0.047-0.152 0.066-0.234 0.055l-0.147-0.012c-0.069-4e-3 -0.14-0.016-0.205-0.021-0.53-0.078-0.871-0.254-1.153-0.395-0.069-0.035-0.136-0.066-0.192-0.098-0.031 8e-3 -0.06 0.021-0.095 0.031-0.151 0.051-0.347 0.115-0.618 0.127l-0.086 0.01c-0.046 3e-3 -0.089-4e-3 -0.134-0.018l-0.089-0.025c-0.097-0.031-0.188-0.051-0.275-0.063-0.13-0.02-0.268-0.023-0.409-0.021-0.077 0.248-0.2 0.5-0.343 0.658l-1.867 2.105c-0.224 0.249-0.258 0.689-0.082 0.969l1.833 2.937c0.18 0.28 0.596 0.522 0.927 0.536l6.492 0.234c-0.096-0.152-0.173-0.313-0.214-0.499z"/>
			<path d="m125.58 99.479c-0.164 0-0.332 0.022-0.504 0.073-0.073 0.025-0.151 0.035-0.229 0.048l-0.25 0.043c-0.037 8e-3 -0.08 4e-3 -0.116-9e-3l-0.282-0.1c-0.409-0.142-0.752-0.263-1.053-0.309-0.211-0.027-0.381-0.023-0.563 0.033-0.098 0.031-0.257 0.152-0.394 0.259-0.25 0.194-0.549 0.428-0.963 0.544-0.205 0.061-0.438 0.086-0.727 0.086-0.146 0-0.293-7e-3 -0.425-0.012-0.234-0.012-0.452-0.016-0.571 5e-3 -0.375 0.058-0.607 0.17-0.861 0.286l-0.039 0.021c-0.171 0.077-0.347 0.159-0.57 0.229l-0.118 0.039c-0.033 0.012-0.069 0.016-0.104 8e-3l-0.14-0.016c-0.696-0.098-1.339-0.242-1.903-0.369-0.459-0.098-0.888-0.195-1.286-0.254-0.45-0.066-0.798-0.076-1.115-0.033l-0.594 13.557c-0.014 0.335-0.208 0.807-0.432 1.057l-0.564 0.623c-0.222 0.248-0.677 0.438-1.013 0.424l-6.74-0.293c-0.332-0.02-0.593-0.299-0.58-0.635l0.535-12.238-0.041 0.031c-0.052 0.043-0.116 0.059-0.18 0.047-0.063-0.013-0.116-0.051-0.152-0.105l-0.307-0.489c-0.219-0.347-0.377-0.575-0.674-0.713-0.343 0.129-0.405 0.194-0.433 0.335l-0.104 0.557c-0.017 0.074-0.063 0.137-0.132 0.164-0.066 0.03-0.146 0.026-0.206-8e-3l-0.615-0.363c-0.066-0.01-0.129-0.025-0.195-0.049-0.42 0.141-0.884 0.202-1.332 0.26-0.939 0.125-1.398 0.227-1.536 0.604l-0.098 0.265c-0.035 0.102-0.136 0.168-0.237 0.151l-0.382-0.043c-0.875-0.095-1.554-0.39-2.151-0.649-0.459-0.207-0.888-0.394-1.358-0.463-0.215-0.031-0.425-0.035-0.646-0.021l-0.258 0.022c-0.06 4e-3 -0.119-0.016-0.168-0.054l-0.179-0.155c-0.35-0.305-1.6-1.004-2.362-1.234-0.138-0.039-0.254-0.065-0.361-0.082-0.137-0.02-0.254-0.018-0.373-2e-3l-0.595 13.545c-0.014 0.332-0.204 0.807-0.432 1.051l-1.528 1.7-1.563-1.734c-0.222-0.249-0.466-0.716-0.545-1.043l-2.341-9.757c-0.235 0.146-0.532 0.277-0.944 0.294l-0.015 0.011c-0.014 8e-3 -0.021 0.012-0.032 0.016l4e-3 0.246c0 0.121-0.093 0.226-0.214 0.229l-0.396 0.022c-0.92 0.048-1.422 0.25-1.631 0.654l-0.064 0.133c-0.032 0.058-0.086 0.101-0.148 0.119l-0.188 0.043c-0.191 0.051-0.387 0.061-0.58 0.027-0.094-0.012-0.177-0.031-0.245-0.055-0.194 0.226-0.343 0.537-0.498 0.863-0.284 0.588-0.627 1.313-1.405 1.662-0.207 0.856-0.202 1.164 0.155 1.598l0.09 0.111c0.046 0.051 0.063 0.117 0.05 0.188l-0.019 0.125c-0.053 0.283-0.285 0.463-0.519 0.619 0.05 0.14 0.073 0.27 0.069 0.531l-3e-3 0.053c0 0.031-4e-3 0.059-0.018 0.085l-0.02 0.047c-0.347 0.786 0.017 1.479 0.436 2.28l0.018 0.031c0.082 0.164 0.171 0.326 0.25 0.498 0.17 0.035 0.466 0.133 0.634 0.443l0.132 0.246c0.061 0.107 0.018 0.249-0.093 0.307l-0.265 0.145c-0.092 0.052-0.196 0.23-0.281 0.375-0.133 0.232-0.295 0.519-0.595 0.725 0.016 0.016 0.029 0.034 0.046 0.051 0.122 0.145 0.284 0.334 0.34 0.606 0.073 0.073 0.132 0.214 0.096 0.455-0.037 0.258-0.23 0.817-0.574 0.849-0.156 0.121-0.272 0.249-0.397 0.383-0.116 0.123-0.232 0.248-0.373 0.373 0.016 0.03 0.035 0.063 0.055 0.094 0.104 0.18 0.241 0.416 0.266 0.731l7e-3 0.108c4e-3 0.058-0.017 0.119-0.054 0.162l-0.078 0.086c-0.086 0.102-0.172 0.191-0.258 0.285l-0.06 0.063c0.049 0.323-0.011 0.592-0.123 0.824l9.614-0.396c0.332-0.017 0.744-0.261 0.916-0.545l1.339-2.22 1.39 2.263c0.175 0.284 0.591 0.528 0.927 0.541l33.213 1.455c0.329 0.012 0.785-0.179 1.007-0.424l3.779-4.191c0.223-0.25 0.416-0.721 0.434-1.057l0.636-14.521c-0.524-1.634-1.348-3.481-2.728-3.481z"/>
			<path d="m132.99 82.585 0.025 0.738c2e-3 0.01 0.011 0.016 0.013 0.024l0.272 1.946c0.144 1.063 0.974 2.658 2.864 3.955 0.043 0.035 0.09 0.065 0.136 0.098l0.247-6e-3c0.58 0 1.26 0.263 1.988 0.766 0.688 0.475 1.336 1.089 1.706 1.63 0.368 0.19 0.707 0.39 1.025 0.606 1.002 0.689 1.593 1.398 2.16 2.087 0.534 0.644 1.04 1.25 1.911 1.851 0.145 0.098 0.3 0.194 0.461 0.287l0.158 0.098c0.043 0.026 0.083 0.063 0.108 0.102l0.1 0.145c0.042 0.066 0.111 0.147 0.186 0.233l0.032 0.035c0.143 0.176 0.307 0.37 0.436 0.592 0.098 0.06 0.183 0.081 0.344 0.124 0.201 0.053 0.503 0.132 0.856 0.331l-0.594-16.171c-0.012-0.33 0.136-0.824 0.331-1.098l1.737-2.43c0.188-0.271 0.188-0.716 0-0.988l-1.946-2.736c-0.191-0.268-0.623-0.482-0.955-0.471l-13.227 0.485c-0.337 0.013-0.752 0.255-0.932 0.534l-1.826 2.889c-0.179 0.28-0.15 0.721 0.063 0.977l1.907 2.298c0.218 0.256 0.402 0.737 0.414 1.069z"/>
			<path d="m171.26 121.32c0.096-0.094 0.189-0.168 0.271-0.226l-5e-3 -0.056c-8e-3 -0.09 0.028-0.18 0.099-0.242l0.215-0.193c0.168-0.15 0.429-0.357 0.782-0.357 0.034 0 0.068 4e-3 0.104 8e-3 0.198-0.203 0.39-0.42 0.581-0.635 0.231-0.27 0.505-0.568 0.782-0.836 0.3-0.285 0.746-0.67 1.318-0.85 0.015-0.035 0.03-0.07 0.047-0.109 0.125-0.279 0.287-0.652 0.683-1.027 0.104-0.102 0.225-0.202 0.354-0.295l0.051-0.031c0.013-8e-3 0.02-0.016 0.031-0.02l0.043-0.023c0.61-0.295 1.237-0.771 1.846-1.23 1.035-0.781 2.104-1.593 3.344-1.841 0.163-0.214 0.334-0.407 0.529-0.592 0.518-0.493 1.063-0.821 1.593-1.138 0.479-0.283 0.917-0.543 1.296-0.902 0.143-0.141 0.271-0.287 0.39-0.447l0.021-0.357c0.034-0.584 0.273-1.098 0.727-1.525 0.469-0.447 1.06-0.709 1.632-0.965l0.03-0.014c0.405-0.182 0.77-0.346 0.975-0.517l0.214-0.185c0.075-0.059 0.172-0.086 0.265-0.063l0.237 0.055c0.184 0.039 0.443 8e-3 0.771-0.043 0.254-0.037 0.528-0.08 0.817-0.08 0.111 0 0.217 0.01 0.32 0.021l0.585-10.756c-0.313-0.605-0.787-2.105-1.806-5.924-0.151-0.557-0.291-1.082-0.322-1.16-0.012-0.039-0.027-0.078-0.039-0.105-1.086-1.619-1.747-2.094-2.705-1.978l-0.434 0.056c-0.183 0.022-0.35-0.082-0.409-0.254l-0.075-0.227c-0.538 0.457-1.191 0.908-2.025 1.387-0.575 0.331-1.179 0.646-1.762 0.954l-0.061 0.03c-0.566 0.293-1.207 0.627-1.777 0.957l-0.23 0.138c-0.039 0.021-0.076 0.034-0.116 0.042l-0.138 0.031c-0.727 0.156-1.438 0.271-2.128 0.382l-0.207 0.03c-0.099 0.016-0.211 0.033-0.314 0.051l-1.223 22.449c-0.017 0.334-0.206 0.813-0.424 1.066l-0.498 0.588c-0.214 0.258-0.666 0.447-0.996 0.432l-5.921-0.322c-0.332-0.016-0.765-0.253-0.959-0.525l-0.463-0.658c-0.194-0.271-0.334-0.768-0.319-1.101l0.849-15.592c-0.158 0.062-0.317 0.114-0.481 0.153-0.347 0.449-0.838 0.853-1.491 1.232-0.563 0.323-1.188 0.596-1.734 0.838-0.482 0.209-0.98 0.428-1.375 0.656-0.382 0.223-0.532 0.375-0.593 0.464l-0.695 1.044c-0.074 0.112-0.203 0.176-0.344 0.167-0.136-8e-3 -0.257-0.09-0.314-0.215l-0.437-0.888c-0.022-0.051-0.051-0.108-0.072-0.188-0.34 0.223-0.637 0.469-0.947 0.725-0.401 0.336-0.856 0.713-1.44 1.052-0.108 0.063-0.226 0.124-0.347 0.183 0 0.023-3e-3 0.049-7e-3 0.066-0.03 0.109-0.109 0.203-0.211 0.249l-0.129 0.06c-0.472 0.528-1.19 0.979-1.774 1.319-0.082 0.046-0.159 0.089-0.231 0.131 0.015 0.048 0.021 0.099 0.019 0.149-8e-3 0.111-0.066 0.213-0.155 0.283l-0.571 0.416c-0.146 0.104-0.289 0.198-0.426 0.276-0.529 0.306-1.063 0.468-1.566 0.576l-0.504 9.243c-0.017 0.336 0.129 0.826 0.327 1.096l3.348 4.543c0.204 0.268 0.636 0.503 0.966 0.521l14.571 0.793c0.045-0.07 0.093-0.149 0.167-0.22z"/>
			<path d="m149.07 116.3c-0.222-0.248-0.412-0.723-0.426-1.059l-0.312-8.521c-1.282 0.017-1.866 0.205-3.316 1.039-0.241 0.146-0.513 0.301-0.888 0.527l-0.509 0.307c-0.155 0.098-0.362 0.066-0.482-0.073l-0.292-0.332c-0.07-0.073-0.176-0.155-0.429-0.155-0.377 0-0.914 0.168-1.584 0.385l-0.039 0.014c-0.592 0.193-1.269 0.412-1.924 0.475l-0.094 0.027c-0.055 0.015-0.107 0.015-0.164 7e-3 -0.429 0.099-0.863 0.149-1.286 0.149-1.174 0-2.313-0.379-3.405-1.108l0.287 7.792c0.011 0.334-0.146 0.82-0.347 1.086l-1.715 2.238c-0.201 0.265-0.205 0.705-7e-3 0.969l2.039 2.795c0.198 0.271 0.632 0.482 0.966 0.467l13.229-0.482c0.33-0.014 0.742-0.256 0.914-0.543l1.739-2.916c0.177-0.293 0.134-0.729-0.091-0.979l-1.864-2.109z"/>
			<path d="m17.269 115.76c-0.201-0.266-0.355-0.752-0.346-1.086l0.035-0.996c-0.057 6e-3 -0.107 0.018-0.164 0.019h-0.059c-0.027 0-0.052 0-0.073-7e-3l-0.055-8e-3c-0.429-0.09-0.649-0.309-0.771-0.422 0-4e-3 0-4e-3 -4e-3 -4e-3 -0.094 0.095-0.233 0.22-0.459 0.301l-0.185 0.066c-0.097 0.034-0.205 0.029-0.3-0.021l-0.183-0.089c-0.099-0.051-0.185-0.098-0.271-0.148-0.034-0.016-0.084-0.047-0.132-0.07-0.132 0.066-0.257 0.188-0.403 0.332-0.052 0.047-0.099 0.09-0.145 0.137l-0.129 0.111c-0.086 0.082-0.198 0.117-0.316 0.102l-0.205-0.03c-0.052-0.013-0.095-0.017-0.141-0.022-0.443-0.063-0.945-0.109-1.313-0.027-0.021 0.012-0.046 0.031-0.07 0.047-0.112 0.077-0.28 0.202-0.528 0.262-0.254 0.063-0.475 0.069-0.657 0.082-0.147 4e-3 -0.257 0.012-0.318 0.034-0.151 0.062-0.214 0.101-0.237 0.116l-0.047 0.129c-0.052 0.141-0.181 0.236-0.332 0.253l-0.226 0.017c-0.069 4e-3 -0.145 8e-3 -0.218 0.012 0.175 0.299 0.442 0.587 0.739 0.902 0.614 0.653 1.309 1.395 1.335 2.522 0 0.132 0.011 0.274 0.02 0.416 0.02 0.292 0.034 0.575 0.016 0.817-0.026 0.357-0.116 0.676-0.187 0.938-0.099 0.348-0.172 0.622-0.117 0.876 0.038 0.187 0.188 0.381 0.343 0.597 0.034 0.045 0.07 0.098 0.106 0.147l4.821 0.174c0.334 0.013 0.763-0.202 0.953-0.476l1.95-2.786c0.19-0.272 0.184-0.712-0.019-0.978l-1.708-2.239z"/>
			<path d="m13.109 30.073c0.219 0.249 0.416 0.725 0.437 1.059l0.325 5.241 1.914 3.623c0.341 0.642 1.143 1.152 1.995 1.689 1.188 0.755 2.644 1.678 2.967 3.235l0.817 0.124c0.06 4e-3 0.112 0.026 0.162 0.063l0.207 0.144c1.122 0.813 2.515 1.821 3.64 2.966 0.176-4e-3 0.351 5e-3 0.526 0.031 0.525 0.078 0.964 0.276 1.319 0.436 0.151 0.067 0.36 0.161 0.47 0.192l0.191-0.102c0.068-0.035 0.15-0.051 0.232-0.035l0.266 0.043c0.795 0.132 1.171 0.553 1.37 0.832 0.314 0.063 0.807 0.171 1.12 0.545 8e-3 9e-3 0.012 0.019 0.019 0.026l4.218-0.264c0.332-0.02 0.802 0.152 1.044 0.378l0.859 0.81c0.24 0.226 0.457 0.685 0.479 1.02l0.159 2.545c0.026 0 0.053-2e-3 0.082-2e-3 0.973 0 2.214 0.058 3.272 0.514 0.163-0.031 0.326-0.048 0.49-0.048 0.448 0 0.803 0.114 1.086 0.203 0.099 0.032 0.188 0.063 0.273 0.082 0.018-5e-3 0.037-8e-3 0.057-0.012l0.075-0.043c0.089-0.055 0.194-0.066 0.291-0.038 9e-3 0 0.016 3e-3 0.021 3e-3 0.293-0.046 0.576-0.07 0.867-0.07 0.655 0 1.215 0.117 1.751 0.23 0.594 0.121 1.104 0.222 1.689 0.174 0.104-0.05 0.214-0.096 0.332-0.143 1.207-0.518 2.795-0.916 4.002-1.004 0.778-0.608 1.179-1.165 1.253-1.748l0.021-0.16c8e-3 -0.067 0.039-0.127 0.08-0.182l-0.122-1.99c-0.021-0.332-0.225-0.802-0.452-1.043l-3.385-3.61c-0.229-0.24-0.283-0.68-0.122-0.972l1.82-3.348c0.159-0.292 0.273-0.803 0.254-1.137l-0.36-5.772-0.235-5e-3c-0.248-8e-3 -0.498-0.086-0.735-0.241-0.06-0.035-0.108-0.073-0.158-0.109-0.092 0.013-0.186-0.012-0.259-0.063l-0.171-0.112c-0.151-0.105-0.366-0.272-0.452-0.549 0-4e-3 0-4e-3 -3e-3 -0.012-0.151-0.086-0.308-0.172-0.465-0.254-0.264-0.147-0.498-0.271-0.72-0.416-0.24-0.155-0.58-0.396-0.824-0.739h-0.022c-0.228-0.051-0.516-0.112-0.86-0.335-0.094-0.058-0.188-0.128-0.281-0.207l-0.03-0.026c-0.012-0.011-0.02-0.019-0.027-0.026l-0.023-0.027c-0.307-0.351-0.719-0.674-1.154-1.021-0.717-0.572-1.461-1.159-1.885-1.935-0.164-0.078-0.314-0.16-0.468-0.257-0.438-0.28-0.768-0.6-1.082-0.906-0.28-0.27-0.534-0.516-0.828-0.706-0.102-0.062-0.207-0.12-0.313-0.171l-0.198 0.027c-0.412 0.054-0.845-0.051-1.246-0.308-0.407-0.261-0.704-0.619-0.991-0.965l0.271-0.27-0.295 0.241c-0.173-0.21-0.355-0.423-0.491-0.521l-0.164-0.12c-0.093-0.066-0.151-0.172-0.159-0.284l-9e-3 -0.159c-7e-3 -0.104-0.093-0.272-0.162-0.425-0.188-0.386-0.459-0.961-0.188-1.58l0.063-0.14-22.831 1.42c-0.334 0.02-0.743 0.272-0.914 0.557l-1.756 2.936c-0.171 0.283-0.128 0.724 0.09 0.973l1.964 2.25zm15.411-0.7 5.264-0.327c0.336-0.02 0.798 0.159 1.025 0.397l0.559 0.572c0.232 0.24 0.439 0.708 0.461 1.039l0.605 9.725c0.021 0.33-0.125 0.82-0.328 1.085l-0.481 0.639c-0.198 0.269-0.634 0.502-0.971 0.521l-5.266 0.331c-0.332 0.019-0.619-0.237-0.643-0.568l-0.795-12.769c-0.019-0.334 0.235-0.622 0.57-0.645z"/>
			<path d="m37.886 22.42c0.073 0.74 0.595 1.807 1.828 2.598 0.017 8e-3 0.028 0.019 0.039 0.022l0.113-0.011c0.055-4e-3 0.107-9e-3 0.159-9e-3 0.4 0 0.85 0.156 1.323 0.464 0.476 0.3 0.914 0.712 1.179 1.089 0.246 0.113 0.469 0.234 0.68 0.366 0.708 0.456 1.128 0.97 1.507 1.425 0.347 0.424 0.677 0.83 1.244 1.191 0.099 0.063 0.197 0.12 0.3 0.176l0.113 0.062c0.055 0.032 0.102 0.074 0.137 0.129l0.066 0.097c0.022 0.036 0.068 0.091 0.115 0.144 0.103 0.122 0.211 0.254 0.296 0.406 0.031 8e-3 0.07 0.016 0.141 0.026 0.159 0.027 0.4 0.07 0.686 0.223l0.086 0.047c0.043 0.019 0.077 0.05 0.112 0.086l0.06 0.069c0.317 0.382 0.802 0.704 1.272 1.005l0.528 0.334c0.446 0.286 0.819 0.556 1.168 0.854l-0.387-6.194c-0.021-0.331-0.221-0.806-0.447-1.051l-3.813-4.169c-0.222-0.249-0.681-0.433-1.013-0.409l-7.55 0.47 0.058 0.56z"/>
			<path d="m16.114 46.264c0.152-0.012 0.357-0.031 0.421-0.055 0.132-0.051 0.293-0.16 0.461-0.272 0.384-0.27 0.875-0.607 1.604-0.705-0.079-0.743-0.752-1.183-1.938-1.884-0.891-0.527-1.939-1.161-2.485-2.122l0.345 5.561c0.198-0.132 0.438-0.286 0.767-0.387 0.277-0.093 0.568-0.118 0.825-0.136z"/>
			<path d="m57.94 35.285c0.096 0.207 0.114 0.452 0.061 0.713 0.604 0.455 0.867 1.114 0.738 1.803 0.104 0.046 0.215 0.12 0.308 0.233l0.036 0.039c0.035 0.039 0.063 0.09 0.078 0.14l0.015 0.051c0.035 0.112 0.063 0.223 0.082 0.319 0.02 0.074 0.035 0.133 0.046 0.179l0.195 0.012c0.064 8e-3 0.134 0.031 0.188 0.066l2.319-0.203c0.198-0.02 0.369 0.113 0.409 0.304 0.039 0.191-0.07 0.378-0.259 0.44l-2.241 0.72c0.16 0.094 0.343 0.188 0.521 0.277 0.693 0.35 1.713 0.868 1.689 1.938 0.017 0.011 0.029 0.023 0.05 0.035 0.103-4e-3 0.375-0.094 0.554-0.153 0.33-0.112 0.67-0.225 1.03-0.256 0.28-0.027 0.508 0.035 0.663 0.077 0.021 9e-3 0.046 0.017 0.069 0.021 0.288-0.071 0.691-0.21 1.081-0.347 0.523-0.184 1.06-0.37 1.53-0.464 0.316-0.063 0.555-0.065 0.752-0.07h0.125c0.019-0.046 0.046-0.233 0.058-0.315 0.017-0.112 0.031-0.232 0.065-0.357l0.057-0.202c0.029-0.108 0.107-0.199 0.21-0.245l0.236-0.109c0.825-0.374 1.148-0.834 1.424-1.507l0.082-0.19c0.039-0.094 0.114-0.168 0.211-0.202l0.222-0.09c0.308-0.125 0.366-0.229 0.521-0.587 0.053-0.113 0.1-0.223 0.155-0.331l0.099-0.195c0.051-0.094 0.137-0.167 0.241-0.194l0.25-0.07c0.146-0.04 0.298-0.065 0.457-0.082l0.315-5.228c0.021-0.331 0.224-0.802 0.452-1.048l0.518-0.56c0.228-0.245 0.687-0.429 1.017-0.409l5.921 0.358c0.121 7e-3 0.256 0.052 0.389 0.109 0.148-0.086 0.294-0.176 0.47-0.25 0.428-0.183 0.887-0.315 1.291-0.432 0.401-0.113 0.787-0.226 1.11-0.366 0.159-0.065 0.296-0.136 0.412-0.213 0.244-0.156 0.494-0.445 0.738-0.725 0.387-0.443 0.864-0.996 1.59-1.413 0.042-0.082 0.08-0.168 0.119-0.254 0.185-0.393 0.394-0.841 0.825-1.269l0.071-0.07c0.03-0.031 0.065-0.058 0.104-0.078l0.098-0.042c0.197-0.094 0.364-0.168 0.518-0.233 0.498-0.214 0.899-0.339 1.244-0.386 0.277-0.266 0.593-0.502 0.931-0.714l-27.11-1.642c-0.335-0.019-0.791 0.164-1.017 0.409l-3.854 4.18c-0.226 0.246-0.427 0.717-0.446 1.048l-0.459 7.59c0.191 0.1 0.341 0.249 0.426 0.44z"/>
			<path d="m23.292 48.724c-0.277-0.315-0.538-0.533-1.018-0.646l-0.425-0.102c-0.147-0.034-0.257-0.151-0.287-0.299l-0.062-0.323c-0.05-0.265-0.799-0.515-1.434-0.705-0.055 0.176-0.159 0.296-0.24 0.374-0.176 0.151-0.483 0.334-1.028 0.253-0.016 0-0.026-4e-3 -0.043-4e-3 -0.022 0.02-0.046 0.042-0.069 0.066-0.198 0.198-0.443 0.439-0.834 0.604-0.366 0.155-0.752 0.155-1.035 0.155h-0.108c-0.062 0-0.119 0-0.159 4e-3 -0.264 0.073-0.587 0.183-0.927 0.3-0.313 0.106-0.646 0.212-0.985 0.311l0.548 8.783c1.303-3.356 3.742-7.449 8.106-8.771z"/>
			<path d="m3.345 79.873c0.151 0.209 0.273 0.555 0.314 0.856l3.882 6.419c0.554 0.502 0.83 1.089 0.826 1.744 0.011 0.011 0.022 0.02 0.033 0.025 0.06 0.04 0.119 0.083 0.176 0.133l0.113 0.094c0.102 0.082 0.15 0.21 0.137 0.335l-0.016 0.125c-0.036 0.327 0.121 0.538 0.421 0.914 0.366 0.456 0.854 1.063 0.674 1.994 0.076 0.094 0.158 0.187 0.244 0.284 0.323 0.369 0.682 0.781 0.938 1.275l0.039 0.012c0.592 0.223 1.261 0.472 1.529 0.992 0.141 0.272 0.141 0.572 5e-3 0.85 0.533 0.322 0.709 0.785 0.838 1.129 0.072 0.189 0.139 0.361 0.248 0.529 0.104 0.156 0.266 0.308 0.429 0.467l0.035 0.031c0.284 0.272 0.604 0.571 0.739 0.98 0.447 0.361 0.729 0.787 0.979 1.164 0.296 0.443 0.554 0.82 1.005 1.055l0.254 0.137c0.235 0.035 0.437 0.151 0.539 0.215l0.22 0.115c0.066 0.037 0.116 0.084 0.155 0.146l0.043 0.021 5.332 0.188c0.332 0.013 0.784 0.228 1.005 0.479l0.775 0.887c0.218 0.255 0.389 0.73 0.373 1.064l-0.196 5.475c0.045 0.143 0.048 0.295-2e-3 0.441-4e-3 8e-3 -9e-3 0.02-0.013 0.034l-3e-3 5e-3 -2e-3 0.088c0.225-0.084 0.439-0.16 0.647-0.221 0.26-0.074 0.699-0.172 1.103-0.133 7e-3 -8e-3 0.011-8e-3 0.02-0.016 0.183-0.137 0.423-0.313 0.817-0.422 0.108-0.033 0.222-0.057 0.338-0.076l0.043-4e-3c0.012-4e-3 0.028-4e-3 0.039-4e-3h0.039c0.463-5e-3 0.979-0.095 1.529-0.191 0.607-0.108 1.237-0.221 1.853-0.221 0.308 0 0.584 0.03 0.841 0.084 0.168-0.068 0.331-0.127 0.502-0.179 0.504-0.146 0.959-0.176 1.396-0.214 0.386-0.027 0.738-0.055 1.079-0.154 0.115-0.031 0.225-0.072 0.334-0.117l0.111-0.168c0.237-0.354 0.598-0.604 1.056-0.735 0.347-0.097 0.695-0.109 0.963-0.109 0.14 0 0.279 5e-3 0.416 5e-3 0.379 0.016 0.613 0.016 0.755-0.017l0.194-0.047c0.108-0.027 0.226 0 0.319 0.071l0.123 0.097c0.086 0.063 0.271 0.112 0.429 0.155 0.267 0.076 0.61 0.189 0.901 0.418l0.154-4.291c0.012-0.334-0.152-0.817-0.37-1.07l-2.984-3.546c-0.214-0.256-0.214-0.674 0-0.93l2.017-2.418c0.215-0.256 0.396-0.738 0.408-1.07l0.521-14.543c0.013-0.33-0.14-0.825-0.338-1.09l-3.388-4.527c-0.201-0.264-0.64-0.494-0.97-0.505l-31.695-1.136c-0.335-0.012-0.767 0.197-0.967 0.463l-2.031 2.748c-0.198 0.27-0.202 0.709-8e-3 0.98l1.736 2.431zm14.778 1.398c0.011-0.331 0.295-0.596 0.627-0.58l5.273 0.188c0.331 0.012 0.773 0.232 0.98 0.494l0.499 0.627c0.207 0.26 0.37 0.746 0.354 1.078l-0.356 10.039c-0.014 0.329-0.207 0.801-0.434 1.051l-0.541 0.582c-0.227 0.246-0.686 0.438-1.016 0.426l-5.274-0.19c-0.331-8e-3 -0.597-0.293-0.584-0.623l0.472-13.092z"/>
			<path d="m15.748 71.056c0.202 0.266 0.644 0.464 0.974 0.443l13.212-0.824c0.33-0.02 0.735-0.277 0.899-0.564l1.67-2.967c0.162-0.287 0.107-0.725-0.118-0.971l-1.923-2.055c-0.229-0.244-0.432-0.717-0.45-1.048l-0.732-11.7c-0.375-0.18-0.683-0.387-0.937-0.596-0.218 0.093-0.449 0.136-0.716 0.122l-0.317-0.016c-0.099-4e-3 -0.188-0.043-0.258-0.113l-0.194-0.201c-0.207-0.211-0.432-0.328-0.73-0.371-0.316-0.046-0.77 0.021-1.23 0.101-0.229 0.041-0.465 0.079-0.692 0.103-4.542 0.517-7.524 6.527-8.847 9.875l0.23 3.694c0.024 0.334-0.12 0.828-0.314 1.099l-1.654 2.276c-0.194 0.273-0.189 0.709 0.017 0.973l2.11 2.74z"/>
			<path d="m3.401 91.029 0.21-0.047c0.632-0.141 1.52-0.175 2.173-0.078 0.45 0.066 0.824 0.191 1.113 0.371 0.226-0.079 0.442-0.145 0.657-0.203-0.07-0.102-0.159-0.201-0.27-0.314l-0.063-0.059c-0.055-0.056-0.095-0.125-0.104-0.203l-0.031-0.154c-0.163-0.885-0.334-1.797-0.764-2.48-8e-3 -8e-3 -0.011-0.02-0.02-0.031l-2.686-5.25-0.305 8.5c0.032-0.018 0.056-0.042 0.09-0.052z"/>
		</g>
		
			
				<path d="m54.612 60.814" fill="#231F20"/>
			
		
		
			
				<path d="m54.612 60.814" fill="#231F20"/>
			
		
		<g fill="#D33628">
			<polygon points="121.14 19.232 124.95 19.232 124.95 3.763 128.41 3.763 128.41 0 117.75 0 117.75 3.763 121.14 3.763"/>
			<path d="m144.04 19.232h3.777c1.01 0 1.82-0.345 2.422-1.026 0.598-0.673 0.897-1.592 0.897-2.724v-3.983c0-1.132-0.35-2.043-1.035-2.693-0.673-0.699-1.53-1.055-2.554-1.055h-2.753v-3.988h2.266v1.902h3.807v-1.913c0-1.13-0.302-2.049-0.896-2.724-0.601-0.68-1.415-1.028-2.423-1.028h-3.239c-1.009 0-1.824 0.348-2.425 1.028-0.595 0.675-0.896 1.59-0.896 2.724v4.013c0 1.112 0.348 2.029 1.04 2.729 0.688 0.676 1.546 1.021 2.548 1.021h2.754v3.956h-2.808v-1.9h-3.804v1.913c0 1.132 0.3 2.051 0.895 2.724 0.602 0.68 1.418 1.024 2.427 1.024z"/>
			<path d="m132.54 19.232h3.781c1.01 0 1.819-0.345 2.421-1.026 0.598-0.673 0.896-1.592 0.896-2.724v-11.73c0-1.13-0.3-2.049-0.896-2.724-0.601-0.68-1.411-1.028-2.42-1.028h-3.781c-1.006 0-1.821 0.348-2.422 1.028-0.597 0.675-0.897 1.594-0.897 2.724v11.73c0 1.132 0.302 2.051 0.897 2.724 0.599 0.682 1.416 1.026 2.421 1.026zm0.486-15.469h2.81v11.707h-2.81v-11.707z"/>
			<path d="m54.774 19.232h3.778c1.008 0 1.821-0.345 2.425-1.026 0.594-0.673 0.896-1.592 0.896-2.724v-11.73c0-1.13-0.303-2.049-0.896-2.724-0.603-0.68-1.417-1.028-2.425-1.028h-3.778c-1.007 0-1.823 0.348-2.423 1.028-0.597 0.675-0.898 1.59-0.898 2.724v11.73c0 1.132 0.303 2.051 0.898 2.724 0.599 0.682 1.416 1.026 2.423 1.026zm0.484-15.469h2.807v11.707h-2.807v-11.707z"/>
			<polygon points="108.35 3.45 110.8 19.232 116.94 19.232 116.94 0 113.59 0 113.59 15.797 111.08 0 105 0 105 19.232 108.35 19.232"/>
			<polygon points="50.644 15.47 45.734 15.47 45.734 0 41.927 0 41.927 19.232 50.644 19.232"/>
			<path d="m66.272 19.232h3.778c1.009 0 1.825-0.345 2.421-1.026 0.597-0.673 0.9-1.592 0.9-2.724v-3.983c0-1.132-0.352-2.043-1.036-2.693-0.673-0.699-1.531-1.055-2.553-1.055h-2.759v-3.988h2.27v1.902h3.805v-1.913c0-1.13-0.3-2.049-0.895-2.724-0.599-0.68-1.411-1.028-2.42-1.028h-3.239c-1.009 0-1.823 0.348-2.425 1.028-0.598 0.675-0.896 1.59-0.896 2.724v4.013c0 1.115 0.346 2.029 1.039 2.729 0.687 0.676 1.544 1.021 2.544 1.021h2.758v3.956h-2.808v-1.9h-3.805v1.913c0 1.132 0.302 2.051 0.896 2.724 0.602 0.68 1.416 1.024 2.425 1.024z"/>
			<path d="m96.542 15.865h3.27l0.459 3.367h3.812l-3.067-19.232h-5.655l-3.091 19.232h3.812l0.46-3.367zm1.633-12.328 1.118 8.565h-2.236l1.118-8.565z"/>
			<path d="m85.056 19.232h3.78c1.009 0 1.823-0.345 2.422-1.026 0.596-0.673 0.898-1.592 0.898-2.724v-3.983c0-1.132-0.352-2.043-1.034-2.693-0.675-0.699-1.532-1.055-2.561-1.055h-2.746v-3.988h2.264v1.902h3.805v-1.913c0-1.13-0.3-2.049-0.896-2.724-0.598-0.68-1.412-1.028-2.425-1.028h-3.236c-1.006 0-1.821 0.348-2.422 1.028-0.597 0.675-0.896 1.59-0.896 2.724v4.013c0 1.115 0.352 2.029 1.036 2.729 0.689 0.676 1.55 1.021 2.557 1.021h2.75v3.956h-2.807v-1.9h-3.807v1.913c0 1.132 0.303 2.051 0.896 2.724 0.601 0.68 1.415 1.024 2.422 1.024z"/>
		</g>
	

</svg>
