<?xml version="1.0" encoding="UTF-8" standalone="no"?>
<svg
   version="1.1"
   id="Layer_1"
   x="0px"
   y="0px"
   width="142.96001"
   height="142.96001"
   viewBox="0 0 142.96 142.96"
   enable-background="new 0 0 164.264 142.957"
   xml:space="preserve"
   sodipodi:docname="Non_Stop_Pop.svg"
   inkscape:version="1.4-beta3 (01c8a1c, 2024-08-28, custom)"
   xmlns:inkscape="http://www.inkscape.org/namespaces/inkscape"
   xmlns:sodipodi="http://sodipodi.sourceforge.net/DTD/sodipodi-0.dtd"
   xmlns="http://www.w3.org/2000/svg"
   xmlns:svg="http://www.w3.org/2000/svg"><defs
   id="defs16" /><sodipodi:namedview
   id="namedview16"
   pagecolor="#ffffff"
   bordercolor="#000000"
   borderopacity="0.25"
   inkscape:showpageshadow="2"
   inkscape:pageopacity="0.0"
   inkscape:pagecheckerboard="0"
   inkscape:deskcolor="#d1d1d1"
   inkscape:zoom="2.7665662"
   inkscape:cx="155.06587"
   inkscape:cy="54.761026"
   inkscape:window-width="1920"
   inkscape:window-height="1009"
   inkscape:window-x="1912"
   inkscape:window-y="-8"
   inkscape:window-maximized="1"
   inkscape:current-layer="Layer_1" />
<g
   id="g16"
   transform="translate(2.3422527,-3.4011514e-5)">
	<path
   fill="none"
   stroke="#ffff00"
   stroke-width="1.5156"
   stroke-miterlimit="10"
   d="M 74.19,10.056"
   id="path1" />
	<path
   fill="#d54b45"
   d="m 131.102,24.642 c -0.872,-1.671 -1.568,-2.201 -2.716,-2.89 -0.469,-0.282 -0.97,-0.594 -1.613,-0.907 C 123.159,19.087 84.863,4.828 74.84,1.471 71.927,0.494 69.35,0 67.174,0 64.579,0 63.02,0.694 61.88,1.199 61.674,1.291 61.484,1.377 61.304,1.451 59.368,2.252 22.406,21.347 11.94,26.912 9.083,28.431 7.263,30.147 6.108,31.807 l 63.528,31.881 z"
   id="path2" />
	<path
   fill="#ffffff"
   d="M 78.858,9.562 C 78.944,9.094 72.934,7.313 72.246,7.778 71.207,8.478 43.443,27.2 43.443,27.2 42.966,26.725 69.164,6.814 69.164,6.814 68.143,5.994 64.607,3.893 63.481,4.369 62.355,4.846 17.326,28.136 17.663,29.614 c 0,0 3.969,2.745 5.229,2.283 1.26,-0.462 23.247,-14.656 23.966,-14.285 0.21,-0.079 -19.247,16.42 -18.415,17.275 1.234,0.477 5.463,3.44 6.442,3.137 C 36.229,36.787 78.772,10.03 78.858,9.562 Z"
   id="path3" />
	<path
   fill="#ffffff"
   d="m 118.298,26.33 c -0.248,-0.831 -6.193,-3.438 -6.987,-2.919 -0.793,0.521 -29.414,19.317 -29.414,19.317 -0.637,0.179 21.356,-21.898 21.209,-22.601 -0.148,-0.704 -6.26,-2.799 -6.697,-2.483 -0.439,0.313 -41.674,29.715 -40.996,30.156 0.675,0.441 4.5,2.995 5.474,3.018 0.971,0.023 21.758,-17.14 21.758,-17.14 0.774,0.325 -17.361,19.129 -16.778,19.294 0.584,0.168 4.157,2.33 5.199,2.472 1.042,0.145 47.482,-28.285 47.232,-29.114 z"
   id="path4" />
	<path
   fill="#ffffff"
   d="M 86.585,12.983 C 79.319,10.185 67.201,18.252 60.292,23.52 53.381,28.789 39.8,39.9 46.076,43.383 54.265,47.926 62.304,39.762 73.911,31.4 85.112,23.329 92.92,15.427 86.585,12.983 Z M 51.273,38.809 C 49.139,36.905 56.408,31.915 63.182,26.626 70.768,20.705 79.008,14.87 82.33,16.482 85.651,18.095 72.037,26.866 69.757,28.575 67.481,30.283 53.697,40.968 51.273,38.809 Z"
   id="path5" />
	<path
   fill="#a8c53a"
   d="m 73.659,69.191 61.164,-37.596 c 3.578,3.928 4.073,71.236 2.854,72.005 -1.512,0.948 -55.218,35.006 -64.766,39.356 z"
   id="path6" />
	<path
   fill="#ffffff"
   d="m 115.694,87.46 -0.006,-1.13 c -0.035,-8.246 -0.916,-27.42 -8.335,-27.42 -0.585,0 -1.199,0.122 -1.827,0.364 -7.2,2.776 -7.489,12.406 -7.935,26.982 l -0.058,1.916 c -0.278,8.946 1.016,19.598 4.54,23.233 0.86,0.891 1.831,1.34 2.885,1.34 h 0.002 c 0.57,0 1.165,-0.134 1.772,-0.399 9.087,-3.987 9.013,-16.067 8.962,-24.886 z m -8.437,17.946 c -0.425,0.215 -0.767,0.152 -1.123,-0.211 -2.387,-2.393 -2.868,-14.922 -2.854,-19.123 0.042,-11.652 1.302,-19.109 3.374,-19.949 0.107,-0.043 0.208,-0.063 0.3,-0.063 2.436,0 3.062,12.572 3.295,17.305 l 0.071,1.396 c 0.037,0.741 0.093,1.554 0.149,2.415 0.427,6.404 1.071,16.08 -3.212,18.23 z"
   id="path7" />
	<path
   fill="#ffffff"
   d="m 96.4,81.496 c -0.452,-4.889 -0.889,-11.809 -6.202,-12.775 -0.916,-0.167 -2.005,0.386 -2.375,0.5 -3.625,1.125 -5.964,1.947 -7.375,3.375 -0.708,0.717 -0.59,4.223 -0.657,5.942 -0.218,5.558 -0.644,50.282 -0.093,50.433 0,0 6.746,-3.535 6.75,-4.5 0.004,-0.539 -0.2,-17.818 -0.25,-20.375 1.323,-0.568 7.089,-2.879 8.949,-8.02 1.066,-2.946 1.675,-10.033 1.253,-14.58 z m -6.327,13.1 c -1.065,1.008 -3.213,2.269 -4.07,2.655 l -0.43,-19.28 c 0.146,-0.308 0.158,-1.717 1.75,-2.125 0.321,-0.082 0.979,-0.125 1.25,-0.125 2.293,0 2.523,3.772 2.584,6.584 0.01,0.43 0.015,0.834 0.041,1.084 0.279,2.7 0.262,9.902 -1.125,11.207 z"
   id="path8" />
	<path
   fill="#ffffff"
   d="m 133.222,55.682 c -0.433,-4.656 -2.233,-7.463 -5.352,-8.348 -2.527,-0.722 -8.989,2.563 -10.898,4.498 -0.445,0.449 -0.649,0.818 -0.647,1.162 0.009,0.719 2.996,52.971 3.499,53.102 0.075,0.021 0.166,0.059 0.249,0.029 1.197,-0.402 5.37,-2.832 5.376,-3.779 0.002,-0.547 -0.847,-18.561 -1,-21.25 1.393,-0.576 7.32,-3.324 8.621,-8.963 0.793,-3.449 0.844,-8.987 0.152,-16.451 z m -4.545,13.937 c -0.13,1.873 -3.008,3.757 -4.637,4.613 -0.274,-3.273 -1.516,-17.993 -1.604,-18.946 -0.01,-0.101 0.058,-0.292 0.271,-0.528 0.478,-0.521 1.523,-1.081 2.697,-1.081 0.415,0 0.812,0.071 1.178,0.21 2.134,0.812 2.508,9.69 2.095,15.732 z"
   id="path9" />
	<path
   fill="#e49360"
   d="m 65.371,69.191 -0.747,73.766 C 60.31,143.008 2.976,114.672 0.827,107.021 -0.474,102.392 -0.427,49.094 2.323,38.594 Z"
   id="path10" />
	<path
   fill="#ffffff"
   d="m 38.763,68.041 c -0.531,-0.202 -1.052,-0.305 -1.555,-0.305 -4.452,0 -7.225,7.728 -8.479,23.625 -0.061,0.768 -0.13,1.576 -0.205,2.419 -0.765,8.593 -1.812,20.358 5.716,23.743 0.5,0.224 0.994,0.338 1.468,0.338 4.94,0 6.714,-11.608 8.517,-26.781 1.646,-13.887 2.059,-20.146 -5.462,-23.039 z m 0.612,24.007 -0.069,0.753 c -0.782,9.016 -2.622,18.342 -4.355,18.342 -0.074,0 -0.147,-0.022 -0.233,-0.064 -2.196,-1.139 -1.663,-9.024 -1.146,-16.714 1.128,-16.767 3.014,-20.284 4.398,-20.284 0.096,0 0.192,0.018 0.294,0.052 1.008,0.346 2.492,3.133 1.111,17.915 z"
   id="path11" />
	<path
   fill="#ffffff"
   d="m 30.729,70.946 c 0.747,-0.096 1.162,-1.824 1.379,-3.258 0.304,-2.005 0.184,-3.148 -0.362,-3.397 L 20.318,58.774 20.111,58.727 c -0.456,0 -0.63,0.558 -0.758,1.077 -0.114,0.465 -0.896,4.911 0.006,5.387 l 2.366,1.246 c -1.452,28.368 -1.938,42.997 -1.443,43.479 0.55,0.531 3.095,2.264 4.117,2.264 0.165,0 0.307,-0.039 0.422,-0.117 0.335,-0.227 0.437,-0.297 1.284,-21.371 0.374,-9.26 0.79,-19.671 1.064,-21.617 0.658,0.15 2.014,1.132 2.526,1.443 0.451,0.27 0.715,0.444 1.034,0.428 z"
   id="path12" />
	<path
   fill="#ffffff"
   d="m 9.087,63.272 c 0.248,-1.056 0.764,-1.66 1.41,-1.66 0.5,0 1.056,0.361 1.479,0.966 0.377,0.537 1.512,2.556 0.293,6.016 -0.063,0.183 -0.091,0.475 0.154,0.824 0.607,0.863 2.77,1.739 3.633,1.739 0.421,0 0.568,-0.216 0.621,-0.348 0.215,-0.543 1.091,-4.578 1.006,-8.022 -0.05,-1.971 -0.734,-6.687 -6.04,-7.967 -0.259,-0.062 -0.533,-0.095 -0.819,-0.095 -2.24,0 -6.533,2.222 -6.757,10.619 -0.116,4.4 2.414,10.467 4.86,16.334 2.301,5.518 4.475,10.728 4.157,13.866 -0.484,4.771 -1.826,5.14 -2.224,5.14 -0.358,0 -0.747,-0.221 -1.096,-0.619 C 9.26,99.487 8.963,98.659 9.043,98.044 9.394,95.385 9.758,91.75 9.766,91.713 L 9.791,91.465 9.582,91.326 C 8.716,90.753 5.825,88.879 4.93,88.879 H 4.924 c -1.015,0.146 -1.217,5.112 -1.208,9.251 0.006,2.601 2.743,8.692 8.031,8.694 h 0.002 c 0.436,0 0.884,-0.045 1.332,-0.131 4.545,-0.875 6.155,-6.864 6.153,-11.726 0,-3.172 -2.784,-10.229 -5.476,-17.056 C 11.259,71.572 8.673,65.017 9.087,63.272 Z"
   id="path13" />
	<path
   fill="#ffffff"
   d="m 58.48,78.049 c -1.433,-1.601 -6.253,-4.251 -8.853,-4.251 -0.771,0 -1.311,0.233 -1.604,0.694 -1.296,2.035 -4.673,44.025 -3.844,47.799 0.043,0.201 0.113,0.423 0.305,0.544 0.225,0.146 0.548,0.384 0.934,0.669 1.458,1.079 3.45,2.559 4.798,2.559 l 0.402,-0.004 0.021,-0.39 c 0.047,-0.97 0.335,-18.867 0.388,-22.245 0.573,0.131 1.548,0.307 2.545,0.307 1.175,0 2.079,-0.248 2.676,-0.739 3.295,-2.694 5.293,-7.782 5.211,-13.275 -0.063,-4.47 -0.342,-8.726 -2.979,-11.668 z m -2.555,15.293 c -0.39,1.824 -0.92,2.864 -1.271,3.088 -0.623,0.395 -1.854,0.61 -3.462,0.61 -0.167,0 -0.314,-0.004 -0.439,-0.007 0.548,-7.178 1.454,-14.832 1.982,-15.447 0.854,-0.311 1.502,0.438 2.435,1.855 1.492,2.267 1.438,6.722 0.755,9.901 z"
   id="path14" />
	
	
</g>
</svg>
