<?xml version="1.0" encoding="utf-8"?>
<svg version="1.1" id="Layer_1" xmlns="http://www.w3.org/2000/svg" xmlns:xlink="http://www.w3.org/1999/xlink" x="0px" y="0px"
	 width="164.264px" height="142.957px" viewBox="0 0 164.264 142.957" enable-background="new 0 0 164.264 142.957"
	 xml:space="preserve">
<g>
	<path fill="none" stroke="#FFFF00" stroke-width="1.5156" stroke-miterlimit="10" d="M74.19,10.056"/>
	<path fill="#D54B45" d="M131.102,24.642c-0.872-1.671-1.568-2.201-2.716-2.89c-0.469-0.282-0.97-0.594-1.613-0.907
		c-3.614-1.758-41.91-16.017-51.933-19.374C71.927,0.494,69.35,0,67.174,0c-2.595,0-4.154,0.694-5.294,1.199
		c-0.206,0.092-0.396,0.178-0.576,0.252C59.368,2.252,22.406,21.347,11.94,26.912c-2.857,1.519-4.677,3.235-5.832,4.895
		l63.528,31.881L131.102,24.642z"/>
	<path fill="#FFFFFF" d="M78.858,9.562c0.086-0.468-5.924-2.249-6.612-1.784C71.207,8.478,43.443,27.2,43.443,27.2
		C42.966,26.725,69.164,6.814,69.164,6.814c-1.021-0.82-4.557-2.921-5.683-2.445c-1.126,0.477-46.155,23.767-45.818,25.245
		c0,0,3.969,2.745,5.229,2.283c1.26-0.462,23.247-14.656,23.966-14.285c0.21-0.079-19.247,16.42-18.415,17.275
		c1.234,0.477,5.463,3.44,6.442,3.137C36.229,36.787,78.772,10.03,78.858,9.562z"/>
	<path fill="#FFFFFF" d="M118.298,26.33c-0.248-0.831-6.193-3.438-6.987-2.919c-0.793,0.521-29.414,19.317-29.414,19.317
		c-0.637,0.179,21.356-21.898,21.209-22.601c-0.148-0.704-6.26-2.799-6.697-2.483C95.97,17.957,54.735,47.359,55.413,47.8
		c0.675,0.441,4.5,2.995,5.474,3.018c0.971,0.023,21.758-17.14,21.758-17.14c0.774,0.325-17.361,19.129-16.778,19.294
		c0.584,0.168,4.157,2.33,5.199,2.472C72.108,55.589,118.548,27.159,118.298,26.33z"/>
	<path fill="#FFFFFF" d="M86.585,12.983c-7.266-2.798-19.384,5.269-26.293,10.537C53.381,28.789,39.8,39.9,46.076,43.383
		c8.189,4.543,16.228-3.621,27.835-11.983C85.112,23.329,92.92,15.427,86.585,12.983z M51.273,38.809
		c-2.134-1.904,5.135-6.894,11.909-12.183c7.586-5.921,15.826-11.756,19.148-10.144c3.321,1.613-10.293,10.384-12.573,12.093
		C67.481,30.283,53.697,40.968,51.273,38.809z"/>
	<path fill="#A8C53A" d="M73.659,69.191l61.164-37.596c3.578,3.928,4.073,71.236,2.854,72.005
		c-1.512,0.948-55.218,35.006-64.766,39.356L73.659,69.191z"/>
	<path fill="#FFFFFF" d="M115.694,87.46l-0.006-1.13c-0.035-8.246-0.916-27.42-8.335-27.42c-0.585,0-1.199,0.122-1.827,0.364
		c-7.2,2.776-7.489,12.406-7.935,26.982l-0.058,1.916c-0.278,8.946,1.016,19.598,4.54,23.233c0.86,0.891,1.831,1.34,2.885,1.34
		h0.002c0.57,0,1.165-0.134,1.772-0.399C115.819,108.359,115.745,96.279,115.694,87.46z M107.257,105.406
		c-0.425,0.215-0.767,0.152-1.123-0.211c-2.387-2.393-2.868-14.922-2.854-19.123c0.042-11.652,1.302-19.109,3.374-19.949
		c0.107-0.043,0.208-0.063,0.3-0.063c2.436,0,3.062,12.572,3.295,17.305l0.071,1.396c0.037,0.741,0.093,1.554,0.149,2.415
		C110.896,93.58,111.54,103.256,107.257,105.406z"/>
	<path fill="#FFFFFF" d="M96.4,81.496c-0.452-4.889-0.889-11.809-6.202-12.775c-0.916-0.167-2.005,0.386-2.375,0.5
		c-3.625,1.125-5.964,1.947-7.375,3.375c-0.708,0.717-0.59,4.223-0.657,5.942c-0.218,5.558-0.644,50.282-0.093,50.433
		c0,0,6.746-3.535,6.75-4.5c0.004-0.539-0.2-17.818-0.25-20.375c1.323-0.568,7.089-2.879,8.949-8.02
		C96.213,93.13,96.822,86.043,96.4,81.496z M90.073,94.596c-1.065,1.008-3.213,2.269-4.07,2.655l-0.43-19.28
		c0.146-0.308,0.158-1.717,1.75-2.125c0.321-0.082,0.979-0.125,1.25-0.125c2.293,0,2.523,3.772,2.584,6.584
		c0.01,0.43,0.015,0.834,0.041,1.084C91.477,86.089,91.46,93.291,90.073,94.596z"/>
	<path fill="#FFFFFF" d="M133.222,55.682c-0.433-4.656-2.233-7.463-5.352-8.348c-2.527-0.722-8.989,2.563-10.898,4.498
		c-0.445,0.449-0.649,0.818-0.647,1.162c0.009,0.719,2.996,52.971,3.499,53.102c0.075,0.021,0.166,0.059,0.249,0.029
		c1.197-0.402,5.37-2.832,5.376-3.779c0.002-0.547-0.847-18.561-1-21.25c1.393-0.576,7.32-3.324,8.621-8.963
		C133.863,68.684,133.914,63.146,133.222,55.682z M128.677,69.619c-0.13,1.873-3.008,3.757-4.637,4.613
		c-0.274-3.273-1.516-17.993-1.604-18.946c-0.01-0.101,0.058-0.292,0.271-0.528c0.478-0.521,1.523-1.081,2.697-1.081
		c0.415,0,0.812,0.071,1.178,0.21C128.716,54.699,129.09,63.577,128.677,69.619z"/>
	<path fill="#E49360" d="M65.371,69.191l-0.747,73.766c-4.314,0.051-61.648-28.285-63.797-35.936
		c-1.301-4.629-1.254-57.927,1.496-68.427L65.371,69.191z"/>
	<path fill="#FFFFFF" d="M38.763,68.041c-0.531-0.202-1.052-0.305-1.555-0.305c-4.452,0-7.225,7.728-8.479,23.625
		c-0.061,0.768-0.13,1.576-0.205,2.419c-0.765,8.593-1.812,20.358,5.716,23.743c0.5,0.224,0.994,0.338,1.468,0.338
		c4.94,0,6.714-11.608,8.517-26.781C45.871,77.193,46.284,70.934,38.763,68.041z M39.375,92.048l-0.069,0.753
		c-0.782,9.016-2.622,18.342-4.355,18.342c-0.074,0-0.147-0.022-0.233-0.064c-2.196-1.139-1.663-9.024-1.146-16.714
		c1.128-16.767,3.014-20.284,4.398-20.284c0.096,0,0.192,0.018,0.294,0.052C39.272,74.479,40.756,77.266,39.375,92.048z"/>
	<path fill="#FFFFFF" d="M30.729,70.946c0.747-0.096,1.162-1.824,1.379-3.258c0.304-2.005,0.184-3.148-0.362-3.397l-11.428-5.517
		l-0.207-0.047c-0.456,0-0.63,0.558-0.758,1.077c-0.114,0.465-0.896,4.911,0.006,5.387l2.366,1.246
		c-1.452,28.368-1.938,42.997-1.443,43.479c0.55,0.531,3.095,2.264,4.117,2.264c0.165,0,0.307-0.039,0.422-0.117
		c0.335-0.227,0.437-0.297,1.284-21.371c0.374-9.26,0.79-19.671,1.064-21.617c0.658,0.15,2.014,1.132,2.526,1.443
		C30.146,70.788,30.41,70.962,30.729,70.946z"/>
	<path fill="#FFFFFF" d="M9.087,63.272c0.248-1.056,0.764-1.66,1.41-1.66c0.5,0,1.056,0.361,1.479,0.966
		c0.377,0.537,1.512,2.556,0.293,6.016c-0.063,0.183-0.091,0.475,0.154,0.824c0.607,0.863,2.77,1.739,3.633,1.739
		c0.421,0,0.568-0.216,0.621-0.348c0.215-0.543,1.091-4.578,1.006-8.022c-0.05-1.971-0.734-6.687-6.04-7.967
		c-0.259-0.062-0.533-0.095-0.819-0.095c-2.24,0-6.533,2.222-6.757,10.619c-0.116,4.4,2.414,10.467,4.86,16.334
		c2.301,5.518,4.475,10.728,4.157,13.866c-0.484,4.771-1.826,5.14-2.224,5.14c-0.358,0-0.747-0.221-1.096-0.619
		c-0.504-0.578-0.801-1.406-0.721-2.021c0.351-2.659,0.715-6.294,0.723-6.331l0.025-0.248l-0.209-0.139
		c-0.866-0.573-3.757-2.447-4.652-2.447H4.924c-1.015,0.146-1.217,5.112-1.208,9.251c0.006,2.601,2.743,8.692,8.031,8.694h0.002
		c0.436,0,0.884-0.045,1.332-0.131c4.545-0.875,6.155-6.864,6.153-11.726c0-3.172-2.784-10.229-5.476-17.056
		C11.259,71.572,8.673,65.017,9.087,63.272z"/>
	<path fill="#FFFFFF" d="M58.48,78.049c-1.433-1.601-6.253-4.251-8.853-4.251c-0.771,0-1.311,0.233-1.604,0.694
		c-1.296,2.035-4.673,44.025-3.844,47.799c0.043,0.201,0.113,0.423,0.305,0.544c0.225,0.146,0.548,0.384,0.934,0.669
		c1.458,1.079,3.45,2.559,4.798,2.559l0.402-0.004l0.021-0.39c0.047-0.97,0.335-18.867,0.388-22.245
		c0.573,0.131,1.548,0.307,2.545,0.307c1.175,0,2.079-0.248,2.676-0.739c3.295-2.694,5.293-7.782,5.211-13.275
		C61.396,85.247,61.117,80.991,58.48,78.049z M55.925,93.342c-0.39,1.824-0.92,2.864-1.271,3.088
		c-0.623,0.395-1.854,0.61-3.462,0.61c-0.167,0-0.314-0.004-0.439-0.007c0.548-7.178,1.454-14.832,1.982-15.447
		c0.854-0.311,1.502,0.438,2.435,1.855C56.662,85.708,56.608,90.163,55.925,93.342z"/>
	<path fill="#231F20" d="M142.144,35.623c0.298,0.03,3.635,0.397,3.555-0.315c-0.078-0.712-0.188-11.594,0.129-11.633
		c0.547-0.067,3.914,0.158,4.017-0.317c0.149-0.694,0.149-3.121-0.351-3.148c-0.729-0.037-3.981-0.011-3.981-0.011
		c-0.158-0.712-0.396-8.579-0.07-8.629c1.521-0.244,4.338,0.367,4.369,0.026c0.03-0.767,0.129-3.231-0.269-3.231
		c-0.371,0-4.703-0.157-6.719,0c-0.536,0.041-0.68,0.213-0.68,0.886C142.222,10.198,141.844,35.596,142.144,35.623z"/>
	<path fill="#231F20" d="M150.728,35.709c0.39,0.039,2.865,0.351,2.865-0.281c0-0.633-0.426-20.874-0.091-20.809
		c0.338,0.064,2.047,20.796,2.838,20.952c0.789,0.159,2.528,0.237,2.884,0c0.356-0.239,1.807-20.495,2.191-20.509
		c0.388-0.014-0.501,20.232,0.063,20.232c0.563,0,2.201,0.013,2.615-0.158c0.417-0.172,0.014-26.427-0.619-26.585
		c-0.633-0.159-4.052-0.289-4.052,0.025c0,0.317-1.399,20.275-1.778,20.275c-0.377,0-1.997-20.429-2.313-20.484
		c-0.314-0.054-3.588-0.103-4.037,0.291C150.846,9.051,150.337,35.668,150.728,35.709z"/>
</g>
</svg>
